<svg width="1920" height="1080" viewBox="0 0 1920 1080" fill="none" xmlns="http://www.w3.org/2000/svg">
<g clip-path="url(#clip0_1220_2047)">
<rect width="1920" height="1080" fill="#F3EFD7"/>
<path d="M80 745C80 725.67 95.67 710 115 710H1104.5H1805C1824.33 710 1840 725.67 1840 745V965C1840 984.33 1824.33 1000 1805 1000H115C95.6701 1000 80 984.33 80 965V745Z" stroke="#EC641D" stroke-width="4"/>
<path d="M1020 709.5V727C1020 740.255 1030.75 751 1044 751H1295C1308.25 751 1319 740.255 1319 727V655" stroke="#736FB9" stroke-width="4" stroke-linecap="round"/>
<rect x="80" y="80" width="271" height="370" rx="35" fill="#F3EFD7" stroke="#736FB9" stroke-width="4"/>
<path d="M428.383 231.665L428.383 140.31L507.373 94.6328L586.362 140.31L586.362 231.665L507.373 277.343L428.383 231.665Z" stroke="#EC641D" stroke-width="2"/>
<path d="M428.383 231.668H586.362" stroke="#EC641D" stroke-width="2"/>
<path d="M428.383 140.439L586.362 140.313" stroke="#EC641D" stroke-width="2"/>
<path d="M428.383 140.439L586.362 231.668" stroke="#EC641D" stroke-width="2"/>
<path d="M428.383 140.439L507.373 277.346" stroke="#EC641D" stroke-width="2"/>
<path d="M586.362 140.439L507.372 277.346" stroke="#EC641D" stroke-width="2"/>
<path d="M586.362 140.439L428.383 231.668" stroke="#EC641D" stroke-width="2"/>
<path d="M507.373 94.6348L507.373 277.345" stroke="#EC641D" stroke-width="2"/>
<path d="M507.373 94.6348L428.383 231.667" stroke="#EC641D" stroke-width="2"/>
<path d="M507.373 94.6348L586.362 231.667" stroke="#EC641D" stroke-width="2"/>
<circle cx="508.006" cy="277.22" r="14.1275" fill="#EC641D" stroke="#EC641D" stroke-width="0.766606"/>
<circle cx="586.489" cy="231.542" r="14.1275" fill="#EC641D" stroke="#EC641D" stroke-width="0.766606"/>
<circle cx="586.489" cy="140.44" r="14.1275" fill="#EC641D" stroke="#EC641D" stroke-width="0.766606"/>
<circle cx="507.5" cy="94.5098" r="14.1275" fill="#EC641D" stroke="#EC641D" stroke-width="0.766606"/>
<circle cx="428.511" cy="231.542" r="14.1275" fill="#EC641D" stroke="#EC641D" stroke-width="0.766606"/>
<circle cx="428.511" cy="140.44" r="13.9359" fill="#EC641D" stroke="#EC641D" stroke-width="1.14991"/>
<path d="M156.906 137L165.098 114.28H169.482L177.674 137H173.994L171.914 131.08H162.634L160.586 137H156.906ZM163.722 127.944H170.858L167.274 117.576L163.722 127.944ZM180.103 137V119.976H183.207L183.335 124.488L183.047 124.392C183.282 122.856 183.751 121.736 184.455 121.032C185.18 120.328 186.151 119.976 187.367 119.976H188.999V123.016H187.367C186.514 123.016 185.799 123.155 185.223 123.432C184.647 123.709 184.21 124.136 183.911 124.712C183.634 125.288 183.495 126.035 183.495 126.952V137H180.103ZM198.424 137.384C196.802 137.384 195.384 137.021 194.168 136.296C192.952 135.571 192.013 134.536 191.352 133.192C190.69 131.848 190.36 130.28 190.36 128.488C190.36 126.696 190.69 125.139 191.352 123.816C192.013 122.472 192.952 121.437 194.168 120.712C195.384 119.965 196.802 119.592 198.424 119.592C199.81 119.592 201.037 119.837 202.104 120.328C203.192 120.797 204.066 121.491 204.728 122.408C205.41 123.325 205.848 124.445 206.04 125.768L202.488 125.96C202.317 124.851 201.869 124.008 201.144 123.432C200.418 122.835 199.512 122.536 198.424 122.536C196.994 122.536 195.874 123.069 195.064 124.136C194.274 125.181 193.88 126.632 193.88 128.488C193.88 130.344 194.274 131.805 195.064 132.872C195.874 133.917 196.994 134.44 198.424 134.44C199.512 134.44 200.418 134.141 201.144 133.544C201.869 132.925 202.317 131.997 202.488 130.76L206.04 130.952C205.848 132.253 205.41 133.384 204.728 134.344C204.066 135.304 203.192 136.051 202.104 136.584C201.037 137.117 199.81 137.384 198.424 137.384ZM209.134 137V114.28H212.526V123.816L212.11 123.752C212.302 122.792 212.654 122.013 213.166 121.416C213.678 120.797 214.308 120.339 215.054 120.04C215.801 119.741 216.622 119.592 217.518 119.592C218.756 119.592 219.801 119.869 220.654 120.424C221.508 120.957 222.148 121.715 222.574 122.696C223.022 123.677 223.246 124.797 223.246 126.056V137H219.854V126.952C219.854 125.416 219.588 124.285 219.054 123.56C218.542 122.813 217.732 122.44 216.622 122.44C215.385 122.44 214.393 122.835 213.646 123.624C212.9 124.392 212.526 125.523 212.526 127.016V137H209.134ZM233.848 137L225.656 114.28H229.336L236.024 133.16L242.712 114.28H246.392L238.168 137H233.848ZM249.018 137V114.28H253.754L260.506 132.936L267.258 114.28H271.994V137H268.538V120.36L262.426 136.968H258.586L252.474 120.36V137H249.018Z" fill="#736FB9"/>
<rect x="98" y="380" width="235" height="50" rx="15" fill="#736FB9"/>
<rect x="98" y="310" width="235" height="50" rx="15" fill="#736FB9"/>
<rect x="98" y="240" width="235" height="50" rx="15" fill="#736FB9"/>
<rect x="98" y="170" width="235" height="50" rx="15" fill="#736FB9"/>
<path d="M129.236 414V395.54H135.866C138.085 395.54 139.757 395.939 140.884 396.736C142.011 397.533 142.574 398.799 142.574 400.532C142.574 401.312 142.409 401.997 142.08 402.586C141.751 403.175 141.265 403.643 140.624 403.99C140 404.319 139.255 404.493 138.388 404.51L138.362 404.406C139.939 404.441 141.161 404.874 142.028 405.706C142.912 406.521 143.354 407.595 143.354 408.93C143.354 410.611 142.791 411.877 141.664 412.726C140.537 413.575 138.934 414 136.854 414H129.236ZM132.044 411.478H136.776C137.937 411.478 138.839 411.244 139.48 410.776C140.139 410.291 140.468 409.589 140.468 408.67C140.468 407.769 140.139 407.067 139.48 406.564C138.839 406.061 137.937 405.81 136.776 405.81H132.044V411.478ZM132.044 403.418H135.814C137.045 403.418 137.998 403.184 138.674 402.716C139.35 402.248 139.688 401.589 139.688 400.74C139.688 399.839 139.359 399.171 138.7 398.738C138.059 398.287 137.097 398.062 135.814 398.062H132.044V403.418ZM146.647 414V400.168H149.403V414H146.647ZM146.595 398.166V395.41H149.455V398.166H146.595ZM157.664 414C156.347 414 155.376 413.697 154.752 413.09C154.128 412.483 153.816 411.539 153.816 410.256V396.918H156.572V410.048C156.572 410.689 156.711 411.131 156.988 411.374C157.265 411.617 157.69 411.738 158.262 411.738H160.238V414H157.664ZM151.71 402.43V400.168H160.238V402.43H151.71ZM168.337 414.312C167.02 414.312 165.867 414.017 164.879 413.428C163.891 412.839 163.129 411.998 162.591 410.906C162.054 409.814 161.785 408.54 161.785 407.084C161.785 405.628 162.054 404.363 162.591 403.288C163.129 402.196 163.891 401.355 164.879 400.766C165.867 400.159 167.02 399.856 168.337 399.856C169.464 399.856 170.461 400.055 171.327 400.454C172.211 400.835 172.922 401.399 173.459 402.144C174.014 402.889 174.369 403.799 174.525 404.874L171.639 405.03C171.501 404.129 171.137 403.444 170.547 402.976C169.958 402.491 169.221 402.248 168.337 402.248C167.176 402.248 166.266 402.681 165.607 403.548C164.966 404.397 164.645 405.576 164.645 407.084C164.645 408.592 164.966 409.779 165.607 410.646C166.266 411.495 167.176 411.92 168.337 411.92C169.221 411.92 169.958 411.677 170.547 411.192C171.137 410.689 171.501 409.935 171.639 408.93L174.525 409.086C174.369 410.143 174.014 411.062 173.459 411.842C172.922 412.622 172.211 413.229 171.327 413.662C170.461 414.095 169.464 414.312 168.337 414.312ZM182.734 414.312C181.417 414.312 180.264 414.017 179.276 413.428C178.288 412.839 177.525 411.998 176.988 410.906C176.451 409.814 176.182 408.54 176.182 407.084C176.182 405.611 176.451 404.337 176.988 403.262C177.525 402.187 178.288 401.355 179.276 400.766C180.264 400.159 181.417 399.856 182.734 399.856C184.051 399.856 185.204 400.159 186.192 400.766C187.18 401.355 187.943 402.187 188.48 403.262C189.017 404.337 189.286 405.611 189.286 407.084C189.286 408.54 189.017 409.814 188.48 410.906C187.943 411.998 187.18 412.839 186.192 413.428C185.204 414.017 184.051 414.312 182.734 414.312ZM182.734 411.92C183.913 411.92 184.823 411.495 185.464 410.646C186.105 409.779 186.426 408.592 186.426 407.084C186.426 405.576 186.105 404.397 185.464 403.548C184.823 402.681 183.913 402.248 182.734 402.248C181.573 402.248 180.663 402.681 180.004 403.548C179.363 404.397 179.042 405.576 179.042 407.084C179.042 408.592 179.363 409.779 180.004 410.646C180.663 411.495 181.573 411.92 182.734 411.92ZM192.071 414V400.168H194.827V414H192.071ZM192.019 398.166V395.41H194.879V398.166H192.019ZM198.952 414V400.168H201.474L201.578 403.86L201.24 403.678C201.396 402.777 201.691 402.049 202.124 401.494C202.557 400.939 203.086 400.532 203.71 400.272C204.334 399.995 205.01 399.856 205.738 399.856C206.778 399.856 207.636 400.09 208.312 400.558C209.005 401.009 209.525 401.633 209.872 402.43C210.236 403.21 210.418 404.103 210.418 405.108V414H207.662V405.94C207.662 405.125 207.575 404.441 207.402 403.886C207.229 403.331 206.943 402.907 206.544 402.612C206.145 402.317 205.625 402.17 204.984 402.17C204.013 402.17 203.225 402.491 202.618 403.132C202.011 403.773 201.708 404.709 201.708 405.94V414H198.952ZM225.966 414.312C224.666 414.312 223.565 414.113 222.664 413.714C221.78 413.315 221.095 412.769 220.61 412.076C220.124 411.365 219.847 410.551 219.778 409.632L222.612 409.502C222.75 410.265 223.08 410.871 223.6 411.322C224.12 411.773 224.908 411.998 225.966 411.998C226.832 411.998 227.517 411.859 228.02 411.582C228.522 411.305 228.774 410.863 228.774 410.256C228.774 409.927 228.687 409.649 228.514 409.424C228.358 409.181 228.046 408.982 227.578 408.826C227.11 408.653 226.416 408.488 225.498 408.332C224.128 408.072 223.054 407.769 222.274 407.422C221.494 407.075 220.939 406.633 220.61 406.096C220.28 405.559 220.116 404.909 220.116 404.146C220.116 402.881 220.584 401.849 221.52 401.052C222.473 400.255 223.842 399.856 225.628 399.856C226.824 399.856 227.829 400.064 228.644 400.48C229.458 400.879 230.091 401.425 230.542 402.118C231.01 402.794 231.304 403.557 231.426 404.406L228.592 404.562C228.505 404.077 228.332 403.661 228.072 403.314C227.829 402.95 227.5 402.673 227.084 402.482C226.668 402.274 226.174 402.17 225.602 402.17C224.718 402.17 224.059 402.343 223.626 402.69C223.192 403.037 222.976 403.487 222.976 404.042C222.976 404.458 223.071 404.796 223.262 405.056C223.47 405.316 223.799 405.533 224.25 405.706C224.7 405.862 225.298 406.001 226.044 406.122C227.482 406.365 228.609 406.668 229.424 407.032C230.238 407.379 230.81 407.812 231.14 408.332C231.469 408.852 231.634 409.485 231.634 410.23C231.634 411.097 231.391 411.833 230.906 412.44C230.42 413.047 229.753 413.515 228.904 413.844C228.054 414.156 227.075 414.312 225.966 414.312ZM234.771 417.9V415.638H236.461C236.929 415.638 237.276 415.569 237.501 415.43C237.726 415.291 237.9 415.057 238.021 414.728L238.463 413.584H237.605L232.613 400.168H235.525L239.321 411.036L242.935 400.168H245.873L240.361 415.612C240.084 416.409 239.668 416.99 239.113 417.354C238.576 417.718 237.822 417.9 236.851 417.9H234.771ZM252.981 414.312C251.681 414.312 250.581 414.113 249.679 413.714C248.795 413.315 248.111 412.769 247.625 412.076C247.14 411.365 246.863 410.551 246.793 409.632L249.627 409.502C249.766 410.265 250.095 410.871 250.615 411.322C251.135 411.773 251.924 411.998 252.981 411.998C253.848 411.998 254.533 411.859 255.035 411.582C255.538 411.305 255.789 410.863 255.789 410.256C255.789 409.927 255.703 409.649 255.529 409.424C255.373 409.181 255.061 408.982 254.593 408.826C254.125 408.653 253.432 408.488 252.513 408.332C251.144 408.072 250.069 407.769 249.289 407.422C248.509 407.075 247.955 406.633 247.625 406.096C247.296 405.559 247.131 404.909 247.131 404.146C247.131 402.881 247.599 401.849 248.535 401.052C249.489 400.255 250.858 399.856 252.643 399.856C253.839 399.856 254.845 400.064 255.659 400.48C256.474 400.879 257.107 401.425 257.557 402.118C258.025 402.794 258.32 403.557 258.441 404.406L255.607 404.562C255.521 404.077 255.347 403.661 255.087 403.314C254.845 402.95 254.515 402.673 254.099 402.482C253.683 402.274 253.189 402.17 252.617 402.17C251.733 402.17 251.075 402.343 250.641 402.69C250.208 403.037 249.991 403.487 249.991 404.042C249.991 404.458 250.087 404.796 250.277 405.056C250.485 405.316 250.815 405.533 251.265 405.706C251.716 405.862 252.314 406.001 253.059 406.122C254.498 406.365 255.625 406.668 256.439 407.032C257.254 407.379 257.826 407.812 258.155 408.332C258.485 408.852 258.649 409.485 258.649 410.23C258.649 411.097 258.407 411.833 257.921 412.44C257.436 413.047 256.769 413.515 255.919 413.844C255.07 414.156 254.091 414.312 252.981 414.312ZM267.132 414.312C265.815 414.312 264.662 414.017 263.674 413.428C262.686 412.839 261.924 411.998 261.386 410.906C260.849 409.814 260.58 408.54 260.58 407.084C260.58 405.628 260.849 404.363 261.386 403.288C261.924 402.196 262.686 401.355 263.674 400.766C264.662 400.159 265.815 399.856 267.132 399.856C268.259 399.856 269.256 400.055 270.122 400.454C271.006 400.835 271.717 401.399 272.254 402.144C272.809 402.889 273.164 403.799 273.32 404.874L270.434 405.03C270.296 404.129 269.932 403.444 269.342 402.976C268.753 402.491 268.016 402.248 267.132 402.248C265.971 402.248 265.061 402.681 264.402 403.548C263.761 404.397 263.44 405.576 263.44 407.084C263.44 408.592 263.761 409.779 264.402 410.646C265.061 411.495 265.971 411.92 267.132 411.92C268.016 411.92 268.753 411.677 269.342 411.192C269.932 410.689 270.296 409.935 270.434 408.93L273.32 409.086C273.164 410.143 272.809 411.062 272.254 411.842C271.717 412.622 271.006 413.229 270.122 413.662C269.256 414.095 268.259 414.312 267.132 414.312ZM279.988 414.312C278.549 414.312 277.397 413.983 276.53 413.324C275.681 412.665 275.256 411.738 275.256 410.542C275.256 409.346 275.611 408.419 276.322 407.76C277.05 407.084 278.168 406.599 279.676 406.304L284.434 405.394C284.434 404.319 284.183 403.522 283.68 403.002C283.177 402.465 282.432 402.196 281.444 402.196C280.56 402.196 279.867 402.395 279.364 402.794C278.861 403.175 278.515 403.747 278.324 404.51L275.49 404.328C275.75 402.941 276.391 401.849 277.414 401.052C278.454 400.255 279.797 399.856 281.444 399.856C283.316 399.856 284.737 400.359 285.708 401.364C286.696 402.352 287.19 403.747 287.19 405.55V410.932C287.19 411.261 287.242 411.495 287.346 411.634C287.467 411.755 287.658 411.816 287.918 411.816H288.412V414C288.325 414.017 288.187 414.035 287.996 414.052C287.805 414.069 287.606 414.078 287.398 414.078C286.809 414.078 286.297 413.983 285.864 413.792C285.448 413.601 285.136 413.289 284.928 412.856C284.72 412.405 284.616 411.807 284.616 411.062L284.902 411.192C284.763 411.799 284.46 412.336 283.992 412.804C283.541 413.272 282.961 413.645 282.25 413.922C281.557 414.182 280.803 414.312 279.988 414.312ZM280.43 412.128C281.262 412.128 281.973 411.972 282.562 411.66C283.151 411.331 283.611 410.88 283.94 410.308C284.269 409.736 284.434 409.086 284.434 408.358V407.474L280.378 408.254C279.546 408.41 278.957 408.661 278.61 409.008C278.281 409.337 278.116 409.762 278.116 410.282C278.116 410.871 278.315 411.331 278.714 411.66C279.13 411.972 279.702 412.128 280.43 412.128ZM293.577 414C292.676 414 291.948 413.766 291.393 413.298C290.839 412.83 290.561 412.085 290.561 411.062V395.54H293.317V410.802C293.317 411.114 293.395 411.348 293.551 411.504C293.725 411.66 293.967 411.738 294.279 411.738H295.371V414H293.577ZM300.661 414C299.76 414 299.032 413.766 298.477 413.298C297.923 412.83 297.645 412.085 297.645 411.062V395.54H300.401V410.802C300.401 411.114 300.479 411.348 300.635 411.504C300.809 411.66 301.051 411.738 301.363 411.738H302.455V414H300.661Z" fill="#F3EFD7"/>
<rect x="403" y="429" width="208" height="144" rx="35" stroke="#EC641D" stroke-width="4"/>
<path d="M446.065 496V473.28H460.817V476.448H447.697L449.521 474.56V484.992L447.697 483.36H460.241V486.432H447.697L449.521 484.8V496H446.065ZM464.533 496V473.28H473.589C475.211 473.28 476.608 473.557 477.781 474.112C478.955 474.667 479.861 475.456 480.501 476.48C481.141 477.504 481.461 478.72 481.461 480.128C481.461 481.152 481.227 482.069 480.757 482.88C480.309 483.691 479.701 484.341 478.933 484.832C478.187 485.301 477.387 485.568 476.533 485.632L476.373 485.344C477.803 485.344 478.912 485.675 479.701 486.336C480.491 486.976 480.949 487.989 481.077 489.376L481.685 496H478.197L477.653 489.824C477.589 488.907 477.28 488.235 476.725 487.808C476.171 487.36 475.264 487.136 474.005 487.136H467.989V496H464.533ZM467.989 483.968H473.653C474.955 483.968 475.979 483.648 476.725 483.008C477.493 482.347 477.877 481.419 477.877 480.224C477.877 479.008 477.493 478.08 476.725 477.44C475.957 476.779 474.837 476.448 473.365 476.448H467.989V483.968ZM495.063 496.512C492.865 496.512 490.977 496.043 489.399 495.104C487.82 494.144 486.604 492.779 485.751 491.008C484.897 489.237 484.471 487.125 484.471 484.672C484.471 482.219 484.897 480.107 485.751 478.336C486.604 476.544 487.82 475.168 489.399 474.208C490.977 473.248 492.865 472.768 495.063 472.768C497.281 472.768 499.18 473.248 500.759 474.208C502.359 475.168 503.575 476.544 504.407 478.336C505.26 480.107 505.687 482.219 505.687 484.672C505.687 487.125 505.26 489.237 504.407 491.008C503.575 492.779 502.359 494.144 500.759 495.104C499.18 496.043 497.281 496.512 495.063 496.512ZM495.063 493.344C496.535 493.344 497.793 493.003 498.839 492.32C499.905 491.637 500.716 490.656 501.271 489.376C501.825 488.075 502.103 486.507 502.103 484.672C502.103 482.837 501.825 481.269 501.271 479.968C500.716 478.667 499.905 477.675 498.839 476.992C497.793 476.288 496.535 475.936 495.063 475.936C493.612 475.936 492.364 476.288 491.319 476.992C490.273 477.675 489.463 478.667 488.887 479.968C488.332 481.269 488.055 482.837 488.055 484.672C488.055 486.507 488.332 488.075 488.887 489.376C489.463 490.656 490.273 491.637 491.319 492.32C492.364 493.003 493.612 493.344 495.063 493.344ZM518.038 496.512C516.224 496.512 514.646 496.181 513.302 495.52C511.979 494.859 510.934 493.941 510.166 492.768C509.398 491.595 508.95 490.229 508.822 488.672L512.374 488.448C512.523 489.515 512.832 490.421 513.302 491.168C513.771 491.893 514.4 492.448 515.19 492.832C516 493.195 516.971 493.376 518.102 493.376C519.083 493.376 519.915 493.259 520.598 493.024C521.302 492.768 521.835 492.395 522.198 491.904C522.56 491.413 522.742 490.816 522.742 490.112C522.742 489.472 522.582 488.907 522.262 488.416C521.963 487.904 521.376 487.445 520.502 487.04C519.648 486.613 518.39 486.197 516.726 485.792C514.912 485.344 513.462 484.853 512.374 484.32C511.286 483.787 510.496 483.125 510.006 482.336C509.536 481.525 509.302 480.533 509.302 479.36C509.302 478.059 509.611 476.917 510.23 475.936C510.87 474.933 511.776 474.155 512.95 473.6C514.123 473.045 515.531 472.768 517.174 472.768C518.902 472.768 520.374 473.088 521.59 473.728C522.827 474.368 523.798 475.243 524.502 476.352C525.227 477.461 525.675 478.731 525.846 480.16L522.294 480.352C522.187 479.477 521.92 478.709 521.494 478.048C521.067 477.365 520.491 476.843 519.766 476.48C519.04 476.096 518.155 475.904 517.11 475.904C515.787 475.904 514.742 476.213 513.974 476.832C513.227 477.429 512.854 478.229 512.854 479.232C512.854 479.872 513.003 480.416 513.302 480.864C513.622 481.291 514.176 481.664 514.966 481.984C515.776 482.304 516.918 482.645 518.39 483.008C520.352 483.456 521.91 484.011 523.062 484.672C524.235 485.312 525.067 486.069 525.558 486.944C526.048 487.819 526.294 488.811 526.294 489.92C526.294 491.264 525.942 492.437 525.238 493.44C524.555 494.421 523.595 495.179 522.358 495.712C521.12 496.245 519.68 496.512 518.038 496.512ZM534.11 496V476.448H527.134V473.28H544.542V476.448H537.566V496H534.11ZM560.239 494.368V478.944H563.183V494.368H560.239ZM553.999 488.128V485.184H569.423V488.128H553.999ZM458.236 528V505.28H467.292C468.914 505.28 470.311 505.557 471.484 506.112C472.658 506.667 473.564 507.456 474.204 508.48C474.844 509.504 475.164 510.72 475.164 512.128C475.164 513.152 474.93 514.069 474.46 514.88C474.012 515.691 473.404 516.341 472.636 516.832C471.89 517.301 471.09 517.568 470.236 517.632L470.076 517.344C471.506 517.344 472.615 517.675 473.404 518.336C474.194 518.976 474.652 519.989 474.78 521.376L475.388 528H471.9L471.356 521.824C471.292 520.907 470.983 520.235 470.428 519.808C469.874 519.36 468.967 519.136 467.708 519.136H461.692V528H458.236ZM461.692 515.968H467.356C468.658 515.968 469.682 515.648 470.428 515.008C471.196 514.347 471.58 513.419 471.58 512.224C471.58 511.008 471.196 510.08 470.428 509.44C469.66 508.779 468.54 508.448 467.068 508.448H461.692V515.968ZM488.766 528.512C486.568 528.512 484.68 528.043 483.102 527.104C481.523 526.144 480.307 524.779 479.454 523.008C478.6 521.237 478.174 519.125 478.174 516.672C478.174 514.219 478.6 512.107 479.454 510.336C480.307 508.544 481.523 507.168 483.102 506.208C484.68 505.248 486.568 504.768 488.766 504.768C490.984 504.768 492.883 505.248 494.462 506.208C496.062 507.168 497.278 508.544 498.11 510.336C498.963 512.107 499.39 514.219 499.39 516.672C499.39 519.125 498.963 521.237 498.11 523.008C497.278 524.779 496.062 526.144 494.462 527.104C492.883 528.043 490.984 528.512 488.766 528.512ZM488.766 525.344C490.238 525.344 491.496 525.003 492.542 524.32C493.608 523.637 494.419 522.656 494.974 521.376C495.528 520.075 495.806 518.507 495.806 516.672C495.806 514.837 495.528 513.269 494.974 511.968C494.419 510.667 493.608 509.675 492.542 508.992C491.496 508.288 490.238 507.936 488.766 507.936C487.315 507.936 486.067 508.288 485.022 508.992C483.976 509.675 483.166 510.667 482.59 511.968C482.035 513.269 481.758 514.837 481.758 516.672C481.758 518.507 482.035 520.075 482.59 521.376C483.166 522.656 483.976 523.637 485.022 524.32C486.067 525.003 487.315 525.344 488.766 525.344ZM500.343 528L508.535 505.28H512.919L521.111 528H517.431L515.351 522.08H506.071L504.023 528H500.343ZM507.159 518.944H514.295L510.711 508.576L507.159 518.944ZM531.616 528.512C529.803 528.512 528.224 528.181 526.88 527.52C525.557 526.859 524.512 525.941 523.744 524.768C522.976 523.595 522.528 522.229 522.4 520.672L525.952 520.448C526.101 521.515 526.411 522.421 526.88 523.168C527.349 523.893 527.979 524.448 528.768 524.832C529.579 525.195 530.549 525.376 531.68 525.376C532.661 525.376 533.493 525.259 534.176 525.024C534.88 524.768 535.413 524.395 535.776 523.904C536.139 523.413 536.32 522.816 536.32 522.112C536.32 521.472 536.16 520.907 535.84 520.416C535.541 519.904 534.955 519.445 534.08 519.04C533.227 518.613 531.968 518.197 530.304 517.792C528.491 517.344 527.04 516.853 525.952 516.32C524.864 515.787 524.075 515.125 523.584 514.336C523.115 513.525 522.88 512.533 522.88 511.36C522.88 510.059 523.189 508.917 523.808 507.936C524.448 506.933 525.355 506.155 526.528 505.6C527.701 505.045 529.109 504.768 530.752 504.768C532.48 504.768 533.952 505.088 535.168 505.728C536.405 506.368 537.376 507.243 538.08 508.352C538.805 509.461 539.253 510.731 539.424 512.16L535.872 512.352C535.765 511.477 535.499 510.709 535.072 510.048C534.645 509.365 534.069 508.843 533.344 508.48C532.619 508.096 531.733 507.904 530.688 507.904C529.365 507.904 528.32 508.213 527.552 508.832C526.805 509.429 526.432 510.229 526.432 511.232C526.432 511.872 526.581 512.416 526.88 512.864C527.2 513.291 527.755 513.664 528.544 513.984C529.355 514.304 530.496 514.645 531.968 515.008C533.931 515.456 535.488 516.011 536.64 516.672C537.813 517.312 538.645 518.069 539.136 518.944C539.627 519.819 539.872 520.811 539.872 521.92C539.872 523.264 539.52 524.437 538.816 525.44C538.133 526.421 537.173 527.179 535.936 527.712C534.699 528.245 533.259 528.512 531.616 528.512ZM547.688 528V508.448H540.712V505.28H558.12V508.448H551.144V528H547.688Z" fill="#EC641D"/>
<rect x="1522" y="598" width="243" height="72" rx="20" stroke="#736FB9" stroke-width="4"/>
<path d="M1558.75 645V622.28H1567.81C1569.43 622.28 1570.83 622.557 1572 623.112C1573.17 623.667 1574.08 624.456 1574.72 625.48C1575.36 626.504 1575.68 627.72 1575.68 629.128C1575.68 630.152 1575.45 631.069 1574.98 631.88C1574.53 632.691 1573.92 633.341 1573.15 633.832C1572.41 634.301 1571.61 634.568 1570.75 634.632L1570.59 634.344C1572.02 634.344 1573.13 634.675 1573.92 635.336C1574.71 635.976 1575.17 636.989 1575.3 638.376L1575.9 645H1572.42L1571.87 638.824C1571.81 637.907 1571.5 637.235 1570.94 636.808C1570.39 636.36 1569.48 636.136 1568.22 636.136H1562.21V645H1558.75ZM1562.21 632.968H1567.87C1569.17 632.968 1570.2 632.648 1570.94 632.008C1571.71 631.347 1572.1 630.419 1572.1 629.224C1572.1 628.008 1571.71 627.08 1570.94 626.44C1570.18 625.779 1569.06 625.448 1567.58 625.448H1562.21V632.968ZM1585.44 645.384C1583.73 645.384 1582.37 644.819 1581.34 643.688C1580.34 642.536 1579.84 640.947 1579.84 638.92V627.976H1583.23V638.056C1583.23 639.592 1583.5 640.723 1584.03 641.448C1584.56 642.173 1585.37 642.536 1586.46 642.536C1587.7 642.536 1588.66 642.141 1589.34 641.352C1590.05 640.541 1590.4 639.411 1590.4 637.96V627.976H1593.79V645H1590.62L1590.56 640.552L1591.04 640.744C1590.74 642.237 1590.11 643.389 1589.15 644.2C1588.19 644.989 1586.95 645.384 1585.44 645.384ZM1598.59 645V627.976H1601.69L1601.82 632.52L1601.4 632.296C1601.6 631.187 1601.96 630.291 1602.49 629.608C1603.02 628.925 1603.68 628.424 1604.44 628.104C1605.21 627.763 1606.04 627.592 1606.94 627.592C1608.22 627.592 1609.28 627.88 1610.11 628.456C1610.96 629.011 1611.6 629.779 1612.03 630.76C1612.48 631.72 1612.7 632.819 1612.7 634.056V645H1609.31V635.08C1609.31 634.077 1609.2 633.235 1608.99 632.552C1608.77 631.869 1608.42 631.347 1607.93 630.984C1607.44 630.621 1606.8 630.44 1606.01 630.44C1604.82 630.44 1603.85 630.835 1603.1 631.624C1602.35 632.413 1601.98 633.565 1601.98 635.08V645H1598.59ZM1624.13 645.384C1622.46 645.384 1621.02 645.021 1619.81 644.296C1618.61 643.571 1617.68 642.536 1617.02 641.192C1616.38 639.848 1616.06 638.28 1616.06 636.488C1616.06 634.696 1616.38 633.139 1617.02 631.816C1617.68 630.472 1618.61 629.437 1619.81 628.712C1621 627.965 1622.41 627.592 1624.03 627.592C1625.57 627.592 1626.92 627.955 1628.09 628.68C1629.27 629.384 1630.17 630.408 1630.81 631.752C1631.48 633.096 1631.81 634.717 1631.81 636.616V637.48H1619.58C1619.67 639.144 1620.11 640.392 1620.89 641.224C1621.71 642.056 1622.79 642.472 1624.16 642.472C1625.16 642.472 1625.99 642.237 1626.65 641.768C1627.32 641.299 1627.77 640.669 1628.03 639.88L1631.55 640.104C1631.1 641.683 1630.22 642.963 1628.89 643.944C1627.59 644.904 1626 645.384 1624.13 645.384ZM1619.58 634.92H1628.22C1628.12 633.405 1627.68 632.285 1626.91 631.56C1626.16 630.835 1625.2 630.472 1624.03 630.472C1622.81 630.472 1621.81 630.856 1621.02 631.624C1620.25 632.371 1619.77 633.469 1619.58 634.92ZM1641.8 645.384C1640.2 645.384 1638.85 645.139 1637.74 644.648C1636.65 644.157 1635.81 643.485 1635.21 642.632C1634.61 641.757 1634.27 640.755 1634.19 639.624L1637.68 639.464C1637.85 640.403 1638.25 641.149 1638.89 641.704C1639.53 642.259 1640.5 642.536 1641.8 642.536C1642.87 642.536 1643.71 642.365 1644.33 642.024C1644.95 641.683 1645.26 641.139 1645.26 640.392C1645.26 639.987 1645.15 639.645 1644.94 639.368C1644.75 639.069 1644.36 638.824 1643.79 638.632C1643.21 638.419 1642.36 638.216 1641.23 638.024C1639.54 637.704 1638.22 637.331 1637.26 636.904C1636.3 636.477 1635.62 635.933 1635.21 635.272C1634.81 634.611 1634.6 633.811 1634.6 632.872C1634.6 631.315 1635.18 630.045 1636.33 629.064C1637.51 628.083 1639.19 627.592 1641.39 627.592C1642.86 627.592 1644.1 627.848 1645.1 628.36C1646.1 628.851 1646.88 629.523 1647.44 630.376C1648.01 631.208 1648.37 632.147 1648.52 633.192L1645.04 633.384C1644.93 632.787 1644.72 632.275 1644.4 631.848C1644.1 631.4 1643.69 631.059 1643.18 630.824C1642.67 630.568 1642.06 630.44 1641.36 630.44C1640.27 630.44 1639.46 630.653 1638.92 631.08C1638.39 631.507 1638.12 632.061 1638.12 632.744C1638.12 633.256 1638.24 633.672 1638.48 633.992C1638.73 634.312 1639.14 634.579 1639.69 634.792C1640.25 634.984 1640.98 635.155 1641.9 635.304C1643.67 635.603 1645.06 635.976 1646.06 636.424C1647.06 636.851 1647.77 637.384 1648.17 638.024C1648.58 638.664 1648.78 639.443 1648.78 640.36C1648.78 641.427 1648.48 642.333 1647.88 643.08C1647.29 643.827 1646.47 644.403 1645.42 644.808C1644.37 645.192 1643.17 645.384 1641.8 645.384ZM1665.27 645V625.448H1658.29V622.28H1675.7V625.448H1668.72V645H1665.27ZM1675.82 645L1681.99 636.296L1676.07 627.976H1679.85L1684.04 634.088L1688.1 627.976H1691.98L1686.12 636.36L1692.23 645H1688.46L1684.07 638.504L1679.66 645H1675.82ZM1709.63 645L1713.6 622.28H1716.6L1712.6 645H1709.63ZM1701.34 639.048L1701.79 636.296H1716.8L1716.38 639.048H1701.34ZM1702.84 645L1706.81 622.28H1709.82L1705.82 645H1702.84ZM1702.62 631.112L1703.04 628.36H1718.04L1717.63 631.112H1702.62ZM1724.05 645V628.808H1719.25V626.024H1721.2C1722.05 626.024 1722.75 625.917 1723.28 625.704C1723.81 625.469 1724.2 625.085 1724.43 624.552C1724.67 623.997 1724.78 623.24 1724.78 622.28H1727.5V645H1724.05Z" fill="#736FB9"/>
<rect x="1521.57" y="506" width="243" height="72" rx="20" stroke="#736FB9" stroke-width="4"/>
<path d="M1554.74 553V530.28H1563.8C1565.42 530.28 1566.81 530.557 1567.99 531.112C1569.16 531.667 1570.07 532.456 1570.71 533.48C1571.35 534.504 1571.67 535.72 1571.67 537.128C1571.67 538.152 1571.43 539.069 1570.96 539.88C1570.52 540.691 1569.91 541.341 1569.14 541.832C1568.39 542.301 1567.59 542.568 1566.74 542.632L1566.58 542.344C1568.01 542.344 1569.12 542.675 1569.91 543.336C1570.7 543.976 1571.16 544.989 1571.28 546.376L1571.89 553H1568.4L1567.86 546.824C1567.8 545.907 1567.49 545.235 1566.93 544.808C1566.38 544.36 1565.47 544.136 1564.21 544.136H1558.2V553H1554.74ZM1558.2 540.968H1563.86C1565.16 540.968 1566.19 540.648 1566.93 540.008C1567.7 539.347 1568.08 538.419 1568.08 537.224C1568.08 536.008 1567.7 535.08 1566.93 534.44C1566.16 533.779 1565.04 533.448 1563.57 533.448H1558.2V540.968ZM1581.43 553.384C1579.72 553.384 1578.35 552.819 1577.33 551.688C1576.33 550.536 1575.83 548.947 1575.83 546.92V535.976H1579.22V546.056C1579.22 547.592 1579.48 548.723 1580.02 549.448C1580.55 550.173 1581.36 550.536 1582.45 550.536C1583.69 550.536 1584.65 550.141 1585.33 549.352C1586.03 548.541 1586.39 547.411 1586.39 545.96V535.976H1589.78V553H1586.61L1586.55 548.552L1587.03 548.744C1586.73 550.237 1586.1 551.389 1585.14 552.2C1584.18 552.989 1582.94 553.384 1581.43 553.384ZM1594.58 553V535.976H1597.68L1597.81 540.52L1597.39 540.296C1597.58 539.187 1597.95 538.291 1598.48 537.608C1599.01 536.925 1599.66 536.424 1600.43 536.104C1601.2 535.763 1602.03 535.592 1602.93 535.592C1604.21 535.592 1605.26 535.88 1606.1 536.456C1606.95 537.011 1607.59 537.779 1608.02 538.76C1608.46 539.72 1608.69 540.819 1608.69 542.056V553H1605.3V543.08C1605.3 542.077 1605.19 541.235 1604.98 540.552C1604.76 539.869 1604.41 539.347 1603.92 538.984C1603.43 538.621 1602.79 538.44 1602 538.44C1600.81 538.44 1599.83 538.835 1599.09 539.624C1598.34 540.413 1597.97 541.565 1597.97 543.08V553H1594.58ZM1620.12 553.384C1618.45 553.384 1617.01 553.021 1615.8 552.296C1614.6 551.571 1613.67 550.536 1613.01 549.192C1612.37 547.848 1612.05 546.28 1612.05 544.488C1612.05 542.696 1612.37 541.139 1613.01 539.816C1613.67 538.472 1614.6 537.437 1615.8 536.712C1616.99 535.965 1618.4 535.592 1620.02 535.592C1621.56 535.592 1622.91 535.955 1624.08 536.68C1625.26 537.384 1626.16 538.408 1626.8 539.752C1627.46 541.096 1627.8 542.717 1627.8 544.616V545.48H1615.57C1615.66 547.144 1616.09 548.392 1616.88 549.224C1617.69 550.056 1618.78 550.472 1620.15 550.472C1621.15 550.472 1621.98 550.237 1622.64 549.768C1623.3 549.299 1623.76 548.669 1624.02 547.88L1627.54 548.104C1627.09 549.683 1626.21 550.963 1624.88 551.944C1623.58 552.904 1621.99 553.384 1620.12 553.384ZM1615.57 542.92H1624.21C1624.1 541.405 1623.67 540.285 1622.9 539.56C1622.15 538.835 1621.19 538.472 1620.02 538.472C1618.8 538.472 1617.8 538.856 1617.01 539.624C1616.24 540.371 1615.76 541.469 1615.57 542.92ZM1637.79 553.384C1636.19 553.384 1634.84 553.139 1633.73 552.648C1632.64 552.157 1631.8 551.485 1631.2 550.632C1630.6 549.757 1630.26 548.755 1630.18 547.624L1633.66 547.464C1633.83 548.403 1634.24 549.149 1634.88 549.704C1635.52 550.259 1636.49 550.536 1637.79 550.536C1638.86 550.536 1639.7 550.365 1640.32 550.024C1640.94 549.683 1641.25 549.139 1641.25 548.392C1641.25 547.987 1641.14 547.645 1640.93 547.368C1640.74 547.069 1640.35 546.824 1639.78 546.632C1639.2 546.419 1638.35 546.216 1637.22 546.024C1635.53 545.704 1634.21 545.331 1633.25 544.904C1632.29 544.477 1631.61 543.933 1631.2 543.272C1630.79 542.611 1630.59 541.811 1630.59 540.872C1630.59 539.315 1631.17 538.045 1632.32 537.064C1633.49 536.083 1635.18 535.592 1637.38 535.592C1638.85 535.592 1640.09 535.848 1641.09 536.36C1642.09 536.851 1642.87 537.523 1643.42 538.376C1644 539.208 1644.36 540.147 1644.51 541.192L1641.02 541.384C1640.92 540.787 1640.7 540.275 1640.38 539.848C1640.09 539.4 1639.68 539.059 1639.17 538.824C1638.66 538.568 1638.05 538.44 1637.34 538.44C1636.26 538.44 1635.45 538.653 1634.91 539.08C1634.38 539.507 1634.11 540.061 1634.11 540.744C1634.11 541.256 1634.23 541.672 1634.46 541.992C1634.72 542.312 1635.13 542.579 1635.68 542.792C1636.23 542.984 1636.97 543.155 1637.89 543.304C1639.66 543.603 1641.05 543.976 1642.05 544.424C1643.05 544.851 1643.75 545.384 1644.16 546.024C1644.57 546.664 1644.77 547.443 1644.77 548.36C1644.77 549.427 1644.47 550.333 1643.87 551.08C1643.27 551.827 1642.45 552.403 1641.41 552.808C1640.36 553.192 1639.16 553.384 1637.79 553.384ZM1661.25 553V533.448H1654.28V530.28H1671.69V533.448H1664.71V553H1661.25ZM1671.8 553L1677.98 544.296L1672.06 535.976H1675.84L1680.03 542.088L1684.09 535.976H1687.96L1682.11 544.36L1688.22 553H1684.44L1680.06 546.504L1675.64 553H1671.8ZM1705.62 553L1709.58 530.28H1712.59L1708.59 553H1705.62ZM1697.33 547.048L1697.78 544.296H1712.78L1712.37 547.048H1697.33ZM1698.83 553L1702.8 530.28H1705.81L1701.81 553H1698.83ZM1698.61 539.112L1699.02 536.36H1714.03L1713.62 539.112H1698.61ZM1715.88 553C1715.88 551.293 1716.13 549.768 1716.64 548.424C1717.16 547.08 1718.03 545.832 1719.27 544.68C1720.51 543.528 1722.21 542.376 1724.39 541.224C1725.43 540.691 1726.27 540.2 1726.88 539.752C1727.52 539.283 1727.98 538.803 1728.26 538.312C1728.54 537.821 1728.68 537.224 1728.68 536.52C1728.68 535.795 1728.52 535.176 1728.2 534.664C1727.9 534.131 1727.45 533.715 1726.85 533.416C1726.25 533.096 1725.5 532.936 1724.58 532.936C1723.13 532.936 1721.98 533.331 1721.12 534.12C1720.29 534.888 1719.77 535.997 1719.56 537.448L1715.97 537.224C1716.23 534.941 1717.09 533.128 1718.56 531.784C1720.06 530.44 1722.06 529.768 1724.58 529.768C1726.2 529.768 1727.58 530.056 1728.71 530.632C1729.86 531.187 1730.73 531.965 1731.33 532.968C1731.95 533.971 1732.26 535.133 1732.26 536.456C1732.26 537.608 1732.07 538.6 1731.68 539.432C1731.3 540.264 1730.66 541.043 1729.76 541.768C1728.87 542.472 1727.65 543.229 1726.12 544.04C1724.15 545.085 1722.67 546.12 1721.67 547.144C1720.67 548.147 1720.13 549.043 1720.07 549.832H1732.26V553H1715.88Z" fill="#736FB9"/>
<rect x="669" y="127.127" width="171" height="134.727" fill="#736FB9"/>
<ellipse cx="754.5" cy="261.855" rx="85.5" ry="32.1273" fill="#736FB9"/>
<path d="M754.5 93C778.287 93 799.911 96.6199 815.661 102.538C823.529 105.494 830.035 109.063 834.609 113.127C839.182 117.189 842 121.916 842 127.127C842 132.339 839.182 137.066 834.609 141.128C830.035 145.192 823.529 148.76 815.661 151.717C799.911 157.635 778.287 161.255 754.5 161.255C730.713 161.255 709.089 157.635 693.339 151.717C685.471 148.76 678.965 145.192 674.391 141.128C669.818 137.066 667 132.339 667 127.127C667 121.916 669.818 117.189 674.391 113.127C678.965 109.063 685.471 105.494 693.339 102.538C709.089 96.6199 730.713 93 754.5 93Z" fill="#736FB9" stroke="#F3EFD7" stroke-width="4"/>
<rect x="1038" y="208" width="34" height="34" rx="10" transform="rotate(90 1038 208)" fill="#EC641D"/>
<rect x="1015" y="112" width="34" height="34" rx="10" transform="rotate(90 1015 112)" fill="#EC641D"/>
<rect x="1058.93" y="113.075" width="31.8505" height="31.8505" rx="8.92523" transform="rotate(90 1058.93 113.075)" fill="#EC641D" stroke="#EC641D" stroke-width="2.14953"/>
<path d="M1023 202C1023 203.105 1022.1 204 1021 204C1019.9 204 1019 203.105 1019 202L1021 202L1023 202ZM996.586 151.086C997.367 150.305 998.633 150.305 999.414 151.086L1012.14 163.814C1012.92 164.595 1012.92 165.861 1012.14 166.642C1011.36 167.423 1010.09 167.423 1009.31 166.642L998 155.328L986.686 166.642C985.905 167.423 984.639 167.423 983.858 166.642C983.077 165.861 983.077 164.595 983.858 163.814L996.586 151.086ZM1021 202L1019 202L1019 197.5L1021 197.5L1023 197.5L1023 202L1021 202ZM998 174.5L996 174.5L996 152.5L998 152.5L1000 152.5L1000 174.5L998 174.5ZM1009.5 186L1009.5 188C1002.04 188 996 181.956 996 174.5L998 174.5L1000 174.5C1000 179.747 1004.25 184 1009.5 184L1009.5 186ZM1021 197.5L1019 197.5C1019 192.253 1014.75 188 1009.5 188L1009.5 186L1009.5 184C1016.96 184 1023 190.044 1023 197.5L1021 197.5Z" fill="#736FB9"/>
<path d="M1023 202C1023 203.105 1022.1 204 1021 204C1019.9 204 1019 203.105 1019 202L1021 202L1023 202ZM1041.59 151.086C1042.37 150.305 1043.63 150.305 1044.41 151.086L1057.14 163.814C1057.92 164.595 1057.92 165.861 1057.14 166.642C1056.36 167.423 1055.09 167.423 1054.31 166.642L1043 155.328L1031.69 166.642C1030.91 167.423 1029.64 167.423 1028.86 166.642C1028.08 165.861 1028.08 164.595 1028.86 163.814L1041.59 151.086ZM1021 202L1019 202L1019 197L1021 197L1023 197L1023 202L1021 202ZM1043 175L1041 175L1041 152.5L1043 152.5L1045 152.5L1045 175L1043 175ZM1032 186L1032 184C1036.97 184 1041 179.971 1041 175L1043 175L1045 175C1045 182.18 1039.18 188 1032 188L1032 186ZM1021 197L1019 197C1019 189.82 1024.82 184 1032 184L1032 186L1032 188C1027.03 188 1023 192.029 1023 197L1021 197Z" fill="#736FB9"/>
<rect x="1189" y="208" width="34" height="34" rx="10" transform="rotate(90 1189 208)" fill="#EC641D"/>
<rect x="1166" y="112" width="34" height="34" rx="10" transform="rotate(90 1166 112)" fill="#EC641D"/>
<rect x="1209.93" y="113.075" width="31.8505" height="31.8505" rx="8.92523" transform="rotate(90 1209.93 113.075)" fill="#EC641D" stroke="#EC641D" stroke-width="2.14953"/>
<path d="M1174 202C1174 203.105 1173.1 204 1172 204C1170.9 204 1170 203.105 1170 202L1172 202L1174 202ZM1147.59 151.086C1148.37 150.305 1149.63 150.305 1150.41 151.086L1163.14 163.814C1163.92 164.595 1163.92 165.861 1163.14 166.642C1162.36 167.423 1161.09 167.423 1160.31 166.642L1149 155.328L1137.69 166.642C1136.91 167.423 1135.64 167.423 1134.86 166.642C1134.08 165.861 1134.08 164.595 1134.86 163.814L1147.59 151.086ZM1172 202L1170 202L1170 197.5L1172 197.5L1174 197.5L1174 202L1172 202ZM1149 174.5L1147 174.5L1147 152.5L1149 152.5L1151 152.5L1151 174.5L1149 174.5ZM1160.5 186L1160.5 188C1153.04 188 1147 181.956 1147 174.5L1149 174.5L1151 174.5C1151 179.747 1155.25 184 1160.5 184L1160.5 186ZM1172 197.5L1170 197.5C1170 192.253 1165.75 188 1160.5 188L1160.5 186L1160.5 184C1167.96 184 1174 190.044 1174 197.5L1172 197.5Z" fill="#736FB9"/>
<path d="M1174 202C1174 203.105 1173.1 204 1172 204C1170.9 204 1170 203.105 1170 202L1172 202L1174 202ZM1192.59 151.086C1193.37 150.305 1194.63 150.305 1195.41 151.086L1208.14 163.814C1208.92 164.595 1208.92 165.861 1208.14 166.642C1207.36 167.423 1206.09 167.423 1205.31 166.642L1194 155.328L1182.69 166.642C1181.91 167.423 1180.64 167.423 1179.86 166.642C1179.08 165.861 1179.08 164.595 1179.86 163.814L1192.59 151.086ZM1172 202L1170 202L1170 197L1172 197L1174 197L1174 202L1172 202ZM1194 175L1192 175L1192 152.5L1194 152.5L1196 152.5L1196 175L1194 175ZM1183 186L1183 184C1187.97 184 1192 179.971 1192 175L1194 175L1196 175C1196 182.18 1190.18 188 1183 188L1183 186ZM1172 197L1170 197C1170 189.82 1175.82 184 1183 184L1183 186L1183 188C1178.03 188 1174 192.029 1174 197L1172 197Z" fill="#736FB9"/>
<rect x="1336" y="208" width="34" height="34" rx="10" transform="rotate(90 1336 208)" fill="#EC641D"/>
<rect x="1313" y="112" width="34" height="34" rx="10" transform="rotate(90 1313 112)" fill="#EC641D"/>
<rect x="1356.93" y="113.075" width="31.8505" height="31.8505" rx="8.92523" transform="rotate(90 1356.93 113.075)" fill="#EC641D" stroke="#EC641D" stroke-width="2.14953"/>
<path d="M1321 202C1321 203.105 1320.1 204 1319 204C1317.9 204 1317 203.105 1317 202L1319 202L1321 202ZM1294.59 151.086C1295.37 150.305 1296.63 150.305 1297.41 151.086L1310.14 163.814C1310.92 164.595 1310.92 165.861 1310.14 166.642C1309.36 167.423 1308.09 167.423 1307.31 166.642L1296 155.328L1284.69 166.642C1283.91 167.423 1282.64 167.423 1281.86 166.642C1281.08 165.861 1281.08 164.595 1281.86 163.814L1294.59 151.086ZM1319 202L1317 202L1317 197.5L1319 197.5L1321 197.5L1321 202L1319 202ZM1296 174.5L1294 174.5L1294 152.5L1296 152.5L1298 152.5L1298 174.5L1296 174.5ZM1307.5 186L1307.5 188C1300.04 188 1294 181.956 1294 174.5L1296 174.5L1298 174.5C1298 179.747 1302.25 184 1307.5 184L1307.5 186ZM1319 197.5L1317 197.5C1317 192.253 1312.75 188 1307.5 188L1307.5 186L1307.5 184C1314.96 184 1321 190.044 1321 197.5L1319 197.5Z" fill="#736FB9"/>
<path d="M1321 202C1321 203.105 1320.1 204 1319 204C1317.9 204 1317 203.105 1317 202L1319 202L1321 202ZM1339.59 151.086C1340.37 150.305 1341.63 150.305 1342.41 151.086L1355.14 163.814C1355.92 164.595 1355.92 165.861 1355.14 166.642C1354.36 167.423 1353.09 167.423 1352.31 166.642L1341 155.328L1329.69 166.642C1328.91 167.423 1327.64 167.423 1326.86 166.642C1326.08 165.861 1326.08 164.595 1326.86 163.814L1339.59 151.086ZM1319 202L1317 202L1317 197L1319 197L1321 197L1321 202L1319 202ZM1341 175L1339 175L1339 152.5L1341 152.5L1343 152.5L1343 175L1341 175ZM1330 186L1330 184C1334.97 184 1339 179.971 1339 175L1341 175L1343 175C1343 182.18 1337.18 188 1330 188L1330 186ZM1319 197L1317 197C1317 189.82 1322.82 184 1330 184L1330 186L1330 188C1325.03 188 1321 192.029 1321 197L1319 197Z" fill="#736FB9"/>
<path d="M683.765 221L691.957 198.28H696.341L704.533 221H700.853L698.773 215.08H689.493L687.445 221H683.765ZM690.581 211.944H697.717L694.133 201.576L690.581 211.944ZM713.97 221.384C712.349 221.384 710.931 221.021 709.715 220.296C708.499 219.571 707.56 218.536 706.899 217.192C706.237 215.848 705.907 214.28 705.907 212.488C705.907 210.696 706.237 209.139 706.899 207.816C707.56 206.472 708.499 205.437 709.715 204.712C710.931 203.965 712.349 203.592 713.97 203.592C715.357 203.592 716.584 203.837 717.651 204.328C718.739 204.797 719.613 205.491 720.275 206.408C720.957 207.325 721.395 208.445 721.587 209.768L718.035 209.96C717.864 208.851 717.416 208.008 716.691 207.432C715.965 206.835 715.059 206.536 713.97 206.536C712.541 206.536 711.421 207.069 710.611 208.136C709.821 209.181 709.427 210.632 709.427 212.488C709.427 214.344 709.821 215.805 710.611 216.872C711.421 217.917 712.541 218.44 713.97 218.44C715.059 218.44 715.965 218.141 716.691 217.544C717.416 216.925 717.864 215.997 718.035 214.76L721.587 214.952C721.395 216.253 720.957 217.384 720.275 218.344C719.613 219.304 718.739 220.051 717.651 220.584C716.584 221.117 715.357 221.384 713.97 221.384ZM731.689 221.384C730.068 221.384 728.649 221.021 727.433 220.296C726.217 219.571 725.279 218.536 724.617 217.192C723.956 215.848 723.625 214.28 723.625 212.488C723.625 210.696 723.956 209.139 724.617 207.816C725.279 206.472 726.217 205.437 727.433 204.712C728.649 203.965 730.068 203.592 731.689 203.592C733.076 203.592 734.303 203.837 735.369 204.328C736.457 204.797 737.332 205.491 737.993 206.408C738.676 207.325 739.113 208.445 739.305 209.768L735.753 209.96C735.583 208.851 735.135 208.008 734.409 207.432C733.684 206.835 732.777 206.536 731.689 206.536C730.26 206.536 729.14 207.069 728.329 208.136C727.54 209.181 727.145 210.632 727.145 212.488C727.145 214.344 727.54 215.805 728.329 216.872C729.14 217.917 730.26 218.44 731.689 218.44C732.777 218.44 733.684 218.141 734.409 217.544C735.135 216.925 735.583 215.997 735.753 214.76L739.305 214.952C739.113 216.253 738.676 217.384 737.993 218.344C737.332 219.304 736.457 220.051 735.369 220.584C734.303 221.117 733.076 221.384 731.689 221.384ZM749.408 221.384C747.787 221.384 746.368 221.021 745.152 220.296C743.936 219.571 742.997 218.536 742.336 217.192C741.675 215.848 741.344 214.28 741.344 212.488C741.344 210.675 741.675 209.107 742.336 207.784C742.997 206.461 743.936 205.437 745.152 204.712C746.368 203.965 747.787 203.592 749.408 203.592C751.029 203.592 752.448 203.965 753.664 204.712C754.88 205.437 755.819 206.461 756.48 207.784C757.141 209.107 757.472 210.675 757.472 212.488C757.472 214.28 757.141 215.848 756.48 217.192C755.819 218.536 754.88 219.571 753.664 220.296C752.448 221.021 751.029 221.384 749.408 221.384ZM749.408 218.44C750.859 218.44 751.979 217.917 752.768 216.872C753.557 215.805 753.952 214.344 753.952 212.488C753.952 210.632 753.557 209.181 752.768 208.136C751.979 207.069 750.859 206.536 749.408 206.536C747.979 206.536 746.859 207.069 746.048 208.136C745.259 209.181 744.864 210.632 744.864 212.488C744.864 214.344 745.259 215.805 746.048 216.872C746.859 217.917 747.979 218.44 749.408 218.44ZM766.5 221.384C764.793 221.384 763.428 220.819 762.404 219.688C761.401 218.536 760.9 216.947 760.9 214.92V203.976H764.292V214.056C764.292 215.592 764.559 216.723 765.092 217.448C765.625 218.173 766.436 218.536 767.524 218.536C768.761 218.536 769.721 218.141 770.404 217.352C771.108 216.541 771.46 215.411 771.46 213.96V203.976H774.852V221H771.684L771.62 216.552L772.1 216.744C771.801 218.237 771.172 219.389 770.212 220.2C769.252 220.989 768.015 221.384 766.5 221.384ZM779.65 221V203.976H782.754L782.882 208.52L782.466 208.296C782.658 207.187 783.021 206.291 783.554 205.608C784.087 204.925 784.738 204.424 785.506 204.104C786.274 203.763 787.106 203.592 788.002 203.592C789.282 203.592 790.338 203.88 791.17 204.456C792.023 205.011 792.663 205.779 793.09 206.76C793.538 207.72 793.762 208.819 793.762 210.056V221H790.37V211.08C790.37 210.077 790.263 209.235 790.05 208.552C789.837 207.869 789.485 207.347 788.994 206.984C788.503 206.621 787.863 206.44 787.074 206.44C785.879 206.44 784.909 206.835 784.162 207.624C783.415 208.413 783.042 209.565 783.042 211.08V221H779.65ZM803.866 221C802.244 221 801.05 220.627 800.282 219.88C799.514 219.133 799.13 217.971 799.13 216.392V199.976H802.522V216.136C802.522 216.925 802.692 217.469 803.034 217.768C803.375 218.067 803.898 218.216 804.602 218.216H807.034V221H803.866ZM796.538 206.76V203.976H807.034V206.76H796.538ZM816.554 221.384C814.954 221.384 813.599 221.139 812.49 220.648C811.402 220.157 810.559 219.485 809.962 218.632C809.364 217.757 809.023 216.755 808.938 215.624L812.426 215.464C812.596 216.403 813.002 217.149 813.642 217.704C814.282 218.259 815.252 218.536 816.554 218.536C817.62 218.536 818.463 218.365 819.082 218.024C819.7 217.683 820.01 217.139 820.01 216.392C820.01 215.987 819.903 215.645 819.69 215.368C819.498 215.069 819.114 214.824 818.538 214.632C817.962 214.419 817.108 214.216 815.978 214.024C814.292 213.704 812.97 213.331 812.01 212.904C811.05 212.477 810.367 211.933 809.962 211.272C809.556 210.611 809.354 209.811 809.354 208.872C809.354 207.315 809.93 206.045 811.082 205.064C812.255 204.083 813.94 203.592 816.138 203.592C817.61 203.592 818.847 203.848 819.85 204.36C820.852 204.851 821.631 205.523 822.186 206.376C822.762 207.208 823.124 208.147 823.274 209.192L819.786 209.384C819.679 208.787 819.466 208.275 819.146 207.848C818.847 207.4 818.442 207.059 817.93 206.824C817.418 206.568 816.81 206.44 816.106 206.44C815.018 206.44 814.207 206.653 813.674 207.08C813.14 207.507 812.874 208.061 812.874 208.744C812.874 209.256 812.991 209.672 813.226 209.992C813.482 210.312 813.887 210.579 814.442 210.792C814.996 210.984 815.732 211.155 816.65 211.304C818.42 211.603 819.807 211.976 820.81 212.424C821.812 212.851 822.516 213.384 822.922 214.024C823.327 214.664 823.53 215.443 823.53 216.36C823.53 217.427 823.231 218.333 822.634 219.08C822.036 219.827 821.215 220.403 820.17 220.808C819.124 221.192 817.919 221.384 816.554 221.384Z" fill="#F3EFD7"/>
<path d="M983.964 482.512C981.916 482.512 980.113 482.043 978.556 481.104C976.998 480.144 975.782 478.779 974.908 477.008C974.033 475.237 973.596 473.125 973.596 470.672C973.596 468.24 974.022 466.139 974.876 464.368C975.75 462.576 976.966 461.2 978.524 460.24C980.081 459.259 981.905 458.768 983.996 458.768C986.812 458.768 988.998 459.472 990.556 460.88C992.113 462.288 993.126 464.24 993.596 466.736L989.98 466.928C989.681 465.371 989.041 464.155 988.06 463.28C987.078 462.384 985.724 461.936 983.996 461.936C982.609 461.936 981.404 462.288 980.38 462.992C979.377 463.696 978.588 464.699 978.012 466C977.457 467.301 977.18 468.859 977.18 470.672C977.18 472.485 977.457 474.043 978.012 475.344C978.588 476.645 979.388 477.637 980.411 478.32C981.436 479.003 982.62 479.344 983.964 479.344C985.798 479.344 987.217 478.864 988.22 477.904C989.244 476.923 989.884 475.579 990.14 473.872L993.756 474.064C993.478 475.792 992.924 477.285 992.092 478.544C991.26 479.803 990.161 480.784 988.796 481.488C987.43 482.171 985.82 482.512 983.964 482.512ZM997.338 482V459.28H1000.73V468.816L1000.31 468.752C1000.51 467.792 1000.86 467.013 1001.37 466.416C1001.88 465.797 1002.51 465.339 1003.26 465.04C1004 464.741 1004.83 464.592 1005.72 464.592C1006.96 464.592 1008 464.869 1008.86 465.424C1009.71 465.957 1010.35 466.715 1010.78 467.696C1011.23 468.677 1011.45 469.797 1011.45 471.056V482H1008.06V471.952C1008.06 470.416 1007.79 469.285 1007.26 468.56C1006.75 467.813 1005.93 467.44 1004.83 467.44C1003.59 467.44 1002.6 467.835 1001.85 468.624C1001.1 469.392 1000.73 470.523 1000.73 472.016V482H997.338ZM1022.88 482.384C1021.21 482.384 1019.77 482.021 1018.56 481.296C1017.36 480.571 1016.43 479.536 1015.77 478.192C1015.13 476.848 1014.81 475.28 1014.81 473.488C1014.81 471.696 1015.13 470.139 1015.77 468.816C1016.43 467.472 1017.36 466.437 1018.56 465.712C1019.75 464.965 1021.16 464.592 1022.78 464.592C1024.32 464.592 1025.67 464.955 1026.84 465.68C1028.02 466.384 1028.92 467.408 1029.56 468.752C1030.23 470.096 1030.56 471.717 1030.56 473.616V474.48H1018.33C1018.42 476.144 1018.86 477.392 1019.64 478.224C1020.46 479.056 1021.54 479.472 1022.91 479.472C1023.91 479.472 1024.74 479.237 1025.4 478.768C1026.07 478.299 1026.52 477.669 1026.78 476.88L1030.3 477.104C1029.85 478.683 1028.97 479.963 1027.64 480.944C1026.34 481.904 1024.75 482.384 1022.88 482.384ZM1018.33 471.92H1026.97C1026.87 470.405 1026.43 469.285 1025.66 468.56C1024.91 467.835 1023.95 467.472 1022.78 467.472C1021.56 467.472 1020.56 467.856 1019.77 468.624C1019 469.371 1018.52 470.469 1018.33 471.92ZM1041 482.384C1039.38 482.384 1037.96 482.021 1036.75 481.296C1035.53 480.571 1034.59 479.536 1033.93 478.192C1033.27 476.848 1032.94 475.28 1032.94 473.488C1032.94 471.696 1033.27 470.139 1033.93 468.816C1034.59 467.472 1035.53 466.437 1036.75 465.712C1037.96 464.965 1039.38 464.592 1041 464.592C1042.39 464.592 1043.62 464.837 1044.68 465.328C1045.77 465.797 1046.64 466.491 1047.31 467.408C1047.99 468.325 1048.43 469.445 1048.62 470.768L1045.07 470.96C1044.9 469.851 1044.45 469.008 1043.72 468.432C1043 467.835 1042.09 467.536 1041 467.536C1039.57 467.536 1038.45 468.069 1037.64 469.136C1036.85 470.181 1036.46 471.632 1036.46 473.488C1036.46 475.344 1036.85 476.805 1037.64 477.872C1038.45 478.917 1039.57 479.44 1041 479.44C1042.09 479.44 1043 479.141 1043.72 478.544C1044.45 477.925 1044.9 476.997 1045.07 475.76L1048.62 475.952C1048.43 477.253 1047.99 478.384 1047.31 479.344C1046.64 480.304 1045.77 481.051 1044.68 481.584C1043.62 482.117 1042.39 482.384 1041 482.384ZM1051.71 482V459.28H1055.1V473.392L1062.75 464.976H1067.04L1060.38 472.144L1067.3 482H1063.39L1058.11 474.256L1055.1 477.456V482H1051.71Z" fill="#EC641D"/>
<path d="M1023 449C1023 450.105 1022.1 451 1021 451C1019.9 451 1019 450.105 1019 449L1021 449L1023 449ZM1021 449L1019 449L1019 248L1021 248L1023 248L1023 449L1021 449Z" fill="#736FB9"/>
<path d="M1109.22 482V459.28H1118.28C1119.9 459.28 1121.3 459.557 1122.47 460.112C1123.64 460.667 1124.55 461.456 1125.19 462.48C1125.83 463.504 1126.15 464.72 1126.15 466.128C1126.15 467.152 1125.91 468.069 1125.44 468.88C1125 469.691 1124.39 470.341 1123.62 470.832C1122.87 471.301 1122.07 471.568 1121.22 471.632L1121.06 471.344C1122.49 471.344 1123.6 471.675 1124.39 472.336C1125.18 472.976 1125.64 473.989 1125.76 475.376L1126.37 482H1122.88L1122.34 475.824C1122.28 474.907 1121.97 474.235 1121.41 473.808C1120.86 473.36 1119.95 473.136 1118.69 473.136H1112.68V482H1109.22ZM1112.68 469.968H1118.34C1119.64 469.968 1120.67 469.648 1121.41 469.008C1122.18 468.347 1122.56 467.419 1122.56 466.224C1122.56 465.008 1122.18 464.08 1121.41 463.44C1120.64 462.779 1119.52 462.448 1118.05 462.448H1112.68V469.968ZM1137.19 482.384C1135.57 482.384 1134.15 482.021 1132.93 481.296C1131.72 480.571 1130.78 479.536 1130.12 478.192C1129.46 476.848 1129.13 475.28 1129.13 473.488C1129.13 471.675 1129.46 470.107 1130.12 468.784C1130.78 467.461 1131.72 466.437 1132.93 465.712C1134.15 464.965 1135.57 464.592 1137.19 464.592C1138.81 464.592 1140.23 464.965 1141.45 465.712C1142.66 466.437 1143.6 467.461 1144.26 468.784C1144.92 470.107 1145.25 471.675 1145.25 473.488C1145.25 475.28 1144.92 476.848 1144.26 478.192C1143.6 479.536 1142.66 480.571 1141.45 481.296C1140.23 482.021 1138.81 482.384 1137.19 482.384ZM1137.19 479.44C1138.64 479.44 1139.76 478.917 1140.55 477.872C1141.34 476.805 1141.73 475.344 1141.73 473.488C1141.73 471.632 1141.34 470.181 1140.55 469.136C1139.76 468.069 1138.64 467.536 1137.19 467.536C1135.76 467.536 1134.64 468.069 1133.83 469.136C1133.04 470.181 1132.65 471.632 1132.65 473.488C1132.65 475.344 1133.04 476.805 1133.83 477.872C1134.64 478.917 1135.76 479.44 1137.19 479.44ZM1152.55 482C1151.44 482 1150.54 481.712 1149.86 481.136C1149.18 480.56 1148.84 479.643 1148.84 478.384V459.28H1152.23V478.064C1152.23 478.448 1152.33 478.736 1152.52 478.928C1152.73 479.12 1153.03 479.216 1153.41 479.216H1154.76V482H1152.55ZM1161.27 482C1160.16 482 1159.26 481.712 1158.58 481.136C1157.9 480.56 1157.56 479.643 1157.56 478.384V459.28H1160.95V478.064C1160.95 478.448 1161.04 478.736 1161.24 478.928C1161.45 479.12 1161.75 479.216 1162.13 479.216H1163.48V482H1161.27ZM1174.82 482.384C1173.64 482.384 1172.6 482.128 1171.68 481.616C1170.79 481.083 1170.09 480.357 1169.6 479.44L1169.51 482H1166.34V459.28H1169.73V467.376C1170.18 466.629 1170.84 465.979 1171.71 465.424C1172.61 464.869 1173.64 464.592 1174.82 464.592C1176.29 464.592 1177.57 464.955 1178.66 465.68C1179.75 466.405 1180.58 467.44 1181.15 468.784C1181.75 470.107 1182.05 471.675 1182.05 473.488C1182.05 475.301 1181.75 476.88 1181.15 478.224C1180.58 479.547 1179.75 480.571 1178.66 481.296C1177.57 482.021 1176.29 482.384 1174.82 482.384ZM1174.27 479.44C1175.57 479.44 1176.61 478.917 1177.38 477.872C1178.15 476.805 1178.53 475.344 1178.53 473.488C1178.53 471.632 1178.15 470.181 1177.38 469.136C1176.61 468.069 1175.59 467.536 1174.31 467.536C1173.35 467.536 1172.52 467.771 1171.84 468.24C1171.16 468.709 1170.64 469.392 1170.27 470.288C1169.91 471.163 1169.73 472.229 1169.73 473.488C1169.73 474.704 1169.91 475.76 1170.27 476.656C1170.64 477.552 1171.16 478.245 1171.84 478.736C1172.52 479.205 1173.33 479.44 1174.27 479.44ZM1190.61 482.384C1188.83 482.384 1187.42 481.979 1186.35 481.168C1185.3 480.357 1184.78 479.216 1184.78 477.744C1184.78 476.272 1185.22 475.131 1186.09 474.32C1186.99 473.488 1188.37 472.891 1190.22 472.528L1196.08 471.408C1196.08 470.085 1195.77 469.104 1195.15 468.464C1194.53 467.803 1193.61 467.472 1192.4 467.472C1191.31 467.472 1190.46 467.717 1189.84 468.208C1189.22 468.677 1188.79 469.381 1188.56 470.32L1185.07 470.096C1185.39 468.389 1186.18 467.045 1187.44 466.064C1188.72 465.083 1190.37 464.592 1192.4 464.592C1194.7 464.592 1196.45 465.211 1197.65 466.448C1198.86 467.664 1199.47 469.381 1199.47 471.6V478.224C1199.47 478.629 1199.53 478.917 1199.66 479.088C1199.81 479.237 1200.05 479.312 1200.37 479.312H1200.97V482C1200.87 482.021 1200.7 482.043 1200.46 482.064C1200.23 482.085 1199.98 482.096 1199.73 482.096C1199 482.096 1198.37 481.979 1197.84 481.744C1197.33 481.509 1196.94 481.125 1196.69 480.592C1196.43 480.037 1196.3 479.301 1196.3 478.384L1196.65 478.544C1196.48 479.291 1196.11 479.952 1195.53 480.528C1194.98 481.104 1194.26 481.563 1193.39 481.904C1192.54 482.224 1191.61 482.384 1190.61 482.384ZM1191.15 479.696C1192.17 479.696 1193.05 479.504 1193.77 479.12C1194.5 478.715 1195.06 478.16 1195.47 477.456C1195.87 476.752 1196.08 475.952 1196.08 475.056V473.968L1191.09 474.928C1190.06 475.12 1189.34 475.429 1188.91 475.856C1188.5 476.261 1188.3 476.784 1188.3 477.424C1188.3 478.149 1188.55 478.715 1189.04 479.12C1189.55 479.504 1190.25 479.696 1191.15 479.696ZM1210.72 482.384C1209.1 482.384 1207.68 482.021 1206.46 481.296C1205.25 480.571 1204.31 479.536 1203.65 478.192C1202.99 476.848 1202.66 475.28 1202.66 473.488C1202.66 471.696 1202.99 470.139 1203.65 468.816C1204.31 467.472 1205.25 466.437 1206.46 465.712C1207.68 464.965 1209.1 464.592 1210.72 464.592C1212.11 464.592 1213.33 464.837 1214.4 465.328C1215.49 465.797 1216.36 466.491 1217.02 467.408C1217.71 468.325 1218.14 469.445 1218.34 470.768L1214.78 470.96C1214.61 469.851 1214.17 469.008 1213.44 468.432C1212.72 467.835 1211.81 467.536 1210.72 467.536C1209.29 467.536 1208.17 468.069 1207.36 469.136C1206.57 470.181 1206.18 471.632 1206.18 473.488C1206.18 475.344 1206.57 476.805 1207.36 477.872C1208.17 478.917 1209.29 479.44 1210.72 479.44C1211.81 479.44 1212.72 479.141 1213.44 478.544C1214.17 477.925 1214.61 476.997 1214.78 475.76L1218.34 475.952C1218.14 477.253 1217.71 478.384 1217.02 479.344C1216.36 480.304 1215.49 481.051 1214.4 481.584C1213.33 482.117 1212.11 482.384 1210.72 482.384ZM1221.43 482V459.28H1224.82V473.392L1232.47 464.976H1236.76L1230.1 472.144L1237.02 482H1233.11L1227.83 474.256L1224.82 477.456V482H1221.43Z" fill="#EC641D"/>
<path d="M1174 449C1174 450.105 1173.1 451 1172 451C1170.9 451 1170 450.105 1170 449L1172 449L1174 449ZM1172 449L1170 449L1170 248L1172 248L1174 248L1174 449L1172 449Z" fill="#736FB9"/>
<path d="M1261.21 482V459.28H1270.26C1271.88 459.28 1273.28 459.557 1274.45 460.112C1275.63 460.667 1276.53 461.456 1277.17 462.48C1277.81 463.504 1278.13 464.72 1278.13 466.128C1278.13 467.152 1277.9 468.069 1277.43 468.88C1276.98 469.691 1276.37 470.341 1275.61 470.832C1274.86 471.301 1274.06 471.568 1273.21 471.632L1273.05 471.344C1274.47 471.344 1275.58 471.675 1276.37 472.336C1277.16 472.976 1277.62 473.989 1277.75 475.376L1278.36 482H1274.87L1274.33 475.824C1274.26 474.907 1273.95 474.235 1273.4 473.808C1272.84 473.36 1271.94 473.136 1270.68 473.136H1264.66V482H1261.21ZM1264.66 469.968H1270.33C1271.63 469.968 1272.65 469.648 1273.4 469.008C1274.17 468.347 1274.55 467.419 1274.55 466.224C1274.55 465.008 1274.17 464.08 1273.4 463.44C1272.63 462.779 1271.51 462.448 1270.04 462.448H1264.66V469.968ZM1289.17 482.384C1287.51 482.384 1286.07 482.021 1284.85 481.296C1283.66 480.571 1282.73 479.536 1282.07 478.192C1281.43 476.848 1281.11 475.28 1281.11 473.488C1281.11 471.696 1281.43 470.139 1282.07 468.816C1282.73 467.472 1283.66 466.437 1284.85 465.712C1286.05 464.965 1287.46 464.592 1289.08 464.592C1290.61 464.592 1291.97 464.955 1293.14 465.68C1294.31 466.384 1295.22 467.408 1295.86 468.752C1296.52 470.096 1296.85 471.717 1296.85 473.616V474.48H1284.63C1284.71 476.144 1285.15 477.392 1285.94 478.224C1286.75 479.056 1287.84 479.472 1289.21 479.472C1290.21 479.472 1291.04 479.237 1291.7 478.768C1292.36 478.299 1292.82 477.669 1293.08 476.88L1296.6 477.104C1296.15 478.683 1295.26 479.963 1293.94 480.944C1292.64 481.904 1291.05 482.384 1289.17 482.384ZM1284.63 471.92H1293.27C1293.16 470.405 1292.73 469.285 1291.96 468.56C1291.21 467.835 1290.25 467.472 1289.08 467.472C1287.86 467.472 1286.86 467.856 1286.07 468.624C1285.3 469.371 1284.82 470.469 1284.63 471.92ZM1305.4 482.384C1303.63 482.384 1302.21 481.979 1301.15 481.168C1300.1 480.357 1299.58 479.216 1299.58 477.744C1299.58 476.272 1300.02 475.131 1300.89 474.32C1301.79 473.488 1303.16 472.891 1305.02 472.528L1310.87 471.408C1310.87 470.085 1310.57 469.104 1309.95 468.464C1309.33 467.803 1308.41 467.472 1307.19 467.472C1306.11 467.472 1305.25 467.717 1304.63 468.208C1304.02 468.677 1303.59 469.381 1303.35 470.32L1299.87 470.096C1300.19 468.389 1300.98 467.045 1302.23 466.064C1303.51 465.083 1305.17 464.592 1307.19 464.592C1309.5 464.592 1311.25 465.211 1312.44 466.448C1313.66 467.664 1314.27 469.381 1314.27 471.6V478.224C1314.27 478.629 1314.33 478.917 1314.46 479.088C1314.61 479.237 1314.84 479.312 1315.16 479.312H1315.77V482C1315.66 482.021 1315.49 482.043 1315.26 482.064C1315.02 482.085 1314.78 482.096 1314.52 482.096C1313.8 482.096 1313.17 481.979 1312.63 481.744C1312.12 481.509 1311.74 481.125 1311.48 480.592C1311.23 480.037 1311.1 479.301 1311.1 478.384L1311.45 478.544C1311.28 479.291 1310.91 479.952 1310.33 480.528C1309.78 481.104 1309.06 481.563 1308.19 481.904C1307.33 482.224 1306.41 482.384 1305.4 482.384ZM1305.95 479.696C1306.97 479.696 1307.85 479.504 1308.57 479.12C1309.3 478.715 1309.86 478.16 1310.27 477.456C1310.67 476.752 1310.87 475.952 1310.87 475.056V473.968L1305.88 474.928C1304.86 475.12 1304.13 475.429 1303.71 475.856C1303.3 476.261 1303.1 476.784 1303.1 477.424C1303.1 478.149 1303.34 478.715 1303.83 479.12C1304.35 479.504 1305.05 479.696 1305.95 479.696ZM1318.63 486.8V464.976H1321.83L1321.93 468.624L1321.55 468.432C1321.97 467.173 1322.68 466.224 1323.66 465.584C1324.64 464.923 1325.77 464.592 1327.05 464.592C1328.71 464.592 1330.08 465.008 1331.15 465.84C1332.23 466.651 1333.03 467.728 1333.55 469.072C1334.08 470.416 1334.35 471.888 1334.35 473.488C1334.35 475.088 1334.08 476.56 1333.55 477.904C1333.03 479.248 1332.23 480.336 1331.15 481.168C1330.08 481.979 1328.71 482.384 1327.05 482.384C1326.2 482.384 1325.4 482.235 1324.65 481.936C1323.9 481.637 1323.26 481.221 1322.73 480.688C1322.22 480.133 1321.86 479.483 1321.64 478.736L1322.03 478.352V486.8H1318.63ZM1326.44 479.44C1327.81 479.44 1328.87 478.917 1329.64 477.872C1330.43 476.827 1330.83 475.365 1330.83 473.488C1330.83 471.611 1330.43 470.149 1329.64 469.104C1328.87 468.059 1327.81 467.536 1326.44 467.536C1325.55 467.536 1324.77 467.76 1324.11 468.208C1323.45 468.635 1322.93 469.296 1322.57 470.192C1322.21 471.088 1322.03 472.187 1322.03 473.488C1322.03 474.789 1322.2 475.888 1322.54 476.784C1322.9 477.68 1323.41 478.352 1324.07 478.8C1324.76 479.227 1325.55 479.44 1326.44 479.44ZM1337.79 486.8V464.976H1340.99L1341.09 468.624L1340.7 468.432C1341.13 467.173 1341.83 466.224 1342.81 465.584C1343.8 464.923 1344.93 464.592 1346.21 464.592C1347.87 464.592 1349.24 465.008 1350.3 465.84C1351.39 466.651 1352.19 467.728 1352.7 469.072C1353.24 470.416 1353.5 471.888 1353.5 473.488C1353.5 475.088 1353.24 476.56 1352.7 477.904C1352.19 479.248 1351.39 480.336 1350.3 481.168C1349.24 481.979 1347.87 482.384 1346.21 482.384C1345.35 482.384 1344.55 482.235 1343.81 481.936C1343.06 481.637 1342.42 481.221 1341.89 480.688C1341.37 480.133 1341.01 479.483 1340.8 478.736L1341.18 478.352V486.8H1337.79ZM1345.6 479.44C1346.96 479.44 1348.03 478.917 1348.8 477.872C1349.59 476.827 1349.98 475.365 1349.98 473.488C1349.98 471.611 1349.59 470.149 1348.8 469.104C1348.03 468.059 1346.96 467.536 1345.6 467.536C1344.7 467.536 1343.92 467.76 1343.26 468.208C1342.6 468.635 1342.09 469.296 1341.73 470.192C1341.36 471.088 1341.18 472.187 1341.18 473.488C1341.18 474.789 1341.35 475.888 1341.69 476.784C1342.06 477.68 1342.57 478.352 1343.23 478.8C1343.91 479.227 1344.7 479.44 1345.6 479.44ZM1360.82 482C1359.71 482 1358.81 481.712 1358.13 481.136C1357.44 480.56 1357.1 479.643 1357.1 478.384V459.28H1360.5V478.064C1360.5 478.448 1360.59 478.736 1360.78 478.928C1361 479.12 1361.3 479.216 1361.68 479.216H1363.02V482H1360.82ZM1366.22 486.8V484.016H1368.3C1368.88 484.016 1369.3 483.931 1369.58 483.76C1369.86 483.589 1370.07 483.301 1370.22 482.896L1370.76 481.488H1369.71L1363.56 464.976H1367.15L1371.82 478.352L1376.27 464.976H1379.88L1373.1 483.984C1372.76 484.965 1372.25 485.68 1371.56 486.128C1370.9 486.576 1369.97 486.8 1368.78 486.8H1366.22Z" fill="#EC641D"/>
<path d="M1321 449C1321 450.105 1320.1 451 1319 451C1317.9 451 1317 450.105 1317 449L1319 449L1321 449ZM1319 449L1317 449L1317 248L1319 248L1321 248L1321 449L1319 449Z" fill="#736FB9"/>
<rect x="972" y="571" width="400" height="80" rx="20" fill="#EC641D"/>
<path d="M1134.37 625V600.56H1125.65V596.6H1147.41V600.56H1138.69V625H1134.37ZM1149.85 625V603.72H1154.09V625H1149.85ZM1149.77 600.64V596.4H1154.17V600.64H1149.77ZM1166.8 625C1164.77 625 1163.28 624.533 1162.32 623.6C1161.36 622.667 1160.88 621.213 1160.88 619.24V598.72H1165.12V618.92C1165.12 619.907 1165.33 620.587 1165.76 620.96C1166.19 621.333 1166.84 621.52 1167.72 621.52H1170.76V625H1166.8ZM1157.64 607.2V603.72H1170.76V607.2H1157.64ZM1180.66 625.48C1178.44 625.48 1176.67 624.973 1175.34 623.96C1174.03 622.947 1173.38 621.52 1173.38 619.68C1173.38 617.84 1173.92 616.413 1175.02 615.4C1176.14 614.36 1177.86 613.613 1180.18 613.16L1187.5 611.76C1187.5 610.107 1187.11 608.88 1186.34 608.08C1185.56 607.253 1184.42 606.84 1182.9 606.84C1181.54 606.84 1180.47 607.147 1179.7 607.76C1178.92 608.347 1178.39 609.227 1178.1 610.4L1173.74 610.12C1174.14 607.987 1175.12 606.307 1176.7 605.08C1178.3 603.853 1180.36 603.24 1182.9 603.24C1185.78 603.24 1187.96 604.013 1189.46 605.56C1190.98 607.08 1191.74 609.227 1191.74 612V620.28C1191.74 620.787 1191.82 621.147 1191.98 621.36C1192.16 621.547 1192.46 621.64 1192.86 621.64H1193.62V625C1193.48 625.027 1193.27 625.053 1192.98 625.08C1192.68 625.107 1192.38 625.12 1192.06 625.12C1191.15 625.12 1190.36 624.973 1189.7 624.68C1189.06 624.387 1188.58 623.907 1188.26 623.24C1187.94 622.547 1187.78 621.627 1187.78 620.48L1188.22 620.68C1188 621.613 1187.54 622.44 1186.82 623.16C1186.12 623.88 1185.23 624.453 1184.14 624.88C1183.07 625.28 1181.91 625.48 1180.66 625.48ZM1181.34 622.12C1182.62 622.12 1183.71 621.88 1184.62 621.4C1185.52 620.893 1186.23 620.2 1186.74 619.32C1187.24 618.44 1187.5 617.44 1187.5 616.32V614.96L1181.26 616.16C1179.98 616.4 1179.07 616.787 1178.54 617.32C1178.03 617.827 1177.78 618.48 1177.78 619.28C1177.78 620.187 1178.08 620.893 1178.7 621.4C1179.34 621.88 1180.22 622.12 1181.34 622.12ZM1197.2 625V603.72H1201.08L1201.24 609.4L1200.72 609.12C1200.96 607.733 1201.41 606.613 1202.08 605.76C1202.74 604.907 1203.56 604.28 1204.52 603.88C1205.48 603.453 1206.52 603.24 1207.64 603.24C1209.24 603.24 1210.56 603.6 1211.6 604.32C1212.66 605.013 1213.46 605.973 1214 607.2C1214.56 608.4 1214.84 609.773 1214.84 611.32V625H1210.6V612.6C1210.6 611.347 1210.46 610.293 1210.2 609.44C1209.93 608.587 1209.49 607.933 1208.88 607.48C1208.26 607.027 1207.46 606.8 1206.48 606.8C1204.98 606.8 1203.77 607.293 1202.84 608.28C1201.9 609.267 1201.44 610.707 1201.44 612.6V625H1197.2Z" fill="#F3EFD7"/>
<rect x="1503" y="325" width="280" height="80" rx="20" fill="#EC641D"/>
<path d="M1605.87 379V354.56H1597.15V350.6H1618.91V354.56H1610.19V379H1605.87ZM1621.35 379V357.72H1625.59V379H1621.35ZM1621.27 354.64V350.4H1625.67V354.64H1621.27ZM1638.3 379C1636.27 379 1634.78 378.533 1633.82 377.6C1632.86 376.667 1632.38 375.213 1632.38 373.24V352.72H1636.62V372.92C1636.62 373.907 1636.83 374.587 1637.26 374.96C1637.69 375.333 1638.34 375.52 1639.22 375.52H1642.26V379H1638.3ZM1629.14 361.2V357.72H1642.26V361.2H1629.14ZM1652.16 379.48C1649.94 379.48 1648.17 378.973 1646.84 377.96C1645.53 376.947 1644.88 375.52 1644.88 373.68C1644.88 371.84 1645.42 370.413 1646.52 369.4C1647.64 368.36 1649.36 367.613 1651.68 367.16L1659 365.76C1659 364.107 1658.61 362.88 1657.84 362.08C1657.06 361.253 1655.92 360.84 1654.4 360.84C1653.04 360.84 1651.97 361.147 1651.2 361.76C1650.42 362.347 1649.89 363.227 1649.6 364.4L1645.24 364.12C1645.64 361.987 1646.62 360.307 1648.2 359.08C1649.8 357.853 1651.86 357.24 1654.4 357.24C1657.28 357.24 1659.46 358.013 1660.96 359.56C1662.48 361.08 1663.24 363.227 1663.24 366V374.28C1663.24 374.787 1663.32 375.147 1663.48 375.36C1663.66 375.547 1663.96 375.64 1664.36 375.64H1665.12V379C1664.98 379.027 1664.77 379.053 1664.48 379.08C1664.18 379.107 1663.88 379.12 1663.56 379.12C1662.65 379.12 1661.86 378.973 1661.2 378.68C1660.56 378.387 1660.08 377.907 1659.76 377.24C1659.44 376.547 1659.28 375.627 1659.28 374.48L1659.72 374.68C1659.5 375.613 1659.04 376.44 1658.32 377.16C1657.62 377.88 1656.73 378.453 1655.64 378.88C1654.57 379.28 1653.41 379.48 1652.16 379.48ZM1652.84 376.12C1654.12 376.12 1655.21 375.88 1656.12 375.4C1657.02 374.893 1657.73 374.2 1658.24 373.32C1658.74 372.44 1659 371.44 1659 370.32V368.96L1652.76 370.16C1651.48 370.4 1650.57 370.787 1650.04 371.32C1649.53 371.827 1649.28 372.48 1649.28 373.28C1649.28 374.187 1649.58 374.893 1650.2 375.4C1650.84 375.88 1651.72 376.12 1652.84 376.12ZM1668.7 379V357.72H1672.58L1672.74 363.4L1672.22 363.12C1672.46 361.733 1672.91 360.613 1673.58 359.76C1674.24 358.907 1675.06 358.28 1676.02 357.88C1676.98 357.453 1678.02 357.24 1679.14 357.24C1680.74 357.24 1682.06 357.6 1683.1 358.32C1684.16 359.013 1684.96 359.973 1685.5 361.2C1686.06 362.4 1686.34 363.773 1686.34 365.32V379H1682.1V366.6C1682.1 365.347 1681.96 364.293 1681.7 363.44C1681.43 362.587 1680.99 361.933 1680.38 361.48C1679.76 361.027 1678.96 360.8 1677.98 360.8C1676.48 360.8 1675.27 361.293 1674.34 362.28C1673.4 363.267 1672.94 364.707 1672.94 366.6V379H1668.7Z" fill="#F3EFD7"/>
<path d="M1020.33 564.058L1020.33 493" stroke="#736FB9" stroke-width="4" stroke-linecap="round" stroke-linejoin="bevel"/>
<path d="M1017.88 657.544C1017.88 656.44 1018.78 655.544 1019.88 655.544C1020.99 655.544 1021.88 656.44 1021.88 657.544L1019.88 657.544L1017.88 657.544ZM1021.3 711.214C1020.52 711.995 1019.25 711.995 1018.47 711.214L1005.74 698.486C1004.96 697.705 1004.96 696.439 1005.74 695.658C1006.52 694.877 1007.79 694.877 1008.57 695.658L1019.88 706.971L1031.2 695.658C1031.98 694.877 1033.25 694.877 1034.03 695.658C1034.81 696.439 1034.81 697.705 1034.03 698.486L1021.3 711.214ZM1019.88 657.544L1021.88 657.544L1021.88 709.8L1019.88 709.8L1017.88 709.8L1017.88 657.544L1019.88 657.544Z" fill="#736FB9"/>
<path d="M505.962 297.716C505.97 296.611 506.872 295.722 507.977 295.73C509.081 295.738 509.97 296.64 509.962 297.745L507.962 297.73L505.962 297.716ZM508.451 423.925C507.665 424.7 506.398 424.691 505.623 423.904L492.989 411.083C492.213 410.296 492.223 409.03 493.009 408.255C493.796 407.479 495.063 407.489 495.838 408.275L507.068 419.672L518.465 408.441C519.251 407.666 520.518 407.675 521.293 408.462C522.068 409.249 522.059 410.515 521.272 411.29L508.451 423.925ZM507.962 297.73L509.962 297.745L509.048 422.515L507.048 422.5L505.048 422.485L505.962 297.716L507.962 297.73Z" fill="#736FB9"/>
<path d="M213.462 435.987C213.469 434.883 214.37 433.993 215.475 434C216.579 434.007 217.469 434.908 217.462 436.012L215.462 436L213.462 435.987ZM215.187 703.694C214.401 704.47 213.135 704.462 212.359 703.676L199.712 690.868C198.935 690.082 198.943 688.816 199.729 688.039C200.515 687.263 201.782 687.271 202.558 688.057L213.8 699.442L225.185 688.2C225.971 687.424 227.237 687.432 228.013 688.218C228.789 689.004 228.781 690.27 227.995 691.046L215.187 703.694ZM215.462 436L217.462 436.012L215.782 702.283L213.782 702.271L211.782 702.258L213.462 435.987L215.462 436Z" fill="#736FB9"/>
<path d="M755.891 702.999C755.891 704.104 754.995 704.999 753.891 704.999C752.786 704.999 751.891 704.104 751.891 702.999L753.891 702.999L755.891 702.999ZM752.477 299.068C753.258 298.287 754.524 298.287 755.305 299.068L768.033 311.796C768.814 312.577 768.814 313.844 768.033 314.625C767.252 315.406 765.986 315.406 765.205 314.625L753.891 303.311L742.577 314.625C741.796 315.406 740.53 315.406 739.749 314.625C738.968 313.844 738.968 312.577 739.749 311.796L752.477 299.068ZM753.891 702.999L751.891 702.999L751.891 300.482L753.891 300.482L755.891 300.482L755.891 702.999L753.891 702.999Z" fill="#736FB9"/>
<path d="M504.474 579C504.474 577.895 505.37 577 506.474 577C507.579 577 508.474 577.895 508.474 579L506.474 579L504.474 579ZM507.889 704.003C507.108 704.784 505.841 704.784 505.06 704.003L492.332 691.275C491.551 690.494 491.551 689.228 492.332 688.447C493.113 687.666 494.38 687.666 495.161 688.447L506.474 699.76L517.788 688.447C518.569 687.666 519.835 687.666 520.617 688.447C521.398 689.228 521.398 690.494 520.617 691.275L507.889 704.003ZM506.474 579L508.474 579L508.474 702.589L506.474 702.589L504.474 702.589L504.474 579L506.474 579Z" fill="#736FB9"/>
<path d="M1318.79 565.141L1319.33 493" stroke="#736FB9" stroke-width="4" stroke-linecap="round" stroke-linejoin="bevel"/>
<path d="M1172.5 565L1172.5 493" stroke="#736FB9" stroke-width="4" stroke-linecap="round" stroke-linejoin="bevel"/>
<path d="M1171.51 751.144L1171.84 657" stroke="#736FB9" stroke-width="4" stroke-linecap="round" stroke-linejoin="bevel"/>
<path d="M958.593 155.001L862 180.883" stroke="#736FB9" stroke-width="4" stroke-linecap="round"/>
<path d="M958.593 234.823L862 208.941" stroke="#736FB9" stroke-width="4" stroke-linecap="round"/>
<path d="M1456 455L1511.57 710.137" stroke="#736FB9" stroke-width="4" stroke-linecap="round"/>
<path d="M1830.13 455L1774.57 710.137" stroke="#736FB9" stroke-width="4" stroke-linecap="round"/>
<path d="M859.552 821.802C857.719 802.485 841.136 795.935 820.195 793.993L820.215 767.211L803.99 767.137L803.972 793.214C799.706 793.194 795.347 793.259 791.015 793.325L791.037 767.076L774.822 767L774.795 793.774C771.283 793.83 767.833 793.88 764.47 793.866L764.467 793.783L742.09 793.671L742.081 811.082C742.081 811.082 754.062 810.909 753.863 811.129C760.435 811.162 762.571 815.005 763.19 818.316L763.169 848.827C763.622 848.832 764.214 848.853 764.883 848.949C764.343 848.947 763.764 848.94 763.17 848.943L763.133 891.685C762.843 893.762 761.625 897.069 757.033 897.056C757.241 897.242 745.239 896.998 745.239 896.998L742.001 916.452L763.115 916.549C767.044 916.572 770.909 916.657 774.705 916.699L774.691 943.787L790.898 943.865L790.918 917.064C795.368 917.177 799.674 917.233 803.878 917.249L803.851 943.926L820.075 944L820.101 916.961C847.378 915.516 866.474 908.7 868.865 882.974C870.794 862.259 861.099 852.967 845.619 849.158C855.029 844.389 860.916 835.937 859.552 821.802ZM836.809 879.615C836.802 899.857 802.309 897.393 791.314 897.353L791.345 861.464C802.344 861.518 836.826 858.501 836.809 879.615ZM829.302 828.945C829.283 847.361 800.516 845.078 791.357 845.036L791.383 812.487C800.542 812.529 829.314 809.736 829.302 828.945Z" fill="#EC641D"/>
<path d="M900.192 847.704C897.376 847.704 894.897 847.059 892.756 845.768C890.615 844.448 888.943 842.571 887.74 840.136C886.537 837.701 885.936 834.797 885.936 831.424C885.936 828.08 886.523 825.191 887.696 822.756C888.899 820.292 890.571 818.4 892.712 817.08C894.853 815.731 897.361 815.056 900.236 815.056C904.108 815.056 907.115 816.024 909.256 817.96C911.397 819.896 912.791 822.58 913.436 826.012L908.464 826.276C908.053 824.135 907.173 822.463 905.824 821.26C904.475 820.028 902.612 819.412 900.236 819.412C898.329 819.412 896.672 819.896 895.264 820.864C893.885 821.832 892.8 823.211 892.008 825C891.245 826.789 890.864 828.931 890.864 831.424C890.864 833.917 891.245 836.059 892.008 837.848C892.8 839.637 893.9 841.001 895.308 841.94C896.716 842.879 898.344 843.348 900.192 843.348C902.715 843.348 904.665 842.688 906.044 841.368C907.452 840.019 908.332 838.171 908.684 835.824L913.656 836.088C913.275 838.464 912.512 840.517 911.368 842.248C910.224 843.979 908.713 845.328 906.836 846.296C904.959 847.235 902.744 847.704 900.192 847.704ZM918.323 847V823.592H922.591L922.767 829.796L922.371 829.664C922.694 827.552 923.339 826.012 924.307 825.044C925.305 824.076 926.639 823.592 928.311 823.592H930.555V827.772H928.311C927.138 827.772 926.155 827.963 925.363 828.344C924.571 828.725 923.97 829.312 923.559 830.104C923.178 830.896 922.987 831.923 922.987 833.184V847H918.323ZM935.886 853.6V849.772H938.746C939.538 849.772 940.124 849.655 940.506 849.42C940.887 849.185 941.18 848.789 941.386 848.232L942.134 846.296H940.682L932.234 823.592H937.162L943.586 841.984L949.702 823.592H954.674L945.346 849.728C944.876 851.077 944.172 852.06 943.234 852.676C942.324 853.292 941.048 853.6 939.406 853.6H935.886ZM957.855 853.6V823.592H962.255L962.387 828.608L961.859 828.344C962.445 826.613 963.413 825.308 964.763 824.428C966.112 823.519 967.667 823.064 969.427 823.064C971.715 823.064 973.592 823.636 975.059 824.78C976.555 825.895 977.655 827.376 978.359 829.224C979.092 831.072 979.459 833.096 979.459 835.296C979.459 837.496 979.092 839.52 978.359 841.368C977.655 843.216 976.555 844.712 975.059 845.856C973.592 846.971 971.715 847.528 969.427 847.528C968.253 847.528 967.153 847.323 966.127 846.912C965.1 846.501 964.22 845.929 963.487 845.196C962.783 844.433 962.284 843.539 961.991 842.512L962.519 841.984V853.6H957.855ZM968.591 843.48C970.468 843.48 971.935 842.761 972.991 841.324C974.076 839.887 974.619 837.877 974.619 835.296C974.619 832.715 974.076 830.705 972.991 829.268C971.935 827.831 970.468 827.112 968.591 827.112C967.359 827.112 966.288 827.42 965.379 828.036C964.469 828.623 963.765 829.532 963.267 830.764C962.768 831.996 962.519 833.507 962.519 835.296C962.519 837.085 962.753 838.596 963.223 839.828C963.721 841.06 964.425 841.984 965.335 842.6C966.273 843.187 967.359 843.48 968.591 843.48ZM992.311 847C990.082 847 988.439 846.487 987.383 845.46C986.327 844.433 985.799 842.835 985.799 840.664V818.092H990.463V840.312C990.463 841.397 990.698 842.145 991.167 842.556C991.636 842.967 992.355 843.172 993.323 843.172H996.667V847H992.311ZM982.235 827.42V823.592H996.667V827.42H982.235ZM1010.37 847.528C1008.14 847.528 1006.19 847.029 1004.52 846.032C1002.85 845.035 1001.56 843.612 1000.65 841.764C999.74 839.916 999.286 837.76 999.286 835.296C999.286 832.803 999.74 830.647 1000.65 828.828C1001.56 827.009 1002.85 825.601 1004.52 824.604C1006.19 823.577 1008.14 823.064 1010.37 823.064C1012.6 823.064 1014.55 823.577 1016.23 824.604C1017.9 825.601 1019.19 827.009 1020.1 828.828C1021.01 830.647 1021.46 832.803 1021.46 835.296C1021.46 837.76 1021.01 839.916 1020.1 841.764C1019.19 843.612 1017.9 845.035 1016.23 846.032C1014.55 847.029 1012.6 847.528 1010.37 847.528ZM1010.37 843.48C1012.37 843.48 1013.91 842.761 1014.99 841.324C1016.08 839.857 1016.62 837.848 1016.62 835.296C1016.62 832.744 1016.08 830.749 1014.99 829.312C1013.91 827.845 1012.37 827.112 1010.37 827.112C1008.41 827.112 1006.87 827.845 1005.75 829.312C1004.67 830.749 1004.13 832.744 1004.13 835.296C1004.13 837.848 1004.67 839.857 1005.75 841.324C1006.87 842.761 1008.41 843.48 1010.37 843.48ZM1035.59 854.128C1033.74 854.128 1032.12 853.849 1030.71 853.292C1029.3 852.735 1028.14 851.943 1027.23 850.916C1026.32 849.919 1025.71 848.745 1025.38 847.396L1030.22 847.088C1030.55 848.056 1031.1 848.819 1031.9 849.376C1032.72 849.963 1033.95 850.256 1035.59 850.256C1037.53 850.256 1039.01 849.845 1040.04 849.024C1041.09 848.203 1041.62 846.956 1041.62 845.284V841.896C1041.06 843.099 1040.17 844.052 1038.94 844.756C1037.7 845.46 1036.32 845.812 1034.8 845.812C1032.83 845.812 1031.09 845.328 1029.56 844.36C1028.04 843.392 1026.85 842.057 1026 840.356C1025.15 838.655 1024.72 836.689 1024.72 834.46C1024.72 832.201 1025.13 830.221 1025.96 828.52C1026.81 826.819 1027.98 825.484 1029.48 824.516C1031 823.548 1032.72 823.064 1034.62 823.064C1036.3 823.064 1037.76 823.445 1039.02 824.208C1040.31 824.971 1041.24 825.997 1041.8 827.288V823.592H1046.28V845.152C1046.28 847.088 1045.84 848.716 1044.96 850.036C1044.11 851.385 1042.88 852.397 1041.27 853.072C1039.68 853.776 1037.79 854.128 1035.59 854.128ZM1035.55 841.852C1037.37 841.852 1038.82 841.192 1039.9 839.872C1041.02 838.552 1041.59 836.733 1041.62 834.416C1041.65 832.891 1041.41 831.585 1040.92 830.5C1040.42 829.385 1039.7 828.535 1038.76 827.948C1037.85 827.332 1036.78 827.024 1035.55 827.024C1033.64 827.024 1032.16 827.699 1031.1 829.048C1030.08 830.368 1029.56 832.157 1029.56 834.416C1029.56 836.704 1030.09 838.523 1031.15 839.872C1032.23 841.192 1033.7 841.852 1035.55 841.852ZM1052.9 847V823.592H1057.17L1057.35 829.796L1056.95 829.664C1057.27 827.552 1057.92 826.012 1058.89 825.044C1059.88 824.076 1061.22 823.592 1062.89 823.592H1065.13V827.772H1062.89C1061.72 827.772 1060.73 827.963 1059.94 828.344C1059.15 828.725 1058.55 829.312 1058.14 830.104C1057.76 830.896 1057.57 831.923 1057.57 833.184V847H1052.9ZM1075.1 847.528C1072.66 847.528 1070.71 846.971 1069.25 845.856C1067.81 844.741 1067.09 843.172 1067.09 841.148C1067.09 839.124 1067.69 837.555 1068.89 836.44C1070.13 835.296 1072.02 834.475 1074.57 833.976L1082.62 832.436C1082.62 830.617 1082.2 829.268 1081.35 828.388C1080.5 827.479 1079.23 827.024 1077.56 827.024C1076.07 827.024 1074.89 827.361 1074.04 828.036C1073.19 828.681 1072.6 829.649 1072.28 830.94L1067.49 830.632C1067.93 828.285 1069.01 826.437 1070.74 825.088C1072.5 823.739 1074.78 823.064 1077.56 823.064C1080.73 823.064 1083.14 823.915 1084.78 825.616C1086.45 827.288 1087.29 829.649 1087.29 832.7V841.808C1087.29 842.365 1087.37 842.761 1087.55 842.996C1087.76 843.201 1088.08 843.304 1088.52 843.304H1089.35V847C1089.21 847.029 1088.97 847.059 1088.65 847.088C1088.33 847.117 1087.99 847.132 1087.64 847.132C1086.64 847.132 1085.78 846.971 1085.04 846.648C1084.34 846.325 1083.81 845.797 1083.46 845.064C1083.11 844.301 1082.93 843.289 1082.93 842.028L1083.41 842.248C1083.18 843.275 1082.67 844.184 1081.87 844.976C1081.11 845.768 1080.13 846.399 1078.93 846.868C1077.75 847.308 1076.48 847.528 1075.1 847.528ZM1075.85 843.832C1077.25 843.832 1078.46 843.568 1079.45 843.04C1080.45 842.483 1081.23 841.72 1081.79 840.752C1082.34 839.784 1082.62 838.684 1082.62 837.452V835.956L1075.76 837.276C1074.35 837.54 1073.35 837.965 1072.77 838.552C1072.21 839.109 1071.93 839.828 1071.93 840.708C1071.93 841.705 1072.27 842.483 1072.94 843.04C1073.65 843.568 1074.61 843.832 1075.85 843.832ZM1093.29 853.6V823.592H1097.69L1097.82 828.608L1097.3 828.344C1097.88 826.613 1098.85 825.308 1100.2 824.428C1101.55 823.519 1103.1 823.064 1104.86 823.064C1107.15 823.064 1109.03 823.636 1110.5 824.78C1111.99 825.895 1113.09 827.376 1113.8 829.224C1114.53 831.072 1114.9 833.096 1114.9 835.296C1114.9 837.496 1114.53 839.52 1113.8 841.368C1113.09 843.216 1111.99 844.712 1110.5 845.856C1109.03 846.971 1107.15 847.528 1104.86 847.528C1103.69 847.528 1102.59 847.323 1101.56 846.912C1100.54 846.501 1099.66 845.929 1098.92 845.196C1098.22 844.433 1097.72 843.539 1097.43 842.512L1097.96 841.984V853.6H1093.29ZM1104.03 843.48C1105.91 843.48 1107.37 842.761 1108.43 841.324C1109.51 839.887 1110.06 837.877 1110.06 835.296C1110.06 832.715 1109.51 830.705 1108.43 829.268C1107.37 827.831 1105.91 827.112 1104.03 827.112C1102.8 827.112 1101.73 827.42 1100.82 828.036C1099.91 828.623 1099.2 829.532 1098.7 830.764C1098.21 831.996 1097.96 833.507 1097.96 835.296C1097.96 837.085 1098.19 838.596 1098.66 839.828C1099.16 841.06 1099.86 841.984 1100.77 842.6C1101.71 843.187 1102.8 843.48 1104.03 843.48ZM1119.63 847V815.76H1124.3V828.872L1123.72 828.784C1123.99 827.464 1124.47 826.393 1125.18 825.572C1125.88 824.721 1126.75 824.091 1127.77 823.68C1128.8 823.269 1129.93 823.064 1131.16 823.064C1132.86 823.064 1134.3 823.445 1135.47 824.208C1136.65 824.941 1137.53 825.983 1138.11 827.332C1138.73 828.681 1139.04 830.221 1139.04 831.952V847H1134.37V833.184C1134.37 831.072 1134.01 829.517 1133.27 828.52C1132.57 827.493 1131.45 826.98 1129.93 826.98C1128.23 826.98 1126.86 827.523 1125.84 828.608C1124.81 829.664 1124.3 831.219 1124.3 833.272V847H1119.63ZM1145.2 847V823.592H1149.86V847H1145.2ZM1145.11 820.204V815.54H1149.95V820.204H1145.11ZM1165.66 847.528C1163.43 847.528 1161.48 847.029 1159.81 846.032C1158.14 845.035 1156.85 843.612 1155.94 841.764C1155.03 839.916 1154.57 837.76 1154.57 835.296C1154.57 832.832 1155.03 830.691 1155.94 828.872C1156.85 827.024 1158.14 825.601 1159.81 824.604C1161.48 823.577 1163.43 823.064 1165.66 823.064C1167.57 823.064 1169.26 823.401 1170.72 824.076C1172.22 824.721 1173.42 825.675 1174.33 826.936C1175.27 828.197 1175.87 829.737 1176.13 831.556L1171.25 831.82C1171.02 830.295 1170.4 829.136 1169.4 828.344C1168.41 827.523 1167.16 827.112 1165.66 827.112C1163.7 827.112 1162.16 827.845 1161.04 829.312C1159.96 830.749 1159.41 832.744 1159.41 835.296C1159.41 837.848 1159.96 839.857 1161.04 841.324C1162.16 842.761 1163.7 843.48 1165.66 843.48C1167.16 843.48 1168.41 843.069 1169.4 842.248C1170.4 841.397 1171.02 840.121 1171.25 838.42L1176.13 838.684C1175.87 840.473 1175.27 842.028 1174.33 843.348C1173.42 844.668 1172.22 845.695 1170.72 846.428C1169.26 847.161 1167.57 847.528 1165.66 847.528ZM887.784 895V863.76H894.296L903.58 889.412L912.864 863.76H919.376V895H914.624V872.12L906.22 894.956H900.94L892.536 872.12V895H887.784ZM933.328 895.528C930.981 895.528 929.104 894.751 927.696 893.196C926.317 891.612 925.628 889.427 925.628 886.64V871.592H930.292V885.452C930.292 887.564 930.659 889.119 931.392 890.116C932.125 891.113 933.24 891.612 934.736 891.612C936.437 891.612 937.757 891.069 938.696 889.984C939.664 888.869 940.148 887.315 940.148 885.32V871.592H944.812V895H940.456L940.368 888.884L941.028 889.148C940.617 891.201 939.752 892.785 938.432 893.9C937.112 894.985 935.411 895.528 933.328 895.528ZM956.513 895C954.988 895 953.756 894.604 952.817 893.812C951.879 893.02 951.409 891.759 951.409 890.028V863.76H956.073V889.588C956.073 890.116 956.205 890.512 956.469 890.776C956.763 891.04 957.173 891.172 957.701 891.172H959.549V895H956.513ZM971.471 895C969.242 895 967.599 894.487 966.543 893.46C965.487 892.433 964.959 890.835 964.959 888.664V866.092H969.623V888.312C969.623 889.397 969.858 890.145 970.327 890.556C970.797 890.967 971.515 891.172 972.483 891.172H975.827V895H971.471ZM961.395 875.42V871.592H975.827V875.42H961.395ZM980.284 895V871.592H984.948V895H980.284ZM980.196 868.204V863.54H985.036V868.204H980.196ZM990.09 884.22V880.128H1004.83V884.22H990.09ZM1018.95 895.528C1016.75 895.528 1014.89 895.191 1013.36 894.516C1011.87 893.841 1010.71 892.917 1009.89 891.744C1009.07 890.541 1008.6 889.163 1008.48 887.608L1013.28 887.388C1013.51 888.679 1014.07 889.705 1014.95 890.468C1015.83 891.231 1017.16 891.612 1018.95 891.612C1020.42 891.612 1021.58 891.377 1022.43 890.908C1023.28 890.439 1023.7 889.691 1023.7 888.664C1023.7 888.107 1023.56 887.637 1023.26 887.256C1023 886.845 1022.47 886.508 1021.68 886.244C1020.89 885.951 1019.72 885.672 1018.16 885.408C1015.84 884.968 1014.02 884.455 1012.7 883.868C1011.38 883.281 1010.45 882.533 1009.89 881.624C1009.33 880.715 1009.05 879.615 1009.05 878.324C1009.05 876.183 1009.84 874.437 1011.43 873.088C1013.04 871.739 1015.36 871.064 1018.38 871.064C1020.4 871.064 1022.11 871.416 1023.48 872.12C1024.86 872.795 1025.93 873.719 1026.7 874.892C1027.49 876.036 1027.99 877.327 1028.19 878.764L1023.4 879.028C1023.25 878.207 1022.96 877.503 1022.52 876.916C1022.11 876.3 1021.55 875.831 1020.84 875.508C1020.14 875.156 1019.3 874.98 1018.34 874.98C1016.84 874.98 1015.73 875.273 1014.99 875.86C1014.26 876.447 1013.89 877.209 1013.89 878.148C1013.89 878.852 1014.05 879.424 1014.38 879.864C1014.73 880.304 1015.29 880.671 1016.05 880.964C1016.81 881.228 1017.82 881.463 1019.08 881.668C1021.52 882.079 1023.43 882.592 1024.8 883.208C1026.18 883.795 1027.15 884.528 1027.71 885.408C1028.27 886.288 1028.54 887.359 1028.54 888.62C1028.54 890.087 1028.13 891.333 1027.31 892.36C1026.49 893.387 1025.36 894.179 1023.92 894.736C1022.49 895.264 1020.83 895.528 1018.95 895.528ZM1033.26 895V871.592H1037.93V895H1033.26ZM1033.18 868.204V863.54H1038.02V868.204H1033.18ZM1053.51 902.128C1051.66 902.128 1050.03 901.849 1048.62 901.292C1047.22 900.735 1046.06 899.943 1045.15 898.916C1044.24 897.919 1043.62 896.745 1043.3 895.396L1048.14 895.088C1048.46 896.056 1049.02 896.819 1049.81 897.376C1050.63 897.963 1051.87 898.256 1053.51 898.256C1055.44 898.256 1056.93 897.845 1057.95 897.024C1059.01 896.203 1059.54 894.956 1059.54 893.284V889.896C1058.98 891.099 1058.08 892.052 1056.85 892.756C1055.62 893.46 1054.24 893.812 1052.72 893.812C1050.75 893.812 1049.01 893.328 1047.48 892.36C1045.96 891.392 1044.77 890.057 1043.92 888.356C1043.07 886.655 1042.64 884.689 1042.64 882.46C1042.64 880.201 1043.05 878.221 1043.87 876.52C1044.72 874.819 1045.9 873.484 1047.39 872.516C1048.92 871.548 1050.63 871.064 1052.54 871.064C1054.21 871.064 1055.68 871.445 1056.94 872.208C1058.23 872.971 1059.16 873.997 1059.71 875.288V871.592H1064.2V893.152C1064.2 895.088 1063.76 896.716 1062.88 898.036C1062.03 899.385 1060.8 900.397 1059.18 901.072C1057.6 901.776 1055.71 902.128 1053.51 902.128ZM1053.46 889.852C1055.28 889.852 1056.74 889.192 1057.82 887.872C1058.94 886.552 1059.51 884.733 1059.54 882.416C1059.57 880.891 1059.33 879.585 1058.83 878.5C1058.33 877.385 1057.62 876.535 1056.68 875.948C1055.77 875.332 1054.7 875.024 1053.46 875.024C1051.56 875.024 1050.08 875.699 1049.02 877.048C1047.99 878.368 1047.48 880.157 1047.48 882.416C1047.48 884.704 1048.01 886.523 1049.06 887.872C1050.15 889.192 1051.62 889.852 1053.46 889.852Z" fill="#EC641D"/>
</g>
<defs>
<clipPath id="clip0_1220_2047">
<rect width="1920" height="1080" fill="white"/>
</clipPath>
</defs>
</svg>
