<svg width="284" height="327" viewBox="0 0 284 327" fill="none" xmlns="http://www.w3.org/2000/svg">
<path d="M62.4063 54.4088C64.367 56.3583 65.4329 59.0326 65.351 61.7963L63.0137 140.654C62.8466 146.29 67.3704 150.95 73.0093 150.95H212.273C217.98 150.95 222.53 146.181 222.261 140.48L218.565 61.8968C218.433 59.0746 219.5 56.3279 221.504 54.3358L239.56 36.3824C239.821 36.0804 239.97 35.6974 239.981 35.2982V1.50596C239.983 1.30766 239.946 1.11098 239.871 0.927402C239.796 0.743826 239.685 0.577048 239.545 0.436826C239.404 0.296605 239.238 0.185755 239.054 0.110762C238.87 0.0357691 238.674 -0.00186086 238.476 7.39258e-05H197.335C197.136 -0.00190073 196.94 0.0357022 196.756 0.110681C196.573 0.185659 196.406 0.296507 196.266 0.436737C196.125 0.576967 196.014 0.74376 195.939 0.927355C195.864 1.11095 195.827 1.30765 195.829 1.50596V23.792C195.829 29.3149 191.352 33.792 185.829 33.792H173.241C167.718 33.792 163.241 29.3149 163.241 23.792V1.50596C163.243 1.30766 163.206 1.11095 163.131 0.927363C163.056 0.743772 162.945 0.576982 162.805 0.436754C162.664 0.296526 162.498 0.185679 162.314 0.110698C162.13 0.0357161 161.934 -0.00189275 161.735 7.39258e-05H122.101C121.903 -0.00189275 121.706 0.0357161 121.522 0.110698C121.339 0.185679 121.172 0.296526 121.032 0.436754C120.891 0.576982 120.781 0.743772 120.706 0.927363C120.631 1.11095 120.593 1.30766 120.595 1.50596V23.792C120.595 29.3149 116.118 33.792 110.595 33.792H98.0074C92.4845 33.792 88.0074 29.3149 88.0074 23.792V1.50596C88.0094 1.30765 87.9718 1.11095 87.8968 0.927355C87.8218 0.74376 87.7109 0.576967 87.5707 0.436737C87.4305 0.296507 87.2637 0.185659 87.0801 0.110681C86.8965 0.0357022 86.6998 -0.00190073 86.5015 7.39258e-05H45.3607C45.1624 -0.00186086 44.9657 0.0357691 44.7821 0.110762C44.5986 0.185755 44.4318 0.296605 44.2916 0.436826C44.1513 0.577048 44.0405 0.743826 43.9655 0.927402C43.8905 1.11098 43.8529 1.30766 43.8548 1.50596V35.2978C43.8662 35.6971 44.0151 36.0801 44.2765 36.382L62.4063 54.4088ZM105.355 98.4847C107.045 50.0928 176.795 50.0968 178.481 98.4853V120.892C178.484 121.684 178.33 122.469 178.028 123.201C177.726 123.933 177.283 124.598 176.723 125.158C176.163 125.718 175.498 126.161 174.766 126.463C174.034 126.765 173.249 126.919 172.457 126.916H111.379C110.587 126.919 109.802 126.765 109.07 126.463C108.338 126.161 107.673 125.718 107.113 125.158C106.553 124.598 106.11 123.933 105.808 123.201C105.506 122.469 105.352 121.684 105.355 120.892V98.4847Z" fill="#EC641D"/>
<path d="M283.836 304.259L265.685 191.703C265.071 187.898 266.699 184.079 269.87 181.886L283.233 172.644C283.422 172.505 283.574 172.324 283.679 172.114C283.784 171.905 283.837 171.674 283.835 171.44V142.045C283.837 141.847 283.8 141.65 283.725 141.466C283.65 141.283 283.539 141.116 283.399 140.976C283.258 140.836 283.092 140.725 282.908 140.65C282.725 140.575 282.528 140.537 282.33 140.539H240.888C240.491 140.545 240.111 140.706 239.83 140.987C239.549 141.268 239.388 141.648 239.382 142.045V153.008C239.382 158.53 234.944 163.007 229.422 163.007C191.428 163.008 92.3421 163.007 54.4237 163.007C48.9007 163.007 44.4605 158.53 44.4605 153.007V142.045C44.4543 141.648 44.2936 141.268 44.0126 140.987C43.7315 140.706 43.3521 140.545 42.9547 140.539H1.51304C1.31475 140.537 1.11806 140.575 0.934479 140.65C0.750899 140.725 0.584118 140.836 0.443895 140.976C0.303672 141.116 0.192823 141.283 0.117833 141.466C0.0428432 141.65 0.00521638 141.847 0.00715914 142.045V171.44C0.00526721 171.674 0.0588521 171.905 0.163522 172.115C0.268191 172.324 0.42097 172.506 0.609351 172.645L13.9736 181.887C17.1433 184.079 18.7713 187.897 18.1584 191.702L0.0066923 304.379C-0.174223 306.668 2.77763 318.535 76.2045 325.281C79.6605 325.608 83.1165 325.899 86.5725 326.153C88.1976 326.273 89.5768 324.983 89.5768 323.354C89.6103 316.233 89.682 265.684 89.7578 257.275C92.4816 187.99 191.514 188.087 194.085 257.276C194.079 265.8 194.089 315.913 194.085 323.354C194.085 324.984 195.464 326.274 197.089 326.156C200.606 325.901 204.122 325.61 207.638 325.281C281.065 318.535 284.016 306.668 283.836 304.259Z" fill="#EC641D"/>
</svg>
