<svg width="1920" height="1080" viewBox="0 0 1920 1080" fill="none" xmlns="http://www.w3.org/2000/svg">
<rect width="1920" height="1080" fill="#F3EFD7"/>
<path d="M1153 722L1153 360L1466 179L1779 360L1779 722L1466 903L1153 722Z" stroke="#736FB9" stroke-opacity="0.5" stroke-width="3"/>
<path d="M1153 722H1779" stroke="#736FB9" stroke-opacity="0.5" stroke-width="3"/>
<path d="M1153 360.5L1779 360" stroke="#736FB9" stroke-opacity="0.5" stroke-width="3"/>
<path d="M1153 360.5L1779 722" stroke="#736FB9" stroke-opacity="0.5" stroke-width="3"/>
<path d="M1153 360.5L1466 903" stroke="#736FB9" stroke-opacity="0.5" stroke-width="3"/>
<path d="M1779 360.5L1466 903" stroke="#736FB9" stroke-opacity="0.5" stroke-width="3"/>
<path d="M1779 360.5L1153 722" stroke="#736FB9" stroke-opacity="0.5" stroke-width="3"/>
<path d="M1466 179L1466 903" stroke="#736FB9" stroke-opacity="0.5" stroke-width="3"/>
<path d="M1466 179L1153 722" stroke="#736FB9" stroke-opacity="0.5" stroke-width="3"/>
<path d="M1466 179L1779 722" stroke="#736FB9" stroke-opacity="0.5" stroke-width="3"/>
<circle cx="1466" cy="541" r="75" fill="#EC641D"/>
<circle cx="1468.5" cy="902.5" r="57.5" fill="#F3EFD7" stroke="#EC641D" stroke-width="4"/>
<circle cx="1779.5" cy="721.5" r="57.5" fill="#F3EFD7" stroke="#EC641D" stroke-width="4"/>
<circle cx="1779.5" cy="360.5" r="57.5" fill="#F3EFD7" stroke="#EC641D" stroke-width="4"/>
<circle cx="1466.5" cy="178.5" r="57.5" fill="#F3EFD7" stroke="#EC641D" stroke-width="4"/>
<circle cx="1153.5" cy="721.5" r="57.5" fill="#F3EFD7" stroke="#EC641D" stroke-width="4"/>
<circle cx="1153.5" cy="360.5" r="56" fill="#EC641D" stroke="#EC641D" stroke-width="3"/>
<path d="M1487.11 575.064H1483.79C1483.45 575.064 1483.12 574.876 1482.94 574.561L1466.92 547.285C1466.55 546.647 1465.96 546.579 1465.73 546.579C1465.49 546.579 1464.9 546.647 1464.53 547.285L1448.52 574.561C1448.33 574.876 1448.01 575.064 1447.66 575.064H1444.34C1443.55 575.064 1443.07 574.14 1443.49 573.427L1460.43 544.583C1461.57 542.624 1463.56 541.46 1465.73 541.46C1467.91 541.46 1469.89 542.624 1471.04 544.583L1487.98 573.427C1488.4 574.14 1487.92 575.064 1487.12 575.064H1487.11Z" fill="#F3EFD7"/>
<path d="M1496.53 575.064H1493.2C1492.86 575.064 1492.53 574.876 1492.34 574.562L1468.13 533.512C1467.65 532.695 1466.86 532.231 1465.95 532.231C1465.05 532.231 1464.25 532.695 1463.77 533.512L1439.56 574.562C1439.38 574.876 1439.05 575.064 1438.7 575.064H1435.38C1434.59 575.064 1434.1 574.142 1434.52 573.431L1459.66 530.816C1461.02 528.501 1463.37 527.123 1465.95 527.123C1467.25 527.123 1468.48 527.468 1469.56 528.104C1470.64 528.741 1471.57 529.662 1472.25 530.816L1497.39 573.431C1497.81 574.142 1497.32 575.064 1496.53 575.064Z" fill="#F3EFD7"/>
<path d="M1505.03 575.063H1501.72C1501.37 575.063 1501.05 574.875 1500.86 574.559L1468.64 519.346C1467.95 518.164 1466.81 517.485 1465.5 517.485C1464.19 517.485 1463.04 518.164 1462.35 519.346L1430.13 574.559C1429.95 574.875 1429.62 575.063 1429.28 575.063H1425.97C1425.17 575.063 1424.69 574.137 1425.11 573.421L1458.26 516.627C1459.79 513.997 1462.42 512.4 1465.32 512.339C1468.38 512.272 1471.22 514.005 1472.84 516.77L1505.9 573.413C1506.32 574.129 1505.84 575.056 1505.04 575.056L1505.03 575.063Z" fill="#F3EFD7"/>
<path d="M1514.44 575.063H1511.12C1510.78 575.063 1510.45 574.875 1510.27 574.559L1469.85 505.572C1468.95 504.023 1467.45 503.136 1465.72 503.136C1464 503.136 1462.5 504.023 1461.59 505.572L1421.18 574.559C1421 574.875 1420.67 575.063 1420.32 575.063H1417.01C1416.22 575.063 1415.73 574.138 1416.15 573.424L1457.49 502.858C1459.28 499.82 1462.35 498 1465.73 498C1469.11 498 1472.18 499.812 1473.97 502.858L1515.31 573.424C1515.73 574.138 1515.25 575.063 1514.45 575.063H1514.44Z" fill="#F3EFD7"/>
<path d="M1466 875.026V906.94" stroke="#EC641D" stroke-width="2.65951"/>
<circle cx="1466" cy="875.026" r="7.97853" fill="#EC641D" stroke="#EC641D" stroke-width="1.77301"/>
<circle cx="1466" cy="904.28" r="7.97853" fill="#EC641D" stroke="#EC641D" stroke-width="1.77301"/>
<path d="M1467.62 903.093L1439.98 919.05" stroke="#EC641D" stroke-width="2.65951"/>
<circle cx="1439.98" cy="919.05" r="7.97853" transform="rotate(60 1439.98 919.05)" fill="#EC641D" stroke="#EC641D" stroke-width="1.77301"/>
<path d="M1464.22 903.094L1491.86 919.051" stroke="#EC641D" stroke-width="2.65951"/>
<circle cx="8.86503" cy="8.86503" r="7.97853" transform="matrix(-0.5 0.866025 0.866025 0.5 1488.61 906.941)" fill="#EC641D" stroke="#EC641D" stroke-width="1.77301"/>
<path d="M1778.99 694.026V725.94" stroke="#EC641D" stroke-width="2.6595"/>
<circle cx="1778.99" cy="694.026" r="7.9785" fill="#EC641D" stroke="#EC641D" stroke-width="1.773"/>
<circle cx="1778.99" cy="723.28" r="7.9785" fill="#EC641D" stroke="#EC641D" stroke-width="1.773"/>
<path d="M1780.62 722.093L1752.98 738.05" stroke="#EC641D" stroke-width="2.6595"/>
<circle cx="1752.98" cy="738.05" r="7.9785" transform="rotate(60 1752.98 738.05)" fill="#EC641D" stroke="#EC641D" stroke-width="1.773"/>
<path d="M1777.22 722.095L1804.86 738.052" stroke="#EC641D" stroke-width="2.6595"/>
<circle cx="8.865" cy="8.865" r="7.9785" transform="matrix(-0.5 0.866025 0.866025 0.5 1801.61 725.942)" fill="#EC641D" stroke="#EC641D" stroke-width="1.773"/>
<path d="M1778.99 333.026V364.94" stroke="#EC641D" stroke-width="2.6595"/>
<circle cx="1778.99" cy="333.026" r="7.9785" fill="#EC641D" stroke="#EC641D" stroke-width="1.773"/>
<circle cx="1778.99" cy="362.28" r="7.9785" fill="#EC641D" stroke="#EC641D" stroke-width="1.773"/>
<path d="M1780.62 361.093L1752.98 377.05" stroke="#EC641D" stroke-width="2.6595"/>
<circle cx="1752.98" cy="377.05" r="7.9785" transform="rotate(60 1752.98 377.05)" fill="#EC641D" stroke="#EC641D" stroke-width="1.773"/>
<path d="M1777.22 361.093L1804.86 377.05" stroke="#EC641D" stroke-width="2.6595"/>
<circle cx="8.865" cy="8.865" r="7.9785" transform="matrix(-0.5 0.866025 0.866025 0.5 1801.62 364.941)" fill="#EC641D" stroke="#EC641D" stroke-width="1.773"/>
<path d="M1466 151.026V182.94" stroke="#EC641D" stroke-width="2.65953"/>
<circle cx="1466" cy="151.026" r="7.97858" fill="#EC641D" stroke="#EC641D" stroke-width="1.77302"/>
<circle cx="1466" cy="180.281" r="7.97858" fill="#EC641D" stroke="#EC641D" stroke-width="1.77302"/>
<path d="M1467.62 179.093L1439.98 195.05" stroke="#EC641D" stroke-width="2.65953"/>
<circle cx="1439.98" cy="195.05" r="7.97858" transform="rotate(60 1439.98 195.05)" fill="#EC641D" stroke="#EC641D" stroke-width="1.77302"/>
<path d="M1464.22 179.094L1491.86 195.051" stroke="#EC641D" stroke-width="2.65953"/>
<circle cx="8.86509" cy="8.86509" r="7.97858" transform="matrix(-0.5 0.866025 0.866025 0.5 1488.62 182.941)" fill="#EC641D" stroke="#EC641D" stroke-width="1.77302"/>
<path d="M1153.12 694.026V725.94" stroke="#EC641D" stroke-width="5.41678"/>
<circle cx="1153.12" cy="694.026" r="6.1568" fill="#EC641D" stroke="#EC641D" stroke-width="5.41678"/>
<circle cx="1153.12" cy="723.281" r="6.1568" fill="#EC641D" stroke="#EC641D" stroke-width="5.41678"/>
<path d="M1154.75 722.093L1127.11 738.051" stroke="#EC641D" stroke-width="5.41678"/>
<circle cx="1127.12" cy="738.051" r="6.1568" transform="rotate(60 1127.12 738.051)" fill="#EC641D" stroke="#EC641D" stroke-width="5.41678"/>
<path d="M1151.35 722.094L1178.99 738.052" stroke="#EC641D" stroke-width="5.41678"/>
<circle cx="8.86519" cy="8.86519" r="6.1568" transform="matrix(-0.5 0.866025 0.866025 0.5 1175.74 725.941)" fill="#EC641D" stroke="#EC641D" stroke-width="5.41678"/>
<path d="M1417.21 994L1410.04 974.12H1413.26L1419.11 990.64L1424.96 974.12H1428.18L1420.99 994H1417.21ZM1433.63 994.336C1432.08 994.336 1430.84 993.981 1429.91 993.272C1428.99 992.563 1428.54 991.564 1428.54 990.276C1428.54 988.988 1428.92 987.989 1429.69 987.28C1430.47 986.552 1431.67 986.029 1433.3 985.712L1438.42 984.732C1438.42 983.575 1438.15 982.716 1437.61 982.156C1437.07 981.577 1436.27 981.288 1435.2 981.288C1434.25 981.288 1433.5 981.503 1432.96 981.932C1432.42 982.343 1432.05 982.959 1431.84 983.78L1428.79 983.584C1429.07 982.091 1429.76 980.915 1430.86 980.056C1431.98 979.197 1433.43 978.768 1435.2 978.768C1437.22 978.768 1438.75 979.309 1439.79 980.392C1440.86 981.456 1441.39 982.959 1441.39 984.9V990.696C1441.39 991.051 1441.45 991.303 1441.56 991.452C1441.69 991.583 1441.89 991.648 1442.17 991.648H1442.71V994C1442.61 994.019 1442.46 994.037 1442.26 994.056C1442.05 994.075 1441.84 994.084 1441.61 994.084C1440.98 994.084 1440.43 993.981 1439.96 993.776C1439.51 993.571 1439.18 993.235 1438.95 992.768C1438.73 992.283 1438.62 991.639 1438.62 990.836L1438.93 990.976C1438.78 991.629 1438.45 992.208 1437.95 992.712C1437.46 993.216 1436.83 993.617 1436.07 993.916C1435.32 994.196 1434.51 994.336 1433.63 994.336ZM1434.11 991.984C1435.01 991.984 1435.77 991.816 1436.41 991.48C1437.04 991.125 1437.53 990.64 1437.89 990.024C1438.24 989.408 1438.42 988.708 1438.42 987.924V986.972L1434.05 987.812C1433.16 987.98 1432.52 988.251 1432.15 988.624C1431.79 988.979 1431.62 989.436 1431.62 989.996C1431.62 990.631 1431.83 991.125 1432.26 991.48C1432.71 991.816 1433.33 991.984 1434.11 991.984ZM1448.27 994C1447.3 994 1446.51 993.748 1445.92 993.244C1445.32 992.74 1445.02 991.937 1445.02 990.836V974.12H1447.99V990.556C1447.99 990.892 1448.07 991.144 1448.24 991.312C1448.43 991.48 1448.69 991.564 1449.02 991.564H1450.2V994H1448.27ZM1452.7 994V979.104H1455.67V994H1452.7ZM1452.65 976.948V973.98H1455.73V976.948H1452.65ZM1464.89 994.336C1463.62 994.336 1462.51 994.019 1461.55 993.384C1460.62 992.749 1459.9 991.853 1459.4 990.696C1458.91 989.52 1458.67 988.139 1458.67 986.552C1458.67 984.965 1458.92 983.593 1459.43 982.436C1459.93 981.26 1460.65 980.355 1461.58 979.72C1462.52 979.085 1463.62 978.768 1464.89 978.768C1465.91 978.768 1466.83 978.983 1467.63 979.412C1468.43 979.841 1469.04 980.439 1469.45 981.204V974.12H1472.42V994H1469.65L1469.56 991.76C1469.15 992.563 1468.53 993.197 1467.69 993.664C1466.86 994.112 1465.93 994.336 1464.89 994.336ZM1465.67 991.76C1466.47 991.76 1467.15 991.555 1467.71 991.144C1468.27 990.733 1468.7 990.136 1469 989.352C1469.3 988.568 1469.45 987.635 1469.45 986.552C1469.45 985.432 1469.3 984.489 1469 983.724C1468.7 982.94 1468.27 982.352 1467.71 981.96C1467.15 981.549 1466.47 981.344 1465.67 981.344C1464.48 981.344 1463.52 981.811 1462.81 982.744C1462.1 983.659 1461.75 984.928 1461.75 986.552C1461.75 988.157 1462.1 989.427 1462.81 990.36C1463.52 991.293 1464.48 991.76 1465.67 991.76ZM1480.53 994.336C1478.98 994.336 1477.74 993.981 1476.8 993.272C1475.89 992.563 1475.43 991.564 1475.43 990.276C1475.43 988.988 1475.81 987.989 1476.58 987.28C1477.36 986.552 1478.57 986.029 1480.19 985.712L1485.32 984.732C1485.32 983.575 1485.05 982.716 1484.5 982.156C1483.96 981.577 1483.16 981.288 1482.1 981.288C1481.14 981.288 1480.4 981.503 1479.86 981.932C1479.31 982.343 1478.94 982.959 1478.74 983.78L1475.68 983.584C1475.96 982.091 1476.65 980.915 1477.76 980.056C1478.88 979.197 1480.32 978.768 1482.1 978.768C1484.11 978.768 1485.64 979.309 1486.69 980.392C1487.75 981.456 1488.28 982.959 1488.28 984.9V990.696C1488.28 991.051 1488.34 991.303 1488.45 991.452C1488.58 991.583 1488.79 991.648 1489.07 991.648H1489.6V994C1489.51 994.019 1489.36 994.037 1489.15 994.056C1488.95 994.075 1488.73 994.084 1488.51 994.084C1487.87 994.084 1487.32 993.981 1486.86 993.776C1486.41 993.571 1486.07 993.235 1485.85 992.768C1485.62 992.283 1485.51 991.639 1485.51 990.836L1485.82 990.976C1485.67 991.629 1485.34 992.208 1484.84 992.712C1484.35 993.216 1483.73 993.617 1482.96 993.916C1482.22 994.196 1481.41 994.336 1480.53 994.336ZM1481 991.984C1481.9 991.984 1482.67 991.816 1483.3 991.48C1483.93 991.125 1484.43 990.64 1484.78 990.024C1485.14 989.408 1485.32 988.708 1485.32 987.924V986.972L1480.95 987.812C1480.05 987.98 1479.42 988.251 1479.04 988.624C1478.69 988.979 1478.51 989.436 1478.51 989.996C1478.51 990.631 1478.73 991.125 1479.16 991.48C1479.6 991.816 1480.22 991.984 1481 991.984ZM1497.05 994C1495.63 994 1494.59 993.673 1493.92 993.02C1493.24 992.367 1492.91 991.349 1492.91 989.968V975.604H1495.88V989.744C1495.88 990.435 1496.03 990.911 1496.32 991.172C1496.62 991.433 1497.08 991.564 1497.7 991.564H1499.82V994H1497.05ZM1490.64 981.54V979.104H1499.82V981.54H1490.64ZM1508.55 994.336C1507.13 994.336 1505.89 994.019 1504.82 993.384C1503.76 992.749 1502.94 991.844 1502.36 990.668C1501.78 989.492 1501.49 988.12 1501.49 986.552C1501.49 984.965 1501.78 983.593 1502.36 982.436C1502.94 981.279 1503.76 980.383 1504.82 979.748C1505.89 979.095 1507.13 978.768 1508.55 978.768C1509.97 978.768 1511.21 979.095 1512.27 979.748C1513.33 980.383 1514.16 981.279 1514.73 982.436C1515.31 983.593 1515.6 984.965 1515.6 986.552C1515.6 988.12 1515.31 989.492 1514.73 990.668C1514.16 991.844 1513.33 992.749 1512.27 993.384C1511.21 994.019 1509.97 994.336 1508.55 994.336ZM1508.55 991.76C1509.82 991.76 1510.8 991.303 1511.49 990.388C1512.18 989.455 1512.52 988.176 1512.52 986.552C1512.52 984.928 1512.18 983.659 1511.49 982.744C1510.8 981.811 1509.82 981.344 1508.55 981.344C1507.3 981.344 1506.32 981.811 1505.61 982.744C1504.92 983.659 1504.57 984.928 1504.57 986.552C1504.57 988.176 1504.92 989.455 1505.61 990.388C1506.32 991.303 1507.3 991.76 1508.55 991.76ZM1518.6 994V979.104H1521.32L1521.43 983.052L1521.18 982.968C1521.38 981.624 1521.79 980.644 1522.41 980.028C1523.04 979.412 1523.89 979.104 1524.96 979.104H1526.39V981.764H1524.96C1524.21 981.764 1523.59 981.885 1523.08 982.128C1522.58 982.371 1522.2 982.744 1521.93 983.248C1521.69 983.752 1521.57 984.405 1521.57 985.208V994H1518.6ZM1423.86 1022V1002.12H1427.7L1436.88 1018.33V1002.12H1439.91V1022H1435.93L1426.89 1006.15V1022H1423.86ZM1450.28 1022.34C1448.86 1022.34 1447.62 1022.02 1446.55 1021.38C1445.49 1020.75 1444.67 1019.84 1444.09 1018.67C1443.51 1017.49 1443.22 1016.12 1443.22 1014.55C1443.22 1012.97 1443.51 1011.59 1444.09 1010.44C1444.67 1009.28 1445.49 1008.38 1446.55 1007.75C1447.62 1007.09 1448.86 1006.77 1450.28 1006.77C1451.7 1006.77 1452.94 1007.09 1454 1007.75C1455.06 1008.38 1455.89 1009.28 1456.46 1010.44C1457.04 1011.59 1457.33 1012.97 1457.33 1014.55C1457.33 1016.12 1457.04 1017.49 1456.46 1018.67C1455.89 1019.84 1455.06 1020.75 1454 1021.38C1452.94 1022.02 1451.7 1022.34 1450.28 1022.34ZM1450.28 1019.76C1451.55 1019.76 1452.53 1019.3 1453.22 1018.39C1453.91 1017.45 1454.25 1016.18 1454.25 1014.55C1454.25 1012.93 1453.91 1011.66 1453.22 1010.74C1452.53 1009.81 1451.55 1009.34 1450.28 1009.34C1449.03 1009.34 1448.05 1009.81 1447.34 1010.74C1446.65 1011.66 1446.3 1012.93 1446.3 1014.55C1446.3 1016.18 1446.65 1017.45 1447.34 1018.39C1448.05 1019.3 1449.03 1019.76 1450.28 1019.76ZM1465.62 1022.34C1464.36 1022.34 1463.24 1022.02 1462.29 1021.38C1461.36 1020.75 1460.64 1019.85 1460.14 1018.7C1459.65 1017.52 1459.41 1016.14 1459.41 1014.55C1459.41 1012.97 1459.66 1011.59 1460.16 1010.44C1460.67 1009.26 1461.39 1008.35 1462.32 1007.72C1463.25 1007.09 1464.36 1006.77 1465.62 1006.77C1466.65 1006.77 1467.57 1006.98 1468.37 1007.41C1469.17 1007.84 1469.78 1008.44 1470.19 1009.2V1002.12H1473.16V1022H1470.38L1470.3 1019.76C1469.89 1020.56 1469.26 1021.2 1468.42 1021.66C1467.6 1022.11 1466.67 1022.34 1465.62 1022.34ZM1466.41 1019.76C1467.21 1019.76 1467.89 1019.55 1468.45 1019.14C1469.01 1018.73 1469.44 1018.14 1469.74 1017.35C1470.04 1016.57 1470.19 1015.63 1470.19 1014.55C1470.19 1013.43 1470.04 1012.49 1469.74 1011.72C1469.44 1010.94 1469.01 1010.35 1468.45 1009.96C1467.89 1009.55 1467.21 1009.34 1466.41 1009.34C1465.21 1009.34 1464.26 1009.81 1463.55 1010.74C1462.84 1011.66 1462.49 1012.93 1462.49 1014.55C1462.49 1016.16 1462.84 1017.43 1463.55 1018.36C1464.26 1019.29 1465.21 1019.76 1466.41 1019.76ZM1483.23 1022.34C1481.77 1022.34 1480.51 1022.02 1479.45 1021.38C1478.4 1020.75 1477.59 1019.84 1477.01 1018.67C1476.45 1017.49 1476.17 1016.12 1476.17 1014.55C1476.17 1012.98 1476.45 1011.62 1477.01 1010.46C1477.59 1009.29 1478.4 1008.38 1479.45 1007.75C1480.49 1007.09 1481.72 1006.77 1483.14 1006.77C1484.49 1006.77 1485.67 1007.09 1486.7 1007.72C1487.72 1008.34 1488.52 1009.23 1489.08 1010.41C1489.66 1011.58 1489.95 1013 1489.95 1014.66V1015.42H1479.25C1479.32 1016.88 1479.71 1017.97 1480.4 1018.7C1481.11 1019.42 1482.06 1019.79 1483.25 1019.79C1484.13 1019.79 1484.86 1019.58 1485.44 1019.17C1486.02 1018.76 1486.42 1018.21 1486.64 1017.52L1489.72 1017.72C1489.33 1019.1 1488.56 1020.22 1487.4 1021.08C1486.26 1021.92 1484.87 1022.34 1483.23 1022.34ZM1479.25 1013.18H1486.81C1486.72 1011.85 1486.33 1010.87 1485.66 1010.24C1485.01 1009.61 1484.17 1009.29 1483.14 1009.29C1482.08 1009.29 1481.2 1009.62 1480.51 1010.3C1479.84 1010.95 1479.42 1011.91 1479.25 1013.18ZM1508.74 1022V1017.86H1498.72V1015.28L1508.38 1002.12H1511.77V1015.11H1514.2V1017.86H1511.77V1022H1508.74ZM1502.16 1015.11H1508.74V1006.32L1502.16 1015.11Z" fill="#EC641D"/>
<path d="M1418.21 79L1411.04 59.12H1414.26L1420.11 75.64L1425.96 59.12H1429.18L1421.99 79H1418.21ZM1434.63 79.336C1433.08 79.336 1431.84 78.9813 1430.91 78.272C1429.99 77.5627 1429.54 76.564 1429.54 75.276C1429.54 73.988 1429.92 72.9893 1430.69 72.28C1431.47 71.552 1432.67 71.0293 1434.3 70.712L1439.42 69.732C1439.42 68.5747 1439.15 67.716 1438.61 67.156C1438.07 66.5773 1437.27 66.288 1436.2 66.288C1435.25 66.288 1434.5 66.5027 1433.96 66.932C1433.42 67.3427 1433.05 67.9587 1432.84 68.78L1429.79 68.584C1430.07 67.0907 1430.76 65.9147 1431.86 65.056C1432.98 64.1973 1434.43 63.768 1436.2 63.768C1438.22 63.768 1439.75 64.3093 1440.79 65.392C1441.86 66.456 1442.39 67.9587 1442.39 69.9V75.696C1442.39 76.0507 1442.45 76.3027 1442.56 76.452C1442.69 76.5827 1442.89 76.648 1443.17 76.648H1443.71V79C1443.61 79.0187 1443.46 79.0373 1443.26 79.056C1443.05 79.0747 1442.84 79.084 1442.61 79.084C1441.98 79.084 1441.43 78.9813 1440.96 78.776C1440.51 78.5707 1440.18 78.2347 1439.95 77.768C1439.73 77.2827 1439.62 76.6387 1439.62 75.836L1439.93 75.976C1439.78 76.6293 1439.45 77.208 1438.95 77.712C1438.46 78.216 1437.83 78.6173 1437.07 78.916C1436.32 79.196 1435.51 79.336 1434.63 79.336ZM1435.11 76.984C1436.01 76.984 1436.77 76.816 1437.41 76.48C1438.04 76.1253 1438.53 75.64 1438.89 75.024C1439.24 74.408 1439.42 73.708 1439.42 72.924V71.972L1435.05 72.812C1434.16 72.98 1433.52 73.2507 1433.15 73.624C1432.79 73.9787 1432.62 74.436 1432.62 74.996C1432.62 75.6307 1432.83 76.1253 1433.26 76.48C1433.71 76.816 1434.33 76.984 1435.11 76.984ZM1449.27 79C1448.3 79 1447.51 78.748 1446.92 78.244C1446.32 77.74 1446.02 76.9373 1446.02 75.836V59.12H1448.99V75.556C1448.99 75.892 1449.07 76.144 1449.24 76.312C1449.43 76.48 1449.69 76.564 1450.02 76.564H1451.2V79H1449.27ZM1453.7 79V64.104H1456.67V79H1453.7ZM1453.65 61.948V58.98H1456.73V61.948H1453.65ZM1465.89 79.336C1464.62 79.336 1463.51 79.0187 1462.55 78.384C1461.62 77.7493 1460.9 76.8533 1460.4 75.696C1459.91 74.52 1459.67 73.1387 1459.67 71.552C1459.67 69.9653 1459.92 68.5933 1460.43 67.436C1460.93 66.26 1461.65 65.3547 1462.58 64.72C1463.52 64.0853 1464.62 63.768 1465.89 63.768C1466.91 63.768 1467.83 63.9827 1468.63 64.412C1469.43 64.8413 1470.04 65.4387 1470.45 66.204V59.12H1473.42V79H1470.65L1470.56 76.76C1470.15 77.5627 1469.53 78.1973 1468.69 78.664C1467.86 79.112 1466.93 79.336 1465.89 79.336ZM1466.67 76.76C1467.47 76.76 1468.15 76.5547 1468.71 76.144C1469.27 75.7333 1469.7 75.136 1470 74.352C1470.3 73.568 1470.45 72.6347 1470.45 71.552C1470.45 70.432 1470.3 69.4893 1470 68.724C1469.7 67.94 1469.27 67.352 1468.71 66.96C1468.15 66.5493 1467.47 66.344 1466.67 66.344C1465.48 66.344 1464.52 66.8107 1463.81 67.744C1463.1 68.6587 1462.75 69.928 1462.75 71.552C1462.75 73.1573 1463.1 74.4267 1463.81 75.36C1464.52 76.2933 1465.48 76.76 1466.67 76.76ZM1481.53 79.336C1479.98 79.336 1478.74 78.9813 1477.8 78.272C1476.89 77.5627 1476.43 76.564 1476.43 75.276C1476.43 73.988 1476.81 72.9893 1477.58 72.28C1478.36 71.552 1479.57 71.0293 1481.19 70.712L1486.32 69.732C1486.32 68.5747 1486.05 67.716 1485.5 67.156C1484.96 66.5773 1484.16 66.288 1483.1 66.288C1482.14 66.288 1481.4 66.5027 1480.86 66.932C1480.31 67.3427 1479.94 67.9587 1479.74 68.78L1476.68 68.584C1476.96 67.0907 1477.65 65.9147 1478.76 65.056C1479.88 64.1973 1481.32 63.768 1483.1 63.768C1485.11 63.768 1486.64 64.3093 1487.69 65.392C1488.75 66.456 1489.28 67.9587 1489.28 69.9V75.696C1489.28 76.0507 1489.34 76.3027 1489.45 76.452C1489.58 76.5827 1489.79 76.648 1490.07 76.648H1490.6V79C1490.51 79.0187 1490.36 79.0373 1490.15 79.056C1489.95 79.0747 1489.73 79.084 1489.51 79.084C1488.87 79.084 1488.32 78.9813 1487.86 78.776C1487.41 78.5707 1487.07 78.2347 1486.85 77.768C1486.62 77.2827 1486.51 76.6387 1486.51 75.836L1486.82 75.976C1486.67 76.6293 1486.34 77.208 1485.84 77.712C1485.35 78.216 1484.73 78.6173 1483.96 78.916C1483.22 79.196 1482.41 79.336 1481.53 79.336ZM1482 76.984C1482.9 76.984 1483.67 76.816 1484.3 76.48C1484.93 76.1253 1485.43 75.64 1485.78 75.024C1486.14 74.408 1486.32 73.708 1486.32 72.924V71.972L1481.95 72.812C1481.05 72.98 1480.42 73.2507 1480.04 73.624C1479.69 73.9787 1479.51 74.436 1479.51 74.996C1479.51 75.6307 1479.73 76.1253 1480.16 76.48C1480.6 76.816 1481.22 76.984 1482 76.984ZM1498.05 79C1496.63 79 1495.59 78.6733 1494.92 78.02C1494.24 77.3667 1493.91 76.3493 1493.91 74.968V60.604H1496.88V74.744C1496.88 75.4347 1497.03 75.9107 1497.32 76.172C1497.62 76.4333 1498.08 76.564 1498.7 76.564H1500.82V79H1498.05ZM1491.64 66.54V64.104H1500.82V66.54H1491.64ZM1509.55 79.336C1508.13 79.336 1506.89 79.0187 1505.82 78.384C1504.76 77.7493 1503.94 76.844 1503.36 75.668C1502.78 74.492 1502.49 73.12 1502.49 71.552C1502.49 69.9653 1502.78 68.5933 1503.36 67.436C1503.94 66.2787 1504.76 65.3827 1505.82 64.748C1506.89 64.0947 1508.13 63.768 1509.55 63.768C1510.97 63.768 1512.21 64.0947 1513.27 64.748C1514.33 65.3827 1515.16 66.2787 1515.73 67.436C1516.31 68.5933 1516.6 69.9653 1516.6 71.552C1516.6 73.12 1516.31 74.492 1515.73 75.668C1515.16 76.844 1514.33 77.7493 1513.27 78.384C1512.21 79.0187 1510.97 79.336 1509.55 79.336ZM1509.55 76.76C1510.82 76.76 1511.8 76.3027 1512.49 75.388C1513.18 74.4547 1513.52 73.176 1513.52 71.552C1513.52 69.928 1513.18 68.6587 1512.49 67.744C1511.8 66.8107 1510.82 66.344 1509.55 66.344C1508.3 66.344 1507.32 66.8107 1506.61 67.744C1505.92 68.6587 1505.57 69.928 1505.57 71.552C1505.57 73.176 1505.92 74.4547 1506.61 75.388C1507.32 76.3027 1508.3 76.76 1509.55 76.76ZM1519.6 79V64.104H1522.32L1522.43 68.052L1522.18 67.968C1522.38 66.624 1522.79 65.644 1523.41 65.028C1524.04 64.412 1524.89 64.104 1525.96 64.104H1527.39V66.764H1525.96C1525.21 66.764 1524.59 66.8853 1524.08 67.128C1523.58 67.3707 1523.2 67.744 1522.93 68.248C1522.69 68.752 1522.57 69.4053 1522.57 70.208V79H1519.6ZM1427.98 107V87.12H1431.82L1441 103.332V87.12H1444.02V107H1440.05L1431 91.152V107H1427.98ZM1454.39 107.336C1452.98 107.336 1451.73 107.019 1450.67 106.384C1449.61 105.749 1448.78 104.844 1448.21 103.668C1447.63 102.492 1447.34 101.12 1447.34 99.552C1447.34 97.9653 1447.63 96.5933 1448.21 95.436C1448.78 94.2787 1449.61 93.3827 1450.67 92.748C1451.73 92.0947 1452.98 91.768 1454.39 91.768C1455.81 91.768 1457.05 92.0947 1458.12 92.748C1459.18 93.3827 1460 94.2787 1460.58 95.436C1461.16 96.5933 1461.45 97.9653 1461.45 99.552C1461.45 101.12 1461.16 102.492 1460.58 103.668C1460 104.844 1459.18 105.749 1458.12 106.384C1457.05 107.019 1455.81 107.336 1454.39 107.336ZM1454.39 104.76C1455.66 104.76 1456.64 104.303 1457.33 103.388C1458.02 102.455 1458.37 101.176 1458.37 99.552C1458.37 97.928 1458.02 96.6587 1457.33 95.744C1456.64 94.8107 1455.66 94.344 1454.39 94.344C1453.14 94.344 1452.16 94.8107 1451.45 95.744C1450.76 96.6587 1450.42 97.928 1450.42 99.552C1450.42 101.176 1450.76 102.455 1451.45 103.388C1452.16 104.303 1453.14 104.76 1454.39 104.76ZM1469.74 107.336C1468.47 107.336 1467.36 107.019 1466.41 106.384C1465.48 105.749 1464.76 104.853 1464.25 103.696C1463.77 102.52 1463.53 101.139 1463.53 99.552C1463.53 97.9653 1463.78 96.5933 1464.28 95.436C1464.79 94.26 1465.5 93.3547 1466.44 92.72C1467.37 92.0853 1468.47 91.768 1469.74 91.768C1470.77 91.768 1471.68 91.9827 1472.49 92.412C1473.29 92.8413 1473.89 93.4387 1474.31 94.204V87.12H1477.27V107H1474.5L1474.42 104.76C1474.01 105.563 1473.38 106.197 1472.54 106.664C1471.72 107.112 1470.79 107.336 1469.74 107.336ZM1470.53 104.76C1471.33 104.76 1472.01 104.555 1472.57 104.144C1473.13 103.733 1473.56 103.136 1473.86 102.352C1474.16 101.568 1474.31 100.635 1474.31 99.552C1474.31 98.432 1474.16 97.4893 1473.86 96.724C1473.56 95.94 1473.13 95.352 1472.57 94.96C1472.01 94.5493 1471.33 94.344 1470.53 94.344C1469.33 94.344 1468.38 94.8107 1467.67 95.744C1466.96 96.6587 1466.61 97.928 1466.61 99.552C1466.61 101.157 1466.96 102.427 1467.67 103.36C1468.38 104.293 1469.33 104.76 1470.53 104.76ZM1487.34 107.336C1485.89 107.336 1484.63 107.019 1483.56 106.384C1482.52 105.749 1481.71 104.844 1481.13 103.668C1480.57 102.492 1480.29 101.12 1480.29 99.552C1480.29 97.984 1480.57 96.6213 1481.13 95.464C1481.71 94.288 1482.52 93.3827 1483.56 92.748C1484.61 92.0947 1485.84 91.768 1487.26 91.768C1488.6 91.768 1489.79 92.0853 1490.82 92.72C1491.84 93.336 1492.64 94.232 1493.2 95.408C1493.77 96.584 1494.06 98.0027 1494.06 99.664V100.42H1483.37C1483.44 101.876 1483.82 102.968 1484.52 103.696C1485.22 104.424 1486.18 104.788 1487.37 104.788C1488.25 104.788 1488.98 104.583 1489.56 104.172C1490.13 103.761 1490.54 103.211 1490.76 102.52L1493.84 102.716C1493.45 104.097 1492.67 105.217 1491.52 106.076C1490.38 106.916 1488.99 107.336 1487.34 107.336ZM1483.37 98.18H1490.93C1490.83 96.8547 1490.45 95.8747 1489.78 95.24C1489.13 94.6053 1488.29 94.288 1487.26 94.288C1486.2 94.288 1485.32 94.624 1484.63 95.296C1483.96 95.9493 1483.54 96.9107 1483.37 98.18ZM1507.34 107V92.832H1503.14V90.396H1504.85C1505.6 90.396 1506.21 90.3027 1506.67 90.116C1507.14 89.9107 1507.48 89.5747 1507.68 89.108C1507.89 88.6227 1507.99 87.96 1507.99 87.12H1510.37V107H1507.34Z" fill="#EC641D"/>
<path d="M1102.21 813L1095.04 793.12H1098.26L1104.11 809.64L1109.96 793.12H1113.18L1105.99 813H1102.21ZM1118.63 813.336C1117.08 813.336 1115.84 812.981 1114.91 812.272C1113.99 811.563 1113.54 810.564 1113.54 809.276C1113.54 807.988 1113.92 806.989 1114.69 806.28C1115.47 805.552 1116.67 805.029 1118.3 804.712L1123.42 803.732C1123.42 802.575 1123.15 801.716 1122.61 801.156C1122.07 800.577 1121.27 800.288 1120.2 800.288C1119.25 800.288 1118.5 800.503 1117.96 800.932C1117.42 801.343 1117.05 801.959 1116.84 802.78L1113.79 802.584C1114.07 801.091 1114.76 799.915 1115.86 799.056C1116.98 798.197 1118.43 797.768 1120.2 797.768C1122.22 797.768 1123.75 798.309 1124.79 799.392C1125.86 800.456 1126.39 801.959 1126.39 803.9V809.696C1126.39 810.051 1126.45 810.303 1126.56 810.452C1126.69 810.583 1126.89 810.648 1127.17 810.648H1127.71V813C1127.61 813.019 1127.46 813.037 1127.26 813.056C1127.05 813.075 1126.84 813.084 1126.61 813.084C1125.98 813.084 1125.43 812.981 1124.96 812.776C1124.51 812.571 1124.18 812.235 1123.95 811.768C1123.73 811.283 1123.62 810.639 1123.62 809.836L1123.93 809.976C1123.78 810.629 1123.45 811.208 1122.95 811.712C1122.46 812.216 1121.83 812.617 1121.07 812.916C1120.32 813.196 1119.51 813.336 1118.63 813.336ZM1119.11 810.984C1120.01 810.984 1120.77 810.816 1121.41 810.48C1122.04 810.125 1122.53 809.64 1122.89 809.024C1123.24 808.408 1123.42 807.708 1123.42 806.924V805.972L1119.05 806.812C1118.16 806.98 1117.52 807.251 1117.15 807.624C1116.79 807.979 1116.62 808.436 1116.62 808.996C1116.62 809.631 1116.83 810.125 1117.26 810.48C1117.71 810.816 1118.33 810.984 1119.11 810.984ZM1133.27 813C1132.3 813 1131.51 812.748 1130.92 812.244C1130.32 811.74 1130.02 810.937 1130.02 809.836V793.12H1132.99V809.556C1132.99 809.892 1133.07 810.144 1133.24 810.312C1133.43 810.48 1133.69 810.564 1134.02 810.564H1135.2V813H1133.27ZM1137.7 813V798.104H1140.67V813H1137.7ZM1137.65 795.948V792.98H1140.73V795.948H1137.65ZM1149.89 813.336C1148.62 813.336 1147.51 813.019 1146.55 812.384C1145.62 811.749 1144.9 810.853 1144.4 809.696C1143.91 808.52 1143.67 807.139 1143.67 805.552C1143.67 803.965 1143.92 802.593 1144.43 801.436C1144.93 800.26 1145.65 799.355 1146.58 798.72C1147.52 798.085 1148.62 797.768 1149.89 797.768C1150.91 797.768 1151.83 797.983 1152.63 798.412C1153.43 798.841 1154.04 799.439 1154.45 800.204V793.12H1157.42V813H1154.65L1154.56 810.76C1154.15 811.563 1153.53 812.197 1152.69 812.664C1151.86 813.112 1150.93 813.336 1149.89 813.336ZM1150.67 810.76C1151.47 810.76 1152.15 810.555 1152.71 810.144C1153.27 809.733 1153.7 809.136 1154 808.352C1154.3 807.568 1154.45 806.635 1154.45 805.552C1154.45 804.432 1154.3 803.489 1154 802.724C1153.7 801.94 1153.27 801.352 1152.71 800.96C1152.15 800.549 1151.47 800.344 1150.67 800.344C1149.48 800.344 1148.52 800.811 1147.81 801.744C1147.1 802.659 1146.75 803.928 1146.75 805.552C1146.75 807.157 1147.1 808.427 1147.81 809.36C1148.52 810.293 1149.48 810.76 1150.67 810.76ZM1165.53 813.336C1163.98 813.336 1162.74 812.981 1161.8 812.272C1160.89 811.563 1160.43 810.564 1160.43 809.276C1160.43 807.988 1160.81 806.989 1161.58 806.28C1162.36 805.552 1163.57 805.029 1165.19 804.712L1170.32 803.732C1170.32 802.575 1170.05 801.716 1169.5 801.156C1168.96 800.577 1168.16 800.288 1167.1 800.288C1166.14 800.288 1165.4 800.503 1164.86 800.932C1164.31 801.343 1163.94 801.959 1163.74 802.78L1160.68 802.584C1160.96 801.091 1161.65 799.915 1162.76 799.056C1163.88 798.197 1165.32 797.768 1167.1 797.768C1169.11 797.768 1170.64 798.309 1171.69 799.392C1172.75 800.456 1173.28 801.959 1173.28 803.9V809.696C1173.28 810.051 1173.34 810.303 1173.45 810.452C1173.58 810.583 1173.79 810.648 1174.07 810.648H1174.6V813C1174.51 813.019 1174.36 813.037 1174.15 813.056C1173.95 813.075 1173.73 813.084 1173.51 813.084C1172.87 813.084 1172.32 812.981 1171.86 812.776C1171.41 812.571 1171.07 812.235 1170.85 811.768C1170.62 811.283 1170.51 810.639 1170.51 809.836L1170.82 809.976C1170.67 810.629 1170.34 811.208 1169.84 811.712C1169.35 812.216 1168.73 812.617 1167.96 812.916C1167.22 813.196 1166.41 813.336 1165.53 813.336ZM1166 810.984C1166.9 810.984 1167.67 810.816 1168.3 810.48C1168.93 810.125 1169.43 809.64 1169.78 809.024C1170.14 808.408 1170.32 807.708 1170.32 806.924V805.972L1165.95 806.812C1165.05 806.98 1164.42 807.251 1164.04 807.624C1163.69 807.979 1163.51 808.436 1163.51 808.996C1163.51 809.631 1163.73 810.125 1164.16 810.48C1164.6 810.816 1165.22 810.984 1166 810.984ZM1182.05 813C1180.63 813 1179.59 812.673 1178.92 812.02C1178.24 811.367 1177.91 810.349 1177.91 808.968V794.604H1180.88V808.744C1180.88 809.435 1181.03 809.911 1181.32 810.172C1181.62 810.433 1182.08 810.564 1182.7 810.564H1184.82V813H1182.05ZM1175.64 800.54V798.104H1184.82V800.54H1175.64ZM1193.55 813.336C1192.13 813.336 1190.89 813.019 1189.82 812.384C1188.76 811.749 1187.94 810.844 1187.36 809.668C1186.78 808.492 1186.49 807.12 1186.49 805.552C1186.49 803.965 1186.78 802.593 1187.36 801.436C1187.94 800.279 1188.76 799.383 1189.82 798.748C1190.89 798.095 1192.13 797.768 1193.55 797.768C1194.97 797.768 1196.21 798.095 1197.27 798.748C1198.33 799.383 1199.16 800.279 1199.73 801.436C1200.31 802.593 1200.6 803.965 1200.6 805.552C1200.6 807.12 1200.31 808.492 1199.73 809.668C1199.16 810.844 1198.33 811.749 1197.27 812.384C1196.21 813.019 1194.97 813.336 1193.55 813.336ZM1193.55 810.76C1194.82 810.76 1195.8 810.303 1196.49 809.388C1197.18 808.455 1197.52 807.176 1197.52 805.552C1197.52 803.928 1197.18 802.659 1196.49 801.744C1195.8 800.811 1194.82 800.344 1193.55 800.344C1192.3 800.344 1191.32 800.811 1190.61 801.744C1189.92 802.659 1189.57 803.928 1189.57 805.552C1189.57 807.176 1189.92 808.455 1190.61 809.388C1191.32 810.303 1192.3 810.76 1193.55 810.76ZM1203.6 813V798.104H1206.32L1206.43 802.052L1206.18 801.968C1206.38 800.624 1206.79 799.644 1207.41 799.028C1208.04 798.412 1208.89 798.104 1209.96 798.104H1211.39V800.764H1209.96C1209.21 800.764 1208.59 800.885 1208.08 801.128C1207.58 801.371 1207.2 801.744 1206.93 802.248C1206.69 802.752 1206.57 803.405 1206.57 804.208V813H1203.6ZM1107.24 841V821.12H1111.07L1120.26 837.332V821.12H1123.28V841H1119.3L1110.26 825.152V841H1107.24ZM1133.65 841.336C1132.23 841.336 1130.99 841.019 1129.93 840.384C1128.86 839.749 1128.04 838.844 1127.46 837.668C1126.88 836.492 1126.59 835.12 1126.59 833.552C1126.59 831.965 1126.88 830.593 1127.46 829.436C1128.04 828.279 1128.86 827.383 1129.93 826.748C1130.99 826.095 1132.23 825.768 1133.65 825.768C1135.07 825.768 1136.31 826.095 1137.37 826.748C1138.44 827.383 1139.26 828.279 1139.84 829.436C1140.42 830.593 1140.71 831.965 1140.71 833.552C1140.71 835.12 1140.42 836.492 1139.84 837.668C1139.26 838.844 1138.44 839.749 1137.37 840.384C1136.31 841.019 1135.07 841.336 1133.65 841.336ZM1133.65 838.76C1134.92 838.76 1135.9 838.303 1136.59 837.388C1137.28 836.455 1137.63 835.176 1137.63 833.552C1137.63 831.928 1137.28 830.659 1136.59 829.744C1135.9 828.811 1134.92 828.344 1133.65 828.344C1132.4 828.344 1131.42 828.811 1130.71 829.744C1130.02 830.659 1129.67 831.928 1129.67 833.552C1129.67 835.176 1130.02 836.455 1130.71 837.388C1131.42 838.303 1132.4 838.76 1133.65 838.76ZM1149 841.336C1147.73 841.336 1146.62 841.019 1145.67 840.384C1144.73 839.749 1144.01 838.853 1143.51 837.696C1143.02 836.52 1142.78 835.139 1142.78 833.552C1142.78 831.965 1143.03 830.593 1143.54 829.436C1144.04 828.26 1144.76 827.355 1145.69 826.72C1146.63 826.085 1147.73 825.768 1149 825.768C1150.02 825.768 1150.94 825.983 1151.74 826.412C1152.54 826.841 1153.15 827.439 1153.56 828.204V821.12H1156.53V841H1153.76L1153.67 838.76C1153.26 839.563 1152.64 840.197 1151.8 840.664C1150.98 841.112 1150.04 841.336 1149 841.336ZM1149.78 838.76C1150.58 838.76 1151.27 838.555 1151.83 838.144C1152.39 837.733 1152.81 837.136 1153.11 836.352C1153.41 835.568 1153.56 834.635 1153.56 833.552C1153.56 832.432 1153.41 831.489 1153.11 830.724C1152.81 829.94 1152.39 829.352 1151.83 828.96C1151.27 828.549 1150.58 828.344 1149.78 828.344C1148.59 828.344 1147.63 828.811 1146.93 829.744C1146.22 830.659 1145.86 831.928 1145.86 833.552C1145.86 835.157 1146.22 836.427 1146.93 837.36C1147.63 838.293 1148.59 838.76 1149.78 838.76ZM1166.6 841.336C1165.14 841.336 1163.88 841.019 1162.82 840.384C1161.77 839.749 1160.96 838.844 1160.38 837.668C1159.82 836.492 1159.54 835.12 1159.54 833.552C1159.54 831.984 1159.82 830.621 1160.38 829.464C1160.96 828.288 1161.77 827.383 1162.82 826.748C1163.86 826.095 1165.1 825.768 1166.52 825.768C1167.86 825.768 1169.04 826.085 1170.07 826.72C1171.1 827.336 1171.89 828.232 1172.45 829.408C1173.03 830.584 1173.32 832.003 1173.32 833.664V834.42H1162.62C1162.7 835.876 1163.08 836.968 1163.77 837.696C1164.48 838.424 1165.43 838.788 1166.63 838.788C1167.5 838.788 1168.23 838.583 1168.81 838.172C1169.39 837.761 1169.79 837.211 1170.02 836.52L1173.1 836.716C1172.7 838.097 1171.93 839.217 1170.77 840.076C1169.63 840.916 1168.24 841.336 1166.6 841.336ZM1162.62 832.18H1170.18C1170.09 830.855 1169.71 829.875 1169.04 829.24C1168.38 828.605 1167.54 828.288 1166.52 828.288C1165.45 828.288 1164.57 828.624 1163.88 829.296C1163.21 829.949 1162.79 830.911 1162.62 832.18ZM1183.72 841V821.12H1187.55L1196.74 837.332V821.12H1199.76V841H1195.78L1186.74 825.152V841H1183.72Z" fill="#EC641D"/>
<path d="M1728.21 813L1721.04 793.12H1724.26L1730.11 809.64L1735.96 793.12H1739.18L1731.99 813H1728.21ZM1744.63 813.336C1743.08 813.336 1741.84 812.981 1740.91 812.272C1739.99 811.563 1739.54 810.564 1739.54 809.276C1739.54 807.988 1739.92 806.989 1740.69 806.28C1741.47 805.552 1742.67 805.029 1744.3 804.712L1749.42 803.732C1749.42 802.575 1749.15 801.716 1748.61 801.156C1748.07 800.577 1747.27 800.288 1746.2 800.288C1745.25 800.288 1744.5 800.503 1743.96 800.932C1743.42 801.343 1743.05 801.959 1742.84 802.78L1739.79 802.584C1740.07 801.091 1740.76 799.915 1741.86 799.056C1742.98 798.197 1744.43 797.768 1746.2 797.768C1748.22 797.768 1749.75 798.309 1750.79 799.392C1751.86 800.456 1752.39 801.959 1752.39 803.9V809.696C1752.39 810.051 1752.45 810.303 1752.56 810.452C1752.69 810.583 1752.89 810.648 1753.17 810.648H1753.71V813C1753.61 813.019 1753.46 813.037 1753.26 813.056C1753.05 813.075 1752.84 813.084 1752.61 813.084C1751.98 813.084 1751.43 812.981 1750.96 812.776C1750.51 812.571 1750.18 812.235 1749.95 811.768C1749.73 811.283 1749.62 810.639 1749.62 809.836L1749.93 809.976C1749.78 810.629 1749.45 811.208 1748.95 811.712C1748.46 812.216 1747.83 812.617 1747.07 812.916C1746.32 813.196 1745.51 813.336 1744.63 813.336ZM1745.11 810.984C1746.01 810.984 1746.77 810.816 1747.41 810.48C1748.04 810.125 1748.53 809.64 1748.89 809.024C1749.24 808.408 1749.42 807.708 1749.42 806.924V805.972L1745.05 806.812C1744.16 806.98 1743.52 807.251 1743.15 807.624C1742.79 807.979 1742.62 808.436 1742.62 808.996C1742.62 809.631 1742.83 810.125 1743.26 810.48C1743.71 810.816 1744.33 810.984 1745.11 810.984ZM1759.27 813C1758.3 813 1757.51 812.748 1756.92 812.244C1756.32 811.74 1756.02 810.937 1756.02 809.836V793.12H1758.99V809.556C1758.99 809.892 1759.07 810.144 1759.24 810.312C1759.43 810.48 1759.69 810.564 1760.02 810.564H1761.2V813H1759.27ZM1763.7 813V798.104H1766.67V813H1763.7ZM1763.65 795.948V792.98H1766.73V795.948H1763.65ZM1775.89 813.336C1774.62 813.336 1773.51 813.019 1772.55 812.384C1771.62 811.749 1770.9 810.853 1770.4 809.696C1769.91 808.52 1769.67 807.139 1769.67 805.552C1769.67 803.965 1769.92 802.593 1770.43 801.436C1770.93 800.26 1771.65 799.355 1772.58 798.72C1773.52 798.085 1774.62 797.768 1775.89 797.768C1776.91 797.768 1777.83 797.983 1778.63 798.412C1779.43 798.841 1780.04 799.439 1780.45 800.204V793.12H1783.42V813H1780.65L1780.56 810.76C1780.15 811.563 1779.53 812.197 1778.69 812.664C1777.86 813.112 1776.93 813.336 1775.89 813.336ZM1776.67 810.76C1777.47 810.76 1778.15 810.555 1778.71 810.144C1779.27 809.733 1779.7 809.136 1780 808.352C1780.3 807.568 1780.45 806.635 1780.45 805.552C1780.45 804.432 1780.3 803.489 1780 802.724C1779.7 801.94 1779.27 801.352 1778.71 800.96C1778.15 800.549 1777.47 800.344 1776.67 800.344C1775.48 800.344 1774.52 800.811 1773.81 801.744C1773.1 802.659 1772.75 803.928 1772.75 805.552C1772.75 807.157 1773.1 808.427 1773.81 809.36C1774.52 810.293 1775.48 810.76 1776.67 810.76ZM1791.53 813.336C1789.98 813.336 1788.74 812.981 1787.8 812.272C1786.89 811.563 1786.43 810.564 1786.43 809.276C1786.43 807.988 1786.81 806.989 1787.58 806.28C1788.36 805.552 1789.57 805.029 1791.19 804.712L1796.32 803.732C1796.32 802.575 1796.05 801.716 1795.5 801.156C1794.96 800.577 1794.16 800.288 1793.1 800.288C1792.14 800.288 1791.4 800.503 1790.86 800.932C1790.31 801.343 1789.94 801.959 1789.74 802.78L1786.68 802.584C1786.96 801.091 1787.65 799.915 1788.76 799.056C1789.88 798.197 1791.32 797.768 1793.1 797.768C1795.11 797.768 1796.64 798.309 1797.69 799.392C1798.75 800.456 1799.28 801.959 1799.28 803.9V809.696C1799.28 810.051 1799.34 810.303 1799.45 810.452C1799.58 810.583 1799.79 810.648 1800.07 810.648H1800.6V813C1800.51 813.019 1800.36 813.037 1800.15 813.056C1799.95 813.075 1799.73 813.084 1799.51 813.084C1798.87 813.084 1798.32 812.981 1797.86 812.776C1797.41 812.571 1797.07 812.235 1796.85 811.768C1796.62 811.283 1796.51 810.639 1796.51 809.836L1796.82 809.976C1796.67 810.629 1796.34 811.208 1795.84 811.712C1795.35 812.216 1794.73 812.617 1793.96 812.916C1793.22 813.196 1792.41 813.336 1791.53 813.336ZM1792 810.984C1792.9 810.984 1793.67 810.816 1794.3 810.48C1794.93 810.125 1795.43 809.64 1795.78 809.024C1796.14 808.408 1796.32 807.708 1796.32 806.924V805.972L1791.95 806.812C1791.05 806.98 1790.42 807.251 1790.04 807.624C1789.69 807.979 1789.51 808.436 1789.51 808.996C1789.51 809.631 1789.73 810.125 1790.16 810.48C1790.6 810.816 1791.22 810.984 1792 810.984ZM1808.05 813C1806.63 813 1805.59 812.673 1804.92 812.02C1804.24 811.367 1803.91 810.349 1803.91 808.968V794.604H1806.88V808.744C1806.88 809.435 1807.03 809.911 1807.32 810.172C1807.62 810.433 1808.08 810.564 1808.7 810.564H1810.82V813H1808.05ZM1801.64 800.54V798.104H1810.82V800.54H1801.64ZM1819.55 813.336C1818.13 813.336 1816.89 813.019 1815.82 812.384C1814.76 811.749 1813.94 810.844 1813.36 809.668C1812.78 808.492 1812.49 807.12 1812.49 805.552C1812.49 803.965 1812.78 802.593 1813.36 801.436C1813.94 800.279 1814.76 799.383 1815.82 798.748C1816.89 798.095 1818.13 797.768 1819.55 797.768C1820.97 797.768 1822.21 798.095 1823.27 798.748C1824.33 799.383 1825.16 800.279 1825.73 801.436C1826.31 802.593 1826.6 803.965 1826.6 805.552C1826.6 807.12 1826.31 808.492 1825.73 809.668C1825.16 810.844 1824.33 811.749 1823.27 812.384C1822.21 813.019 1820.97 813.336 1819.55 813.336ZM1819.55 810.76C1820.82 810.76 1821.8 810.303 1822.49 809.388C1823.18 808.455 1823.52 807.176 1823.52 805.552C1823.52 803.928 1823.18 802.659 1822.49 801.744C1821.8 800.811 1820.82 800.344 1819.55 800.344C1818.3 800.344 1817.32 800.811 1816.61 801.744C1815.92 802.659 1815.57 803.928 1815.57 805.552C1815.57 807.176 1815.92 808.455 1816.61 809.388C1817.32 810.303 1818.3 810.76 1819.55 810.76ZM1829.6 813V798.104H1832.32L1832.43 802.052L1832.18 801.968C1832.38 800.624 1832.79 799.644 1833.41 799.028C1834.04 798.412 1834.89 798.104 1835.96 798.104H1837.39V800.764H1835.96C1835.21 800.764 1834.59 800.885 1834.08 801.128C1833.58 801.371 1833.2 801.744 1832.93 802.248C1832.69 802.752 1832.57 803.405 1832.57 804.208V813H1829.6ZM1734.92 841V821.12H1738.75L1747.94 837.332V821.12H1750.96V841H1746.99L1737.94 825.152V841H1734.92ZM1761.33 841.336C1759.91 841.336 1758.67 841.019 1757.61 840.384C1756.54 839.749 1755.72 838.844 1755.14 837.668C1754.56 836.492 1754.28 835.12 1754.28 833.552C1754.28 831.965 1754.56 830.593 1755.14 829.436C1755.72 828.279 1756.54 827.383 1757.61 826.748C1758.67 826.095 1759.91 825.768 1761.33 825.768C1762.75 825.768 1763.99 826.095 1765.06 826.748C1766.12 827.383 1766.94 828.279 1767.52 829.436C1768.1 830.593 1768.39 831.965 1768.39 833.552C1768.39 835.12 1768.1 836.492 1767.52 837.668C1766.94 838.844 1766.12 839.749 1765.06 840.384C1763.99 841.019 1762.75 841.336 1761.33 841.336ZM1761.33 838.76C1762.6 838.76 1763.58 838.303 1764.27 837.388C1764.96 836.455 1765.31 835.176 1765.31 833.552C1765.31 831.928 1764.96 830.659 1764.27 829.744C1763.58 828.811 1762.6 828.344 1761.33 828.344C1760.08 828.344 1759.1 828.811 1758.39 829.744C1757.7 830.659 1757.36 831.928 1757.36 833.552C1757.36 835.176 1757.7 836.455 1758.39 837.388C1759.1 838.303 1760.08 838.76 1761.33 838.76ZM1776.68 841.336C1775.41 841.336 1774.3 841.019 1773.35 840.384C1772.41 839.749 1771.7 838.853 1771.19 837.696C1770.71 836.52 1770.46 835.139 1770.46 833.552C1770.46 831.965 1770.72 830.593 1771.22 829.436C1771.72 828.26 1772.44 827.355 1773.38 826.72C1774.31 826.085 1775.41 825.768 1776.68 825.768C1777.71 825.768 1778.62 825.983 1779.42 826.412C1780.23 826.841 1780.83 827.439 1781.24 828.204V821.12H1784.21V841H1781.44L1781.36 838.76C1780.94 839.563 1780.32 840.197 1779.48 840.664C1778.66 841.112 1777.72 841.336 1776.68 841.336ZM1777.46 838.76C1778.27 838.76 1778.95 838.555 1779.51 838.144C1780.07 837.733 1780.5 837.136 1780.8 836.352C1781.09 835.568 1781.24 834.635 1781.24 833.552C1781.24 832.432 1781.09 831.489 1780.8 830.724C1780.5 829.94 1780.07 829.352 1779.51 828.96C1778.95 828.549 1778.27 828.344 1777.46 828.344C1776.27 828.344 1775.32 828.811 1774.61 829.744C1773.9 830.659 1773.54 831.928 1773.54 833.552C1773.54 835.157 1773.9 836.427 1774.61 837.36C1775.32 838.293 1776.27 838.76 1777.46 838.76ZM1794.28 841.336C1792.82 841.336 1791.56 841.019 1790.5 840.384C1789.46 839.749 1788.64 838.844 1788.06 837.668C1787.5 836.492 1787.22 835.12 1787.22 833.552C1787.22 831.984 1787.5 830.621 1788.06 829.464C1788.64 828.288 1789.46 827.383 1790.5 826.748C1791.55 826.095 1792.78 825.768 1794.2 825.768C1795.54 825.768 1796.73 826.085 1797.75 826.72C1798.78 827.336 1799.57 828.232 1800.13 829.408C1800.71 830.584 1801 832.003 1801 833.664V834.42H1790.3C1790.38 835.876 1790.76 836.968 1791.45 837.696C1792.16 838.424 1793.11 838.788 1794.31 838.788C1795.19 838.788 1795.91 838.583 1796.49 838.172C1797.07 837.761 1797.47 837.211 1797.7 836.52L1800.78 836.716C1800.38 838.097 1799.61 839.217 1798.45 840.076C1797.31 840.916 1795.92 841.336 1794.28 841.336ZM1790.3 832.18H1797.86C1797.77 830.855 1797.39 829.875 1796.72 829.24C1796.06 828.605 1795.22 828.288 1794.2 828.288C1793.13 828.288 1792.26 828.624 1791.56 829.296C1790.89 829.949 1790.47 830.911 1790.3 832.18ZM1817.64 841.448C1815.35 841.448 1813.57 840.916 1812.32 839.852C1811.09 838.788 1810.43 837.388 1810.33 835.652L1813.44 835.484C1813.55 836.623 1813.98 837.444 1814.73 837.948C1815.5 838.433 1816.47 838.676 1817.64 838.676C1818.43 838.676 1819.14 838.573 1819.8 838.368C1820.47 838.144 1821 837.789 1821.39 837.304C1821.8 836.8 1822.01 836.147 1822.01 835.344C1822.01 834.149 1821.61 833.272 1820.81 832.712C1820 832.133 1818.94 831.844 1817.61 831.844H1815.96V829.212H1817.61C1818.68 829.212 1819.56 828.997 1820.27 828.568C1820.98 828.139 1821.34 827.392 1821.34 826.328C1821.34 825.395 1821.04 824.685 1820.44 824.2C1819.84 823.696 1818.93 823.444 1817.7 823.444C1816.5 823.444 1815.6 823.677 1814.98 824.144C1814.37 824.611 1814 825.245 1813.89 826.048L1810.78 825.88C1810.97 824.312 1811.65 823.052 1812.83 822.1C1814.02 821.148 1815.64 820.672 1817.7 820.672C1819.12 820.672 1820.33 820.896 1821.34 821.344C1822.35 821.773 1823.12 822.399 1823.66 823.22C1824.2 824.041 1824.47 825.003 1824.47 826.104C1824.47 827.317 1824.08 828.307 1823.3 829.072C1822.53 829.837 1821.4 830.36 1819.91 830.64V830.136C1821.53 830.341 1822.81 830.92 1823.75 831.872C1824.68 832.805 1825.15 834 1825.15 835.456C1825.15 836.707 1824.83 837.789 1824.19 838.704C1823.56 839.6 1822.68 840.281 1821.56 840.748C1820.44 841.215 1819.14 841.448 1817.64 841.448Z" fill="#EC641D"/>
<path d="M1728.21 261L1721.04 241.12H1724.26L1730.11 257.64L1735.96 241.12H1739.18L1731.99 261H1728.21ZM1744.63 261.336C1743.08 261.336 1741.84 260.981 1740.91 260.272C1739.99 259.563 1739.54 258.564 1739.54 257.276C1739.54 255.988 1739.92 254.989 1740.69 254.28C1741.47 253.552 1742.67 253.029 1744.3 252.712L1749.42 251.732C1749.42 250.575 1749.15 249.716 1748.61 249.156C1748.07 248.577 1747.27 248.288 1746.2 248.288C1745.25 248.288 1744.5 248.503 1743.96 248.932C1743.42 249.343 1743.05 249.959 1742.84 250.78L1739.79 250.584C1740.07 249.091 1740.76 247.915 1741.86 247.056C1742.98 246.197 1744.43 245.768 1746.2 245.768C1748.22 245.768 1749.75 246.309 1750.79 247.392C1751.86 248.456 1752.39 249.959 1752.39 251.9V257.696C1752.39 258.051 1752.45 258.303 1752.56 258.452C1752.69 258.583 1752.89 258.648 1753.17 258.648H1753.71V261C1753.61 261.019 1753.46 261.037 1753.26 261.056C1753.05 261.075 1752.84 261.084 1752.61 261.084C1751.98 261.084 1751.43 260.981 1750.96 260.776C1750.51 260.571 1750.18 260.235 1749.95 259.768C1749.73 259.283 1749.62 258.639 1749.62 257.836L1749.93 257.976C1749.78 258.629 1749.45 259.208 1748.95 259.712C1748.46 260.216 1747.83 260.617 1747.07 260.916C1746.32 261.196 1745.51 261.336 1744.63 261.336ZM1745.11 258.984C1746.01 258.984 1746.77 258.816 1747.41 258.48C1748.04 258.125 1748.53 257.64 1748.89 257.024C1749.24 256.408 1749.42 255.708 1749.42 254.924V253.972L1745.05 254.812C1744.16 254.98 1743.52 255.251 1743.15 255.624C1742.79 255.979 1742.62 256.436 1742.62 256.996C1742.62 257.631 1742.83 258.125 1743.26 258.48C1743.71 258.816 1744.33 258.984 1745.11 258.984ZM1759.27 261C1758.3 261 1757.51 260.748 1756.92 260.244C1756.32 259.74 1756.02 258.937 1756.02 257.836V241.12H1758.99V257.556C1758.99 257.892 1759.07 258.144 1759.24 258.312C1759.43 258.48 1759.69 258.564 1760.02 258.564H1761.2V261H1759.27ZM1763.7 261V246.104H1766.67V261H1763.7ZM1763.65 243.948V240.98H1766.73V243.948H1763.65ZM1775.89 261.336C1774.62 261.336 1773.51 261.019 1772.55 260.384C1771.62 259.749 1770.9 258.853 1770.4 257.696C1769.91 256.52 1769.67 255.139 1769.67 253.552C1769.67 251.965 1769.92 250.593 1770.43 249.436C1770.93 248.26 1771.65 247.355 1772.58 246.72C1773.52 246.085 1774.62 245.768 1775.89 245.768C1776.91 245.768 1777.83 245.983 1778.63 246.412C1779.43 246.841 1780.04 247.439 1780.45 248.204V241.12H1783.42V261H1780.65L1780.56 258.76C1780.15 259.563 1779.53 260.197 1778.69 260.664C1777.86 261.112 1776.93 261.336 1775.89 261.336ZM1776.67 258.76C1777.47 258.76 1778.15 258.555 1778.71 258.144C1779.27 257.733 1779.7 257.136 1780 256.352C1780.3 255.568 1780.45 254.635 1780.45 253.552C1780.45 252.432 1780.3 251.489 1780 250.724C1779.7 249.94 1779.27 249.352 1778.71 248.96C1778.15 248.549 1777.47 248.344 1776.67 248.344C1775.48 248.344 1774.52 248.811 1773.81 249.744C1773.1 250.659 1772.75 251.928 1772.75 253.552C1772.75 255.157 1773.1 256.427 1773.81 257.36C1774.52 258.293 1775.48 258.76 1776.67 258.76ZM1791.53 261.336C1789.98 261.336 1788.74 260.981 1787.8 260.272C1786.89 259.563 1786.43 258.564 1786.43 257.276C1786.43 255.988 1786.81 254.989 1787.58 254.28C1788.36 253.552 1789.57 253.029 1791.19 252.712L1796.32 251.732C1796.32 250.575 1796.05 249.716 1795.5 249.156C1794.96 248.577 1794.16 248.288 1793.1 248.288C1792.14 248.288 1791.4 248.503 1790.86 248.932C1790.31 249.343 1789.94 249.959 1789.74 250.78L1786.68 250.584C1786.96 249.091 1787.65 247.915 1788.76 247.056C1789.88 246.197 1791.32 245.768 1793.1 245.768C1795.11 245.768 1796.64 246.309 1797.69 247.392C1798.75 248.456 1799.28 249.959 1799.28 251.9V257.696C1799.28 258.051 1799.34 258.303 1799.45 258.452C1799.58 258.583 1799.79 258.648 1800.07 258.648H1800.6V261C1800.51 261.019 1800.36 261.037 1800.15 261.056C1799.95 261.075 1799.73 261.084 1799.51 261.084C1798.87 261.084 1798.32 260.981 1797.86 260.776C1797.41 260.571 1797.07 260.235 1796.85 259.768C1796.62 259.283 1796.51 258.639 1796.51 257.836L1796.82 257.976C1796.67 258.629 1796.34 259.208 1795.84 259.712C1795.35 260.216 1794.73 260.617 1793.96 260.916C1793.22 261.196 1792.41 261.336 1791.53 261.336ZM1792 258.984C1792.9 258.984 1793.67 258.816 1794.3 258.48C1794.93 258.125 1795.43 257.64 1795.78 257.024C1796.14 256.408 1796.32 255.708 1796.32 254.924V253.972L1791.95 254.812C1791.05 254.98 1790.42 255.251 1790.04 255.624C1789.69 255.979 1789.51 256.436 1789.51 256.996C1789.51 257.631 1789.73 258.125 1790.16 258.48C1790.6 258.816 1791.22 258.984 1792 258.984ZM1808.05 261C1806.63 261 1805.59 260.673 1804.92 260.02C1804.24 259.367 1803.91 258.349 1803.91 256.968V242.604H1806.88V256.744C1806.88 257.435 1807.03 257.911 1807.32 258.172C1807.62 258.433 1808.08 258.564 1808.7 258.564H1810.82V261H1808.05ZM1801.64 248.54V246.104H1810.82V248.54H1801.64ZM1819.55 261.336C1818.13 261.336 1816.89 261.019 1815.82 260.384C1814.76 259.749 1813.94 258.844 1813.36 257.668C1812.78 256.492 1812.49 255.12 1812.49 253.552C1812.49 251.965 1812.78 250.593 1813.36 249.436C1813.94 248.279 1814.76 247.383 1815.82 246.748C1816.89 246.095 1818.13 245.768 1819.55 245.768C1820.97 245.768 1822.21 246.095 1823.27 246.748C1824.33 247.383 1825.16 248.279 1825.73 249.436C1826.31 250.593 1826.6 251.965 1826.6 253.552C1826.6 255.12 1826.31 256.492 1825.73 257.668C1825.16 258.844 1824.33 259.749 1823.27 260.384C1822.21 261.019 1820.97 261.336 1819.55 261.336ZM1819.55 258.76C1820.82 258.76 1821.8 258.303 1822.49 257.388C1823.18 256.455 1823.52 255.176 1823.52 253.552C1823.52 251.928 1823.18 250.659 1822.49 249.744C1821.8 248.811 1820.82 248.344 1819.55 248.344C1818.3 248.344 1817.32 248.811 1816.61 249.744C1815.92 250.659 1815.57 251.928 1815.57 253.552C1815.57 255.176 1815.92 256.455 1816.61 257.388C1817.32 258.303 1818.3 258.76 1819.55 258.76ZM1829.6 261V246.104H1832.32L1832.43 250.052L1832.18 249.968C1832.38 248.624 1832.79 247.644 1833.41 247.028C1834.04 246.412 1834.89 246.104 1835.96 246.104H1837.39V248.764H1835.96C1835.21 248.764 1834.59 248.885 1834.08 249.128C1833.58 249.371 1833.2 249.744 1832.93 250.248C1832.69 250.752 1832.57 251.405 1832.57 252.208V261H1829.6ZM1734.85 289V269.12H1738.69L1747.87 285.332V269.12H1750.89V289H1746.92L1737.87 273.152V289H1734.85ZM1761.26 289.336C1759.84 289.336 1758.6 289.019 1757.54 288.384C1756.48 287.749 1755.65 286.844 1755.08 285.668C1754.5 284.492 1754.21 283.12 1754.21 281.552C1754.21 279.965 1754.5 278.593 1755.08 277.436C1755.65 276.279 1756.48 275.383 1757.54 274.748C1758.6 274.095 1759.84 273.768 1761.26 273.768C1762.68 273.768 1763.92 274.095 1764.99 274.748C1766.05 275.383 1766.87 276.279 1767.45 277.436C1768.03 278.593 1768.32 279.965 1768.32 281.552C1768.32 283.12 1768.03 284.492 1767.45 285.668C1766.87 286.844 1766.05 287.749 1764.99 288.384C1763.92 289.019 1762.68 289.336 1761.26 289.336ZM1761.26 286.76C1762.53 286.76 1763.51 286.303 1764.2 285.388C1764.89 284.455 1765.24 283.176 1765.24 281.552C1765.24 279.928 1764.89 278.659 1764.2 277.744C1763.51 276.811 1762.53 276.344 1761.26 276.344C1760.01 276.344 1759.03 276.811 1758.32 277.744C1757.63 278.659 1757.29 279.928 1757.29 281.552C1757.29 283.176 1757.63 284.455 1758.32 285.388C1759.03 286.303 1760.01 286.76 1761.26 286.76ZM1776.61 289.336C1775.34 289.336 1774.23 289.019 1773.28 288.384C1772.35 287.749 1771.63 286.853 1771.12 285.696C1770.64 284.52 1770.39 283.139 1770.39 281.552C1770.39 279.965 1770.65 278.593 1771.15 277.436C1771.65 276.26 1772.37 275.355 1773.31 274.72C1774.24 274.085 1775.34 273.768 1776.61 273.768C1777.64 273.768 1778.55 273.983 1779.35 274.412C1780.16 274.841 1780.76 275.439 1781.17 276.204V269.12H1784.14V289H1781.37L1781.29 286.76C1780.88 287.563 1780.25 288.197 1779.41 288.664C1778.59 289.112 1777.66 289.336 1776.61 289.336ZM1777.39 286.76C1778.2 286.76 1778.88 286.555 1779.44 286.144C1780 285.733 1780.43 285.136 1780.73 284.352C1781.03 283.568 1781.17 282.635 1781.17 281.552C1781.17 280.432 1781.03 279.489 1780.73 278.724C1780.43 277.94 1780 277.352 1779.44 276.96C1778.88 276.549 1778.2 276.344 1777.39 276.344C1776.2 276.344 1775.25 276.811 1774.54 277.744C1773.83 278.659 1773.47 279.928 1773.47 281.552C1773.47 283.157 1773.83 284.427 1774.54 285.36C1775.25 286.293 1776.2 286.76 1777.39 286.76ZM1794.21 289.336C1792.76 289.336 1791.5 289.019 1790.43 288.384C1789.39 287.749 1788.58 286.844 1788 285.668C1787.44 284.492 1787.16 283.12 1787.16 281.552C1787.16 279.984 1787.44 278.621 1788 277.464C1788.58 276.288 1789.39 275.383 1790.43 274.748C1791.48 274.095 1792.71 273.768 1794.13 273.768C1795.47 273.768 1796.66 274.085 1797.68 274.72C1798.71 275.336 1799.5 276.232 1800.06 277.408C1800.64 278.584 1800.93 280.003 1800.93 281.664V282.42H1790.24C1790.31 283.876 1790.69 284.968 1791.38 285.696C1792.09 286.424 1793.05 286.788 1794.24 286.788C1795.12 286.788 1795.85 286.583 1796.42 286.172C1797 285.761 1797.4 285.211 1797.63 284.52L1800.71 284.716C1800.32 286.097 1799.54 287.217 1798.38 288.076C1797.25 288.916 1795.86 289.336 1794.21 289.336ZM1790.24 280.18H1797.8C1797.7 278.855 1797.32 277.875 1796.65 277.24C1796 276.605 1795.16 276.288 1794.13 276.288C1793.06 276.288 1792.19 276.624 1791.5 277.296C1790.82 277.949 1790.4 278.911 1790.24 280.18ZM1810.57 289C1810.57 287.507 1810.8 286.172 1811.25 284.996C1811.69 283.82 1812.46 282.728 1813.54 281.72C1814.62 280.712 1816.12 279.704 1818.02 278.696C1818.94 278.229 1819.66 277.8 1820.21 277.408C1820.77 276.997 1821.17 276.577 1821.41 276.148C1821.65 275.719 1821.77 275.196 1821.77 274.58C1821.77 273.945 1821.63 273.404 1821.35 272.956C1821.09 272.489 1820.7 272.125 1820.18 271.864C1819.66 271.584 1818.99 271.444 1818.19 271.444C1816.92 271.444 1815.91 271.789 1815.17 272.48C1814.44 273.152 1813.98 274.123 1813.79 275.392L1810.66 275.196C1810.88 273.199 1811.64 271.612 1812.93 270.436C1814.23 269.26 1815.99 268.672 1818.19 268.672C1819.61 268.672 1820.81 268.924 1821.8 269.428C1822.81 269.913 1823.58 270.595 1824.1 271.472C1824.64 272.349 1824.91 273.367 1824.91 274.524C1824.91 275.532 1824.74 276.4 1824.41 277.128C1824.07 277.856 1823.51 278.537 1822.73 279.172C1821.94 279.788 1820.88 280.451 1819.53 281.16C1817.82 282.075 1816.52 282.98 1815.64 283.876C1814.76 284.753 1814.3 285.537 1814.24 286.228H1824.91V289H1810.57Z" fill="#EC641D"/>
<path d="M1112.53 261V241.12H1115.56V259.88L1113.96 258.228H1125.24V261H1112.53ZM1133.67 261.336C1132.21 261.336 1130.95 261.019 1129.89 260.384C1128.84 259.749 1128.03 258.844 1127.45 257.668C1126.89 256.492 1126.61 255.12 1126.61 253.552C1126.61 251.984 1126.89 250.621 1127.45 249.464C1128.03 248.288 1128.84 247.383 1129.89 246.748C1130.93 246.095 1132.16 245.768 1133.58 245.768C1134.93 245.768 1136.11 246.085 1137.14 246.72C1138.17 247.336 1138.96 248.232 1139.52 249.408C1140.1 250.584 1140.39 252.003 1140.39 253.664V254.42H1129.69C1129.77 255.876 1130.15 256.968 1130.84 257.696C1131.55 258.424 1132.5 258.788 1133.7 258.788C1134.57 258.788 1135.3 258.583 1135.88 258.172C1136.46 257.761 1136.86 257.211 1137.08 256.52L1140.16 256.716C1139.77 258.097 1139 259.217 1137.84 260.076C1136.7 260.916 1135.31 261.336 1133.67 261.336ZM1129.69 252.18H1137.25C1137.16 250.855 1136.78 249.875 1136.1 249.24C1135.45 248.605 1134.61 248.288 1133.58 248.288C1132.52 248.288 1131.64 248.624 1130.95 249.296C1130.28 249.949 1129.86 250.911 1129.69 252.18ZM1147.87 261.336C1146.32 261.336 1145.08 260.981 1144.14 260.272C1143.23 259.563 1142.77 258.564 1142.77 257.276C1142.77 255.988 1143.15 254.989 1143.92 254.28C1144.7 253.552 1145.91 253.029 1147.53 252.712L1152.66 251.732C1152.66 250.575 1152.39 249.716 1151.84 249.156C1151.3 248.577 1150.5 248.288 1149.44 248.288C1148.48 248.288 1147.74 248.503 1147.2 248.932C1146.65 249.343 1146.28 249.959 1146.08 250.78L1143.02 250.584C1143.3 249.091 1143.99 247.915 1145.1 247.056C1146.22 246.197 1147.66 245.768 1149.44 245.768C1151.45 245.768 1152.98 246.309 1154.03 247.392C1155.09 248.456 1155.62 249.959 1155.62 251.9V257.696C1155.62 258.051 1155.68 258.303 1155.79 258.452C1155.92 258.583 1156.13 258.648 1156.41 258.648H1156.94V261C1156.85 261.019 1156.7 261.037 1156.49 261.056C1156.29 261.075 1156.07 261.084 1155.85 261.084C1155.21 261.084 1154.66 260.981 1154.2 260.776C1153.75 260.571 1153.41 260.235 1153.19 259.768C1152.96 259.283 1152.85 258.639 1152.85 257.836L1153.16 257.976C1153.01 258.629 1152.68 259.208 1152.18 259.712C1151.69 260.216 1151.07 260.617 1150.3 260.916C1149.56 261.196 1148.75 261.336 1147.87 261.336ZM1148.34 258.984C1149.24 258.984 1150.01 258.816 1150.64 258.48C1151.27 258.125 1151.77 257.64 1152.12 257.024C1152.48 256.408 1152.66 255.708 1152.66 254.924V253.972L1148.29 254.812C1147.39 254.98 1146.76 255.251 1146.38 255.624C1146.03 255.979 1145.85 256.436 1145.85 256.996C1145.85 257.631 1146.07 258.125 1146.5 258.48C1146.94 258.816 1147.56 258.984 1148.34 258.984ZM1164.63 261.336C1163.36 261.336 1162.25 261.019 1161.3 260.384C1160.36 259.749 1159.64 258.853 1159.14 257.696C1158.65 256.52 1158.41 255.139 1158.41 253.552C1158.41 251.965 1158.66 250.593 1159.17 249.436C1159.67 248.26 1160.39 247.355 1161.32 246.72C1162.26 246.085 1163.36 245.768 1164.63 245.768C1165.65 245.768 1166.57 245.983 1167.37 246.412C1168.17 246.841 1168.78 247.439 1169.19 248.204V241.12H1172.16V261H1169.39L1169.3 258.76C1168.89 259.563 1168.27 260.197 1167.43 260.664C1166.61 261.112 1165.67 261.336 1164.63 261.336ZM1165.41 258.76C1166.21 258.76 1166.9 258.555 1167.46 258.144C1168.02 257.733 1168.45 257.136 1168.74 256.352C1169.04 255.568 1169.19 254.635 1169.19 253.552C1169.19 252.432 1169.04 251.489 1168.74 250.724C1168.45 249.94 1168.02 249.352 1167.46 248.96C1166.9 248.549 1166.21 248.344 1165.41 248.344C1164.22 248.344 1163.27 248.811 1162.56 249.744C1161.85 250.659 1161.49 251.928 1161.49 253.552C1161.49 255.157 1161.85 256.427 1162.56 257.36C1163.27 258.293 1164.22 258.76 1165.41 258.76ZM1182.23 261.336C1180.77 261.336 1179.51 261.019 1178.45 260.384C1177.4 259.749 1176.59 258.844 1176.01 257.668C1175.45 256.492 1175.17 255.12 1175.17 253.552C1175.17 251.984 1175.45 250.621 1176.01 249.464C1176.59 248.288 1177.4 247.383 1178.45 246.748C1179.5 246.095 1180.73 245.768 1182.15 245.768C1183.49 245.768 1184.68 246.085 1185.7 246.72C1186.73 247.336 1187.52 248.232 1188.08 249.408C1188.66 250.584 1188.95 252.003 1188.95 253.664V254.42H1178.25C1178.33 255.876 1178.71 256.968 1179.4 257.696C1180.11 258.424 1181.06 258.788 1182.26 258.788C1183.14 258.788 1183.86 258.583 1184.44 258.172C1185.02 257.761 1185.42 257.211 1185.65 256.52L1188.73 256.716C1188.33 258.097 1187.56 259.217 1186.4 260.076C1185.26 260.916 1183.87 261.336 1182.23 261.336ZM1178.25 252.18H1185.81C1185.72 250.855 1185.34 249.875 1184.67 249.24C1184.01 248.605 1183.17 248.288 1182.15 248.288C1181.08 248.288 1180.2 248.624 1179.51 249.296C1178.84 249.949 1178.42 250.911 1178.25 252.18ZM1191.96 261V246.104H1194.67L1194.79 250.052L1194.53 249.968C1194.74 248.624 1195.15 247.644 1195.77 247.028C1196.4 246.412 1197.25 246.104 1198.31 246.104H1199.74V248.764H1198.31C1197.57 248.764 1196.94 248.885 1196.44 249.128C1195.93 249.371 1195.55 249.744 1195.29 250.248C1195.05 250.752 1194.93 251.405 1194.93 252.208V261H1191.96ZM1123.07 289V269.12H1126.91L1136.09 285.332V269.12H1139.12V289H1135.14L1126.1 273.152V289H1123.07ZM1149.49 289.336C1148.07 289.336 1146.83 289.019 1145.76 288.384C1144.7 287.749 1143.88 286.844 1143.3 285.668C1142.72 284.492 1142.43 283.12 1142.43 281.552C1142.43 279.965 1142.72 278.593 1143.3 277.436C1143.88 276.279 1144.7 275.383 1145.76 274.748C1146.83 274.095 1148.07 273.768 1149.49 273.768C1150.9 273.768 1152.15 274.095 1153.21 274.748C1154.27 275.383 1155.1 276.279 1155.67 277.436C1156.25 278.593 1156.54 279.965 1156.54 281.552C1156.54 283.12 1156.25 284.492 1155.67 285.668C1155.1 286.844 1154.27 287.749 1153.21 288.384C1152.15 289.019 1150.9 289.336 1149.49 289.336ZM1149.49 286.76C1150.76 286.76 1151.74 286.303 1152.43 285.388C1153.12 284.455 1153.46 283.176 1153.46 281.552C1153.46 279.928 1153.12 278.659 1152.43 277.744C1151.74 276.811 1150.76 276.344 1149.49 276.344C1148.24 276.344 1147.26 276.811 1146.55 277.744C1145.86 278.659 1145.51 279.928 1145.51 281.552C1145.51 283.176 1145.86 284.455 1146.55 285.388C1147.26 286.303 1148.24 286.76 1149.49 286.76ZM1164.83 289.336C1163.56 289.336 1162.45 289.019 1161.5 288.384C1160.57 287.749 1159.85 286.853 1159.35 285.696C1158.86 284.52 1158.62 283.139 1158.62 281.552C1158.62 279.965 1158.87 278.593 1159.37 277.436C1159.88 276.26 1160.6 275.355 1161.53 274.72C1162.46 274.085 1163.56 273.768 1164.83 273.768C1165.86 273.768 1166.77 273.983 1167.58 274.412C1168.38 274.841 1168.99 275.439 1169.4 276.204V269.12H1172.37V289H1169.59L1169.51 286.76C1169.1 287.563 1168.47 288.197 1167.63 288.664C1166.81 289.112 1165.88 289.336 1164.83 289.336ZM1165.62 286.76C1166.42 286.76 1167.1 286.555 1167.66 286.144C1168.22 285.733 1168.65 285.136 1168.95 284.352C1169.25 283.568 1169.4 282.635 1169.4 281.552C1169.4 280.432 1169.25 279.489 1168.95 278.724C1168.65 277.94 1168.22 277.352 1167.66 276.96C1167.1 276.549 1166.42 276.344 1165.62 276.344C1164.42 276.344 1163.47 276.811 1162.76 277.744C1162.05 278.659 1161.7 279.928 1161.7 281.552C1161.7 283.157 1162.05 284.427 1162.76 285.36C1163.47 286.293 1164.42 286.76 1165.62 286.76ZM1182.44 289.336C1180.98 289.336 1179.72 289.019 1178.66 288.384C1177.61 287.749 1176.8 286.844 1176.22 285.668C1175.66 284.492 1175.38 283.12 1175.38 281.552C1175.38 279.984 1175.66 278.621 1176.22 277.464C1176.8 276.288 1177.61 275.383 1178.66 274.748C1179.7 274.095 1180.93 273.768 1182.35 273.768C1183.7 273.768 1184.88 274.085 1185.91 274.72C1186.93 275.336 1187.73 276.232 1188.29 277.408C1188.87 278.584 1189.16 280.003 1189.16 281.664V282.42H1178.46C1178.53 283.876 1178.92 284.968 1179.61 285.696C1180.32 286.424 1181.27 286.788 1182.46 286.788C1183.34 286.788 1184.07 286.583 1184.65 286.172C1185.23 285.761 1185.63 285.211 1185.85 284.52L1188.93 284.716C1188.54 286.097 1187.76 287.217 1186.61 288.076C1185.47 288.916 1184.08 289.336 1182.44 289.336ZM1178.46 280.18H1186.02C1185.93 278.855 1185.54 277.875 1184.87 277.24C1184.22 276.605 1183.38 276.288 1182.35 276.288C1181.29 276.288 1180.41 276.624 1179.72 277.296C1179.05 277.949 1178.63 278.911 1178.46 280.18Z" fill="#EC641D"/>
<path d="M1184.07 348.263C1183.18 347.658 1182.13 347.335 1181.05 347.335C1179.97 347.335 1178.92 347.658 1178.02 348.263L1168.62 354.095C1168.53 354.137 1168.42 354.159 1168.32 354.159C1168.22 354.159 1168.12 354.137 1168.02 354.095C1167.81 354.038 1167.63 353.903 1167.52 353.718L1157.49 335.66C1157 334.849 1156.31 334.177 1155.49 333.711C1154.66 333.245 1153.73 333 1152.79 333C1151.84 333 1150.91 333.245 1150.09 333.711C1149.26 334.177 1148.57 334.849 1148.08 335.66L1137.68 353.687C1137.56 353.872 1137.38 354.007 1137.17 354.063C1137.08 354.106 1136.98 354.128 1136.88 354.128C1136.77 354.128 1136.67 354.106 1136.58 354.063L1127.33 348.138C1126.43 347.571 1125.39 347.281 1124.33 347.303C1123.27 347.326 1122.24 347.66 1121.37 348.263C1120.48 348.874 1119.79 349.737 1119.39 350.742C1118.98 351.746 1118.89 352.848 1119.12 353.907L1124.38 378.642C1124.64 379.873 1125.32 380.978 1126.29 381.771C1127.27 382.564 1128.49 382.998 1129.74 383H1175.8C1177.06 382.998 1178.27 382.564 1179.25 381.771C1180.23 380.978 1180.9 379.873 1181.16 378.642L1186.43 353.907C1186.64 352.839 1186.53 351.73 1186.12 350.725C1185.7 349.719 1184.99 348.862 1184.07 348.263Z" fill="#F3EFD7"/>
<rect x="80" y="262" width="350" height="556" rx="35" stroke="#EC641D" stroke-width="4"/>
<path d="M337.414 424.906C334.617 395.33 309.307 385.301 277.345 382.329L277.375 341.323L252.613 341.21L252.584 381.135C246.074 381.105 239.42 381.204 232.808 381.306L232.843 341.117L208.093 341L208.053 381.994C202.692 382.079 197.427 382.155 192.293 382.134L192.29 382.007L158.136 381.835L158.123 408.493C158.123 408.493 176.409 408.227 176.105 408.565C186.135 408.615 189.395 414.5 190.341 419.569L190.307 466.283C190.999 466.29 191.903 466.323 192.925 466.469C192.1 466.467 191.217 466.457 190.309 466.46L190.253 531.902C189.81 535.082 187.951 540.146 180.943 540.125C181.26 540.41 162.943 540.036 162.943 540.036L158 569.822L190.225 569.971C196.222 570.006 202.122 570.137 207.915 570.201L207.894 611.673L232.63 611.793L232.66 570.759C239.452 570.932 246.025 571.018 252.441 571.042L252.4 611.887L277.162 612L277.201 570.601C318.834 568.389 347.98 557.953 351.628 518.565C354.573 486.848 339.776 472.621 316.148 466.79C330.511 459.489 339.497 446.547 337.414 424.906ZM302.702 513.421C302.692 544.414 250.047 540.642 233.265 540.579L233.313 485.631C250.1 485.714 302.729 481.095 302.702 513.421ZM291.244 435.842C291.215 464.039 247.31 460.543 233.331 460.479L233.37 410.643C247.349 410.708 291.264 406.433 291.244 435.842Z" fill="#EC641D"/>
<path d="M135.802 688.64C133.242 688.64 130.989 688.053 129.042 686.88C127.095 685.68 125.575 683.973 124.482 681.76C123.389 679.547 122.842 676.907 122.842 673.84C122.842 670.8 123.375 668.173 124.442 665.96C125.535 663.72 127.055 662 129.002 660.8C130.949 659.573 133.229 658.96 135.842 658.96C139.362 658.96 142.095 659.84 144.042 661.6C145.989 663.36 147.255 665.8 147.842 668.92L143.322 669.16C142.949 667.213 142.149 665.693 140.922 664.6C139.695 663.48 138.002 662.92 135.842 662.92C134.109 662.92 132.602 663.36 131.322 664.24C130.069 665.12 129.082 666.373 128.362 668C127.669 669.627 127.322 671.573 127.322 673.84C127.322 676.107 127.669 678.053 128.362 679.68C129.082 681.307 130.082 682.547 131.362 683.4C132.642 684.253 134.122 684.68 135.802 684.68C138.095 684.68 139.869 684.08 141.122 682.88C142.402 681.653 143.202 679.973 143.522 677.84L148.042 678.08C147.695 680.24 147.002 682.107 145.962 683.68C144.922 685.253 143.549 686.48 141.842 687.36C140.135 688.213 138.122 688.64 135.802 688.64ZM152.285 688V666.72H156.165L156.325 672.36L155.965 672.24C156.258 670.32 156.845 668.92 157.725 668.04C158.632 667.16 159.845 666.72 161.365 666.72H163.405V670.52H161.365C160.298 670.52 159.405 670.693 158.685 671.04C157.965 671.387 157.418 671.92 157.045 672.64C156.698 673.36 156.525 674.293 156.525 675.44V688H152.285ZM168.251 694V690.52H170.851C171.571 690.52 172.104 690.413 172.451 690.2C172.797 689.987 173.064 689.627 173.251 689.12L173.931 687.36H172.611L164.931 666.72H169.411L175.251 683.44L180.811 666.72H185.331L176.851 690.48C176.424 691.707 175.784 692.6 174.931 693.16C174.104 693.72 172.944 694 171.451 694H168.251ZM188.223 694V666.72H192.223L192.343 671.28L191.863 671.04C192.396 669.467 193.276 668.28 194.503 667.48C195.729 666.653 197.143 666.24 198.743 666.24C200.823 666.24 202.529 666.76 203.863 667.8C205.223 668.813 206.223 670.16 206.863 671.84C207.529 673.52 207.863 675.36 207.863 677.36C207.863 679.36 207.529 681.2 206.863 682.88C206.223 684.56 205.223 685.92 203.863 686.96C202.529 687.973 200.823 688.48 198.743 688.48C197.676 688.48 196.676 688.293 195.743 687.92C194.809 687.547 194.009 687.027 193.343 686.36C192.703 685.667 192.249 684.853 191.983 683.92L192.463 683.44V694H188.223ZM197.983 684.8C199.689 684.8 201.023 684.147 201.983 682.84C202.969 681.533 203.463 679.707 203.463 677.36C203.463 675.013 202.969 673.187 201.983 671.88C201.023 670.573 199.689 669.92 197.983 669.92C196.863 669.92 195.889 670.2 195.063 670.76C194.236 671.293 193.596 672.12 193.143 673.24C192.689 674.36 192.463 675.733 192.463 677.36C192.463 678.987 192.676 680.36 193.103 681.48C193.556 682.6 194.196 683.44 195.023 684C195.876 684.533 196.863 684.8 197.983 684.8ZM219.547 688C217.52 688 216.027 687.533 215.067 686.6C214.107 685.667 213.627 684.213 213.627 682.24V661.72H217.867V681.92C217.867 682.907 218.08 683.587 218.507 683.96C218.933 684.333 219.587 684.52 220.467 684.52H223.507V688H219.547ZM210.387 670.2V666.72H223.507V670.2H210.387ZM235.967 688.48C233.94 688.48 232.167 688.027 230.647 687.12C229.127 686.213 227.954 684.92 227.127 683.24C226.3 681.56 225.887 679.6 225.887 677.36C225.887 675.093 226.3 673.133 227.127 671.48C227.954 669.827 229.127 668.547 230.647 667.64C232.167 666.707 233.94 666.24 235.967 666.24C237.994 666.24 239.767 666.707 241.287 667.64C242.807 668.547 243.98 669.827 244.807 671.48C245.634 673.133 246.047 675.093 246.047 677.36C246.047 679.6 245.634 681.56 244.807 683.24C243.98 684.92 242.807 686.213 241.287 687.12C239.767 688.027 237.994 688.48 235.967 688.48ZM235.967 684.8C237.78 684.8 239.18 684.147 240.167 682.84C241.154 681.507 241.647 679.68 241.647 677.36C241.647 675.04 241.154 673.227 240.167 671.92C239.18 670.587 237.78 669.92 235.967 669.92C234.18 669.92 232.78 670.587 231.767 671.92C230.78 673.227 230.287 675.04 230.287 677.36C230.287 679.68 230.78 681.507 231.767 682.84C232.78 684.147 234.18 684.8 235.967 684.8ZM258.892 694.48C257.212 694.48 255.732 694.227 254.452 693.72C253.172 693.213 252.119 692.493 251.292 691.56C250.465 690.653 249.905 689.587 249.612 688.36L254.012 688.08C254.305 688.96 254.812 689.653 255.532 690.16C256.279 690.693 257.399 690.96 258.892 690.96C260.652 690.96 261.999 690.587 262.932 689.84C263.892 689.093 264.372 687.96 264.372 686.44V683.36C263.865 684.453 263.052 685.32 261.932 685.96C260.812 686.6 259.559 686.92 258.172 686.92C256.385 686.92 254.799 686.48 253.412 685.6C252.025 684.72 250.945 683.507 250.172 681.96C249.399 680.413 249.012 678.627 249.012 676.6C249.012 674.547 249.385 672.747 250.132 671.2C250.905 669.653 251.972 668.44 253.332 667.56C254.719 666.68 256.279 666.24 258.012 666.24C259.532 666.24 260.865 666.587 262.012 667.28C263.185 667.973 264.025 668.907 264.532 670.08V666.72H268.612V686.32C268.612 688.08 268.212 689.56 267.412 690.76C266.639 691.987 265.519 692.907 264.052 693.52C262.612 694.16 260.892 694.48 258.892 694.48ZM258.852 683.32C260.505 683.32 261.825 682.72 262.812 681.52C263.825 680.32 264.345 678.667 264.372 676.56C264.399 675.173 264.185 673.987 263.732 673C263.279 671.987 262.625 671.213 261.772 670.68C260.945 670.12 259.972 669.84 258.852 669.84C257.119 669.84 255.772 670.453 254.812 671.68C253.879 672.88 253.412 674.507 253.412 676.56C253.412 678.64 253.892 680.293 254.852 681.52C255.839 682.72 257.172 683.32 258.852 683.32ZM274.629 688V666.72H278.509L278.669 672.36L278.309 672.24C278.602 670.32 279.189 668.92 280.069 668.04C280.976 667.16 282.189 666.72 283.709 666.72H285.749V670.52H283.709C282.642 670.52 281.749 670.693 281.029 671.04C280.309 671.387 279.762 671.92 279.389 672.64C279.042 673.36 278.869 674.293 278.869 675.44V688H274.629ZM294.808 688.48C292.594 688.48 290.821 687.973 289.488 686.96C288.181 685.947 287.528 684.52 287.528 682.68C287.528 680.84 288.074 679.413 289.168 678.4C290.288 677.36 292.008 676.613 294.328 676.16L301.648 674.76C301.648 673.107 301.261 671.88 300.488 671.08C299.714 670.253 298.568 669.84 297.048 669.84C295.688 669.84 294.621 670.147 293.848 670.76C293.074 671.347 292.541 672.227 292.248 673.4L287.888 673.12C288.288 670.987 289.274 669.307 290.848 668.08C292.448 666.853 294.514 666.24 297.048 666.24C299.928 666.24 302.114 667.013 303.608 668.56C305.128 670.08 305.888 672.227 305.888 675V683.28C305.888 683.787 305.968 684.147 306.128 684.36C306.314 684.547 306.608 684.64 307.008 684.64H307.768V688C307.634 688.027 307.421 688.053 307.128 688.08C306.834 688.107 306.528 688.12 306.208 688.12C305.301 688.12 304.514 687.973 303.848 687.68C303.208 687.387 302.728 686.907 302.408 686.24C302.088 685.547 301.928 684.627 301.928 683.48L302.368 683.68C302.154 684.613 301.688 685.44 300.968 686.16C300.274 686.88 299.381 687.453 298.288 687.88C297.221 688.28 296.061 688.48 294.808 688.48ZM295.488 685.12C296.768 685.12 297.861 684.88 298.768 684.4C299.674 683.893 300.381 683.2 300.888 682.32C301.394 681.44 301.648 680.44 301.648 679.32V677.96L295.408 679.16C294.128 679.4 293.221 679.787 292.688 680.32C292.181 680.827 291.928 681.48 291.928 682.28C291.928 683.187 292.234 683.893 292.848 684.4C293.488 684.88 294.368 685.12 295.488 685.12ZM311.348 694V666.72H315.348L315.468 671.28L314.988 671.04C315.521 669.467 316.401 668.28 317.628 667.48C318.854 666.653 320.268 666.24 321.868 666.24C323.948 666.24 325.654 666.76 326.988 667.8C328.348 668.813 329.348 670.16 329.988 671.84C330.654 673.52 330.988 675.36 330.988 677.36C330.988 679.36 330.654 681.2 329.988 682.88C329.348 684.56 328.348 685.92 326.988 686.96C325.654 687.973 323.948 688.48 321.868 688.48C320.801 688.48 319.801 688.293 318.868 687.92C317.934 687.547 317.134 687.027 316.468 686.36C315.828 685.667 315.374 684.853 315.108 683.92L315.588 683.44V694H311.348ZM321.108 684.8C322.814 684.8 324.148 684.147 325.108 682.84C326.094 681.533 326.588 679.707 326.588 677.36C326.588 675.013 326.094 673.187 325.108 671.88C324.148 670.573 322.814 669.92 321.108 669.92C319.988 669.92 319.014 670.2 318.188 670.76C317.361 671.293 316.721 672.12 316.268 673.24C315.814 674.36 315.588 675.733 315.588 677.36C315.588 678.987 315.801 680.36 316.228 681.48C316.681 682.6 317.321 683.44 318.148 684C319.001 684.533 319.988 684.8 321.108 684.8ZM335.293 688V659.6H339.533V671.52L339.013 671.44C339.253 670.24 339.693 669.267 340.333 668.52C340.973 667.747 341.76 667.173 342.693 666.8C343.626 666.427 344.653 666.24 345.773 666.24C347.32 666.24 348.626 666.587 349.693 667.28C350.76 667.947 351.56 668.893 352.093 670.12C352.653 671.347 352.933 672.747 352.933 674.32V688H348.693V675.44C348.693 673.52 348.36 672.107 347.693 671.2C347.053 670.267 346.04 669.8 344.653 669.8C343.106 669.8 341.866 670.293 340.933 671.28C340 672.24 339.533 673.653 339.533 675.52V688H335.293ZM358.535 688V666.72H362.775V688H358.535ZM358.455 663.64V659.4H362.855V663.64H358.455ZM377.139 688.48C375.112 688.48 373.339 688.027 371.819 687.12C370.299 686.213 369.126 684.92 368.299 683.24C367.472 681.56 367.059 679.6 367.059 677.36C367.059 675.12 367.472 673.173 368.299 671.52C369.126 669.84 370.299 668.547 371.819 667.64C373.339 666.707 375.112 666.24 377.139 666.24C378.872 666.24 380.406 666.547 381.739 667.16C383.099 667.747 384.192 668.613 385.019 669.76C385.872 670.907 386.419 672.307 386.659 673.96L382.219 674.2C382.006 672.813 381.446 671.76 380.539 671.04C379.632 670.293 378.499 669.92 377.139 669.92C375.352 669.92 373.952 670.587 372.939 671.92C371.952 673.227 371.459 675.04 371.459 677.36C371.459 679.68 371.952 681.507 372.939 682.84C373.952 684.147 375.352 684.8 377.139 684.8C378.499 684.8 379.632 684.427 380.539 683.68C381.446 682.907 382.006 681.747 382.219 680.2L386.659 680.44C386.419 682.067 385.872 683.48 385.019 684.68C384.192 685.88 383.099 686.813 381.739 687.48C380.406 688.147 378.872 688.48 377.139 688.48ZM174.522 732V703.6H180.442L188.882 726.92L197.322 703.6H203.242V732H198.922V711.2L191.282 731.96H186.482L178.842 711.2V732H174.522ZM215.926 732.48C213.792 732.48 212.086 731.773 210.806 730.36C209.552 728.92 208.926 726.933 208.926 724.4V710.72H213.166V723.32C213.166 725.24 213.499 726.653 214.166 727.56C214.832 728.467 215.846 728.92 217.206 728.92C218.752 728.92 219.952 728.427 220.806 727.44C221.686 726.427 222.126 725.013 222.126 723.2V710.72H226.366V732H222.406L222.326 726.44L222.926 726.68C222.552 728.547 221.766 729.987 220.566 731C219.366 731.987 217.819 732.48 215.926 732.48ZM237.003 732C235.617 732 234.497 731.64 233.643 730.92C232.79 730.2 232.363 729.053 232.363 727.48V703.6H236.603V727.08C236.603 727.56 236.723 727.92 236.963 728.16C237.23 728.4 237.603 728.52 238.083 728.52H239.763V732H237.003ZM250.601 732C248.575 732 247.081 731.533 246.121 730.6C245.161 729.667 244.681 728.213 244.681 726.24V705.72H248.921V725.92C248.921 726.907 249.135 727.587 249.561 727.96C249.988 728.333 250.641 728.52 251.521 728.52H254.561V732H250.601ZM241.441 714.2V710.72H254.561V714.2H241.441ZM258.613 732V710.72H262.853V732H258.613ZM258.533 707.64V703.4H262.933V707.64H258.533ZM267.528 722.2V718.48H280.928V722.2H267.528ZM293.766 732.48C291.766 732.48 290.073 732.173 288.686 731.56C287.326 730.947 286.273 730.107 285.526 729.04C284.78 727.947 284.353 726.693 284.246 725.28L288.606 725.08C288.82 726.253 289.326 727.187 290.126 727.88C290.926 728.573 292.14 728.92 293.766 728.92C295.1 728.92 296.153 728.707 296.926 728.28C297.7 727.853 298.086 727.173 298.086 726.24C298.086 725.733 297.953 725.307 297.686 724.96C297.446 724.587 296.966 724.28 296.246 724.04C295.526 723.773 294.46 723.52 293.046 723.28C290.94 722.88 289.286 722.413 288.086 721.88C286.886 721.347 286.033 720.667 285.526 719.84C285.02 719.013 284.766 718.013 284.766 716.84C284.766 714.893 285.486 713.307 286.926 712.08C288.393 710.853 290.5 710.24 293.246 710.24C295.086 710.24 296.633 710.56 297.886 711.2C299.14 711.813 300.113 712.653 300.806 713.72C301.526 714.76 301.98 715.933 302.166 717.24L297.806 717.48C297.673 716.733 297.406 716.093 297.006 715.56C296.633 715 296.126 714.573 295.486 714.28C294.846 713.96 294.086 713.8 293.206 713.8C291.846 713.8 290.833 714.067 290.166 714.6C289.5 715.133 289.166 715.827 289.166 716.68C289.166 717.32 289.313 717.84 289.606 718.24C289.926 718.64 290.433 718.973 291.126 719.24C291.82 719.48 292.74 719.693 293.886 719.88C296.1 720.253 297.833 720.72 299.086 721.28C300.34 721.813 301.22 722.48 301.726 723.28C302.233 724.08 302.486 725.053 302.486 726.2C302.486 727.533 302.113 728.667 301.366 729.6C300.62 730.533 299.593 731.253 298.286 731.76C296.98 732.24 295.473 732.48 293.766 732.48ZM306.777 732V710.72H311.017V732H306.777ZM306.697 707.64V703.4H311.097V707.64H306.697ZM325.181 738.48C323.501 738.48 322.021 738.227 320.741 737.72C319.461 737.213 318.408 736.493 317.581 735.56C316.754 734.653 316.194 733.587 315.901 732.36L320.301 732.08C320.594 732.96 321.101 733.653 321.821 734.16C322.568 734.693 323.688 734.96 325.181 734.96C326.941 734.96 328.288 734.587 329.221 733.84C330.181 733.093 330.661 731.96 330.661 730.44V727.36C330.154 728.453 329.341 729.32 328.221 729.96C327.101 730.6 325.848 730.92 324.461 730.92C322.674 730.92 321.088 730.48 319.701 729.6C318.314 728.72 317.234 727.507 316.461 725.96C315.688 724.413 315.301 722.627 315.301 720.6C315.301 718.547 315.674 716.747 316.421 715.2C317.194 713.653 318.261 712.44 319.621 711.56C321.008 710.68 322.568 710.24 324.301 710.24C325.821 710.24 327.154 710.587 328.301 711.28C329.474 711.973 330.314 712.907 330.821 714.08V710.72H334.901V730.32C334.901 732.08 334.501 733.56 333.701 734.76C332.928 735.987 331.808 736.907 330.341 737.52C328.901 738.16 327.181 738.48 325.181 738.48ZM325.141 727.32C326.794 727.32 328.114 726.72 329.101 725.52C330.114 724.32 330.634 722.667 330.661 720.56C330.688 719.173 330.474 717.987 330.021 717C329.568 715.987 328.914 715.213 328.061 714.68C327.234 714.12 326.261 713.84 325.141 713.84C323.408 713.84 322.061 714.453 321.101 715.68C320.168 716.88 319.701 718.507 319.701 720.56C319.701 722.64 320.181 724.293 321.141 725.52C322.128 726.72 323.461 727.32 325.141 727.32Z" fill="#EC641D"/>
<rect x="637" y="262" width="250" height="200" rx="35" stroke="#EC641D" stroke-width="4"/>
<path d="M701.924 376V347.6H720.364V351.56H703.964L706.244 349.2V362.24L703.964 360.2H719.644V364.04H703.964L706.244 362V376H701.924ZM725.01 376V347.6H736.33C738.357 347.6 740.104 347.947 741.57 348.64C743.037 349.333 744.17 350.32 744.97 351.6C745.77 352.88 746.17 354.4 746.17 356.16C746.17 357.44 745.877 358.587 745.29 359.6C744.73 360.613 743.97 361.427 743.01 362.04C742.077 362.627 741.077 362.96 740.01 363.04L739.81 362.68C741.597 362.68 742.984 363.093 743.97 363.92C744.957 364.72 745.53 365.987 745.69 367.72L746.45 376H742.09L741.41 368.28C741.33 367.133 740.944 366.293 740.25 365.76C739.557 365.2 738.424 364.92 736.85 364.92H729.33V376H725.01ZM729.33 360.96H736.41C738.037 360.96 739.317 360.56 740.25 359.76C741.21 358.933 741.69 357.773 741.69 356.28C741.69 354.76 741.21 353.6 740.25 352.8C739.29 351.973 737.89 351.56 736.05 351.56H729.33V360.96ZM763.172 376.64C760.425 376.64 758.065 376.053 756.092 374.88C754.119 373.68 752.599 371.973 751.532 369.76C750.465 367.547 749.932 364.907 749.932 361.84C749.932 358.773 750.465 356.133 751.532 353.92C752.599 351.68 754.119 349.96 756.092 348.76C758.065 347.56 760.425 346.96 763.172 346.96C765.945 346.96 768.319 347.56 770.292 348.76C772.292 349.96 773.812 351.68 774.852 353.92C775.919 356.133 776.452 358.773 776.452 361.84C776.452 364.907 775.919 367.547 774.852 369.76C773.812 371.973 772.292 373.68 770.292 374.88C768.319 376.053 765.945 376.64 763.172 376.64ZM763.172 372.68C765.012 372.68 766.585 372.253 767.892 371.4C769.225 370.547 770.239 369.32 770.932 367.72C771.625 366.093 771.972 364.133 771.972 361.84C771.972 359.547 771.625 357.587 770.932 355.96C770.239 354.333 769.225 353.093 767.892 352.24C766.585 351.36 765.012 350.92 763.172 350.92C761.359 350.92 759.799 351.36 758.492 352.24C757.185 353.093 756.172 354.333 755.452 355.96C754.759 357.587 754.412 359.547 754.412 361.84C754.412 364.133 754.759 366.093 755.452 367.72C756.172 369.32 757.185 370.547 758.492 371.4C759.799 372.253 761.359 372.68 763.172 372.68ZM791.891 376.64C789.624 376.64 787.651 376.227 785.971 375.4C784.318 374.573 783.011 373.427 782.051 371.96C781.091 370.493 780.531 368.787 780.371 366.84L784.811 366.56C784.998 367.893 785.384 369.027 785.971 369.96C786.558 370.867 787.344 371.56 788.331 372.04C789.344 372.493 790.558 372.72 791.971 372.72C793.198 372.72 794.238 372.573 795.091 372.28C795.971 371.96 796.638 371.493 797.091 370.88C797.544 370.267 797.771 369.52 797.771 368.64C797.771 367.84 797.571 367.133 797.171 366.52C796.798 365.88 796.064 365.307 794.971 364.8C793.904 364.267 792.331 363.747 790.251 363.24C787.984 362.68 786.171 362.067 784.811 361.4C783.451 360.733 782.464 359.907 781.851 358.92C781.264 357.907 780.971 356.667 780.971 355.2C780.971 353.573 781.358 352.147 782.131 350.92C782.931 349.667 784.064 348.693 785.531 348C786.998 347.307 788.758 346.96 790.811 346.96C792.971 346.96 794.811 347.36 796.331 348.16C797.878 348.96 799.091 350.053 799.971 351.44C800.878 352.827 801.438 354.413 801.651 356.2L797.211 356.44C797.078 355.347 796.744 354.387 796.211 353.56C795.678 352.707 794.958 352.053 794.051 351.6C793.144 351.12 792.038 350.88 790.731 350.88C789.078 350.88 787.771 351.267 786.811 352.04C785.878 352.787 785.411 353.787 785.411 355.04C785.411 355.84 785.598 356.52 785.971 357.08C786.371 357.613 787.064 358.08 788.051 358.48C789.064 358.88 790.491 359.307 792.331 359.76C794.784 360.32 796.731 361.013 798.171 361.84C799.638 362.64 800.678 363.587 801.291 364.68C801.904 365.773 802.211 367.013 802.211 368.4C802.211 370.08 801.771 371.547 800.891 372.8C800.038 374.027 798.838 374.973 797.291 375.64C795.744 376.307 793.944 376.64 791.891 376.64ZM811.981 376V351.56H803.261V347.6H825.021V351.56H816.301V376H811.981Z" fill="#EC641D"/>
<rect x="637" y="622" width="250" height="200" rx="35" stroke="#EC641D" stroke-width="4"/>
<path d="M700.545 736V707.6H711.865C713.892 707.6 715.639 707.947 717.105 708.64C718.572 709.333 719.705 710.32 720.505 711.6C721.305 712.88 721.705 714.4 721.705 716.16C721.705 717.44 721.412 718.587 720.825 719.6C720.265 720.613 719.505 721.427 718.545 722.04C717.612 722.627 716.612 722.96 715.545 723.04L715.345 722.68C717.132 722.68 718.519 723.093 719.505 723.92C720.492 724.72 721.065 725.987 721.225 727.72L721.985 736H717.625L716.945 728.28C716.865 727.133 716.479 726.293 715.785 725.76C715.092 725.2 713.959 724.92 712.385 724.92H704.865V736H700.545ZM704.865 720.96H711.945C713.572 720.96 714.852 720.56 715.785 719.76C716.745 718.933 717.225 717.773 717.225 716.28C717.225 714.76 716.745 713.6 715.785 712.8C714.825 711.973 713.425 711.56 711.585 711.56H704.865V720.96ZM738.707 736.64C735.96 736.64 733.6 736.053 731.627 734.88C729.654 733.68 728.134 731.973 727.067 729.76C726 727.547 725.467 724.907 725.467 721.84C725.467 718.773 726 716.133 727.067 713.92C728.134 711.68 729.654 709.96 731.627 708.76C733.6 707.56 735.96 706.96 738.707 706.96C741.48 706.96 743.854 707.56 745.827 708.76C747.827 709.96 749.347 711.68 750.387 713.92C751.454 716.133 751.987 718.773 751.987 721.84C751.987 724.907 751.454 727.547 750.387 729.76C749.347 731.973 747.827 733.68 745.827 734.88C743.854 736.053 741.48 736.64 738.707 736.64ZM738.707 732.68C740.547 732.68 742.12 732.253 743.427 731.4C744.76 730.547 745.774 729.32 746.467 727.72C747.16 726.093 747.507 724.133 747.507 721.84C747.507 719.547 747.16 717.587 746.467 715.96C745.774 714.333 744.76 713.093 743.427 712.24C742.12 711.36 740.547 710.92 738.707 710.92C736.894 710.92 735.334 711.36 734.027 712.24C732.72 713.093 731.707 714.333 730.987 715.96C730.294 717.587 729.947 719.547 729.947 721.84C729.947 724.133 730.294 726.093 730.987 727.72C731.707 729.32 732.72 730.547 734.027 731.4C735.334 732.253 736.894 732.68 738.707 732.68ZM753.179 736L763.419 707.6H768.899L779.139 736H774.539L771.939 728.6H760.339L757.779 736H753.179ZM761.699 724.68H770.619L766.139 711.72L761.699 724.68ZM792.27 736.64C790.003 736.64 788.03 736.227 786.35 735.4C784.697 734.573 783.39 733.427 782.43 731.96C781.47 730.493 780.91 728.787 780.75 726.84L785.19 726.56C785.377 727.893 785.763 729.027 786.35 729.96C786.937 730.867 787.723 731.56 788.71 732.04C789.723 732.493 790.937 732.72 792.35 732.72C793.577 732.72 794.617 732.573 795.47 732.28C796.35 731.96 797.017 731.493 797.47 730.88C797.923 730.267 798.15 729.52 798.15 728.64C798.15 727.84 797.95 727.133 797.55 726.52C797.177 725.88 796.443 725.307 795.35 724.8C794.283 724.267 792.71 723.747 790.63 723.24C788.363 722.68 786.55 722.067 785.19 721.4C783.83 720.733 782.843 719.907 782.23 718.92C781.643 717.907 781.35 716.667 781.35 715.2C781.35 713.573 781.737 712.147 782.51 710.92C783.31 709.667 784.443 708.693 785.91 708C787.377 707.307 789.137 706.96 791.19 706.96C793.35 706.96 795.19 707.36 796.71 708.16C798.257 708.96 799.47 710.053 800.35 711.44C801.257 712.827 801.817 714.413 802.03 716.2L797.59 716.44C797.457 715.347 797.123 714.387 796.59 713.56C796.057 712.707 795.337 712.053 794.43 711.6C793.523 711.12 792.417 710.88 791.11 710.88C789.457 710.88 788.15 711.267 787.19 712.04C786.257 712.787 785.79 713.787 785.79 715.04C785.79 715.84 785.977 716.52 786.35 717.08C786.75 717.613 787.443 718.08 788.43 718.48C789.443 718.88 790.87 719.307 792.71 719.76C795.163 720.32 797.11 721.013 798.55 721.84C800.017 722.64 801.057 723.587 801.67 724.68C802.283 725.773 802.59 727.013 802.59 728.4C802.59 730.08 802.15 731.547 801.27 732.8C800.417 734.027 799.217 734.973 797.67 735.64C796.123 736.307 794.323 736.64 792.27 736.64ZM812.36 736V711.56H803.64V707.6H825.4V711.56H816.68V736H812.36Z" fill="#EC641D"/>
<path d="M888.586 361.586C887.805 362.367 887.805 363.633 888.586 364.414L901.314 377.142C902.095 377.923 903.361 377.923 904.142 377.142C904.923 376.361 904.923 375.095 904.142 374.314L892.828 363L904.142 351.686C904.923 350.905 904.923 349.639 904.142 348.858C903.361 348.077 902.095 348.077 901.314 348.858L888.586 361.586ZM1097 363L1097 361L890 361L890 363L890 365L1097 365L1097 363Z" fill="#736FB9"/>
<path d="M760.586 620.414C761.367 621.195 762.633 621.195 763.414 620.414L776.142 607.686C776.923 606.905 776.923 605.639 776.142 604.858C775.361 604.077 774.095 604.077 773.314 604.858L762 616.172L750.686 604.858C749.905 604.077 748.639 604.077 747.858 604.858C747.077 605.639 747.077 606.905 747.858 607.686L760.586 620.414ZM762 463L760 463L760 619L762 619L764 619L764 463L762 463Z" fill="#736FB9"/>
<path d="M431.586 720.586C430.805 721.367 430.805 722.633 431.586 723.414L444.314 736.142C445.095 736.923 446.361 736.923 447.142 736.142C447.923 735.361 447.923 734.095 447.142 733.314L435.828 722L447.142 710.686C447.923 709.905 447.923 708.639 447.142 707.858C446.361 707.077 445.095 707.077 444.314 707.858L431.586 720.586ZM637 722L637 720L433 720L433 722L433 724L637 724L637 722Z" fill="#736FB9"/>
</svg>
