<svg width="1080" height="1440" viewBox="0 0 1080 1440" fill="none" xmlns="http://www.w3.org/2000/svg">
<g clip-path="url(#clip0_1220_1810)">
<rect width="1080" height="1440" transform="matrix(1 0 0 -1 0 1440)" fill="#736FB9"/>
<path d="M115.91 1328V1292.5H128.11C132.31 1292.5 135.46 1293.27 137.56 1294.8C139.66 1296.33 140.71 1298.75 140.71 1302.05C140.71 1303.58 140.376 1304.93 139.71 1306.1C139.043 1307.27 138.093 1308.18 136.86 1308.85C135.626 1309.48 134.16 1309.8 132.46 1309.8L132.41 1309.5C135.443 1309.5 137.826 1310.32 139.56 1311.95C141.326 1313.55 142.21 1315.65 142.21 1318.25C142.21 1321.48 141.16 1323.92 139.06 1325.55C136.96 1327.18 133.976 1328 130.11 1328H115.91ZM120.21 1323.8H130.11C132.543 1323.8 134.41 1323.3 135.71 1322.3C137.043 1321.3 137.71 1319.87 137.71 1318C137.71 1316.13 137.043 1314.68 135.71 1313.65C134.41 1312.58 132.543 1312.05 130.11 1312.05H120.21V1323.8ZM120.21 1307.85H128.11C130.71 1307.85 132.71 1307.37 134.11 1306.4C135.51 1305.4 136.21 1304.02 136.21 1302.25C136.21 1300.38 135.526 1299 134.16 1298.1C132.826 1297.17 130.81 1296.7 128.11 1296.7H120.21V1307.85ZM148.903 1328V1301.5H153.103V1328H148.903ZM148.803 1297.35V1292.45H153.203V1297.35H148.803ZM168.808 1328C166.408 1328 164.625 1327.45 163.458 1326.35C162.325 1325.25 161.758 1323.53 161.758 1321.2V1295.3H165.958V1321.1C165.958 1322.3 166.225 1323.13 166.758 1323.6C167.292 1324.07 168.108 1324.3 169.208 1324.3H173.008V1328H168.808ZM157.858 1305.2V1301.5H173.008V1305.2H157.858ZM188.257 1328.6C185.791 1328.6 183.641 1328.03 181.807 1326.9C180.007 1325.77 178.607 1324.17 177.607 1322.1C176.607 1320 176.107 1317.55 176.107 1314.75C176.107 1311.95 176.607 1309.52 177.607 1307.45C178.607 1305.38 180.007 1303.78 181.807 1302.65C183.641 1301.48 185.791 1300.9 188.257 1300.9C190.291 1300.9 192.091 1301.27 193.657 1302C195.257 1302.7 196.557 1303.73 197.557 1305.1C198.557 1306.47 199.207 1308.13 199.507 1310.1L195.107 1310.4C194.807 1308.63 194.041 1307.28 192.807 1306.35C191.574 1305.38 190.057 1304.9 188.257 1304.9C185.824 1304.9 183.924 1305.78 182.557 1307.55C181.191 1309.28 180.507 1311.68 180.507 1314.75C180.507 1317.82 181.191 1320.23 182.557 1322C183.924 1323.73 185.824 1324.6 188.257 1324.6C190.057 1324.6 191.574 1324.1 192.807 1323.1C194.041 1322.1 194.807 1320.6 195.107 1318.6L199.507 1318.9C199.207 1320.87 198.557 1322.58 197.557 1324.05C196.557 1325.48 195.257 1326.6 193.657 1327.4C192.091 1328.2 190.291 1328.6 188.257 1328.6ZM215.064 1328.6C212.631 1328.6 210.497 1328.03 208.664 1326.9C206.831 1325.77 205.414 1324.17 204.414 1322.1C203.414 1320 202.914 1317.55 202.914 1314.75C202.914 1311.92 203.414 1309.47 204.414 1307.4C205.414 1305.33 206.831 1303.73 208.664 1302.6C210.497 1301.47 212.631 1300.9 215.064 1300.9C217.497 1300.9 219.614 1301.47 221.414 1302.6C223.247 1303.73 224.664 1305.33 225.664 1307.4C226.664 1309.47 227.164 1311.92 227.164 1314.75C227.164 1317.55 226.664 1320 225.664 1322.1C224.664 1324.17 223.247 1325.77 221.414 1326.9C219.614 1328.03 217.497 1328.6 215.064 1328.6ZM215.064 1324.6C217.497 1324.6 219.381 1323.73 220.714 1322C222.081 1320.23 222.764 1317.82 222.764 1314.75C222.764 1311.68 222.081 1309.28 220.714 1307.55C219.381 1305.78 217.497 1304.9 215.064 1304.9C212.631 1304.9 210.731 1305.78 209.364 1307.55C207.997 1309.28 207.314 1311.68 207.314 1314.75C207.314 1317.82 207.997 1320.23 209.364 1322C210.731 1323.73 212.631 1324.6 215.064 1324.6ZM232.888 1328V1301.5H237.088V1328H232.888ZM232.788 1297.35V1292.45H237.188V1297.35H232.788ZM245.583 1328V1301.5H249.433L249.583 1308.25L249.083 1307.8C249.416 1306.23 250 1304.95 250.833 1303.95C251.666 1302.92 252.666 1302.15 253.833 1301.65C255.033 1301.15 256.316 1300.9 257.683 1300.9C259.716 1300.9 261.383 1301.35 262.683 1302.25C264.016 1303.15 265 1304.37 265.633 1305.9C266.3 1307.4 266.633 1309.08 266.633 1310.95V1328H262.433V1312.15C262.433 1310.52 262.233 1309.15 261.833 1308.05C261.466 1306.92 260.866 1306.07 260.033 1305.5C259.2 1304.9 258.116 1304.6 256.783 1304.6C254.75 1304.6 253.066 1305.25 251.733 1306.55C250.433 1307.82 249.783 1309.68 249.783 1312.15V1328H245.583ZM284.136 1328L296.936 1292.5H302.736L315.536 1328H310.836L307.286 1317.9H292.386L288.836 1328H284.136ZM293.836 1313.7H305.836L299.836 1296.25L293.836 1313.7ZM319.558 1328V1301.5H323.408L323.558 1308.25L323.058 1307.8C323.391 1306.23 323.974 1304.95 324.808 1303.95C325.641 1302.92 326.641 1302.15 327.808 1301.65C329.008 1301.15 330.291 1300.9 331.658 1300.9C333.691 1300.9 335.358 1301.35 336.658 1302.25C337.991 1303.15 338.974 1304.37 339.608 1305.9C340.274 1307.4 340.608 1309.08 340.608 1310.95V1328H336.408V1312.15C336.408 1310.52 336.208 1309.15 335.808 1308.05C335.441 1306.92 334.841 1306.07 334.008 1305.5C333.174 1304.9 332.091 1304.6 330.758 1304.6C328.724 1304.6 327.041 1305.25 325.708 1306.55C324.408 1307.82 323.758 1309.68 323.758 1312.15V1328H319.558ZM358.374 1328.6C355.908 1328.6 353.758 1328.03 351.924 1326.9C350.124 1325.77 348.724 1324.17 347.724 1322.1C346.724 1320 346.224 1317.55 346.224 1314.75C346.224 1311.95 346.724 1309.52 347.724 1307.45C348.724 1305.38 350.124 1303.78 351.924 1302.65C353.758 1301.48 355.908 1300.9 358.374 1300.9C360.408 1300.9 362.208 1301.27 363.774 1302C365.374 1302.7 366.674 1303.73 367.674 1305.1C368.674 1306.47 369.324 1308.13 369.624 1310.1L365.224 1310.4C364.924 1308.63 364.158 1307.28 362.924 1306.35C361.691 1305.38 360.174 1304.9 358.374 1304.9C355.941 1304.9 354.041 1305.78 352.674 1307.55C351.308 1309.28 350.624 1311.68 350.624 1314.75C350.624 1317.82 351.308 1320.23 352.674 1322C354.041 1323.73 355.941 1324.6 358.374 1324.6C360.174 1324.6 361.691 1324.1 362.924 1323.1C364.158 1322.1 364.924 1320.6 365.224 1318.6L369.624 1318.9C369.324 1320.87 368.674 1322.58 367.674 1324.05C366.674 1325.48 365.374 1326.6 363.774 1327.4C362.208 1328.2 360.408 1328.6 358.374 1328.6ZM374.831 1328V1292.5H379.031V1307.35L378.531 1307.25C378.864 1305.78 379.431 1304.58 380.231 1303.65C381.031 1302.72 382.014 1302.03 383.181 1301.6C384.348 1301.13 385.631 1300.9 387.031 1300.9C388.931 1300.9 390.531 1301.33 391.831 1302.2C393.164 1303.03 394.164 1304.22 394.831 1305.75C395.531 1307.25 395.881 1308.98 395.881 1310.95V1328H391.681V1312.15C391.681 1309.58 391.214 1307.68 390.281 1306.45C389.381 1305.22 387.998 1304.6 386.131 1304.6C383.998 1304.6 382.281 1305.25 380.981 1306.55C379.681 1307.85 379.031 1309.73 379.031 1312.2V1328H374.831ZM413.648 1328.6C411.215 1328.6 409.081 1328.03 407.248 1326.9C405.415 1325.77 403.998 1324.17 402.998 1322.1C401.998 1320 401.498 1317.55 401.498 1314.75C401.498 1311.92 401.998 1309.47 402.998 1307.4C403.998 1305.33 405.415 1303.73 407.248 1302.6C409.081 1301.47 411.215 1300.9 413.648 1300.9C416.081 1300.9 418.198 1301.47 419.998 1302.6C421.831 1303.73 423.248 1305.33 424.248 1307.4C425.248 1309.47 425.748 1311.92 425.748 1314.75C425.748 1317.55 425.248 1320 424.248 1322.1C423.248 1324.17 421.831 1325.77 419.998 1326.9C418.198 1328.03 416.081 1328.6 413.648 1328.6ZM413.648 1324.6C416.081 1324.6 417.965 1323.73 419.298 1322C420.665 1320.23 421.348 1317.82 421.348 1314.75C421.348 1311.68 420.665 1309.28 419.298 1307.55C417.965 1305.78 416.081 1304.9 413.648 1304.9C411.215 1304.9 409.315 1305.78 407.948 1307.55C406.581 1309.28 405.898 1311.68 405.898 1314.75C405.898 1317.82 406.581 1320.23 407.948 1322C409.315 1323.73 411.215 1324.6 413.648 1324.6ZM431.472 1328V1301.5H435.172L435.372 1308.2L434.972 1308.05C435.305 1305.78 436.022 1304.13 437.122 1303.1C438.255 1302.03 439.755 1301.5 441.622 1301.5H444.222V1305.5H441.672C440.338 1305.5 439.222 1305.75 438.322 1306.25C437.455 1306.72 436.788 1307.43 436.322 1308.4C435.888 1309.33 435.672 1310.53 435.672 1312V1328H431.472ZM458.765 1328.6C456.265 1328.6 454.098 1328.03 452.265 1326.9C450.465 1325.77 449.065 1324.17 448.065 1322.1C447.098 1320 446.615 1317.55 446.615 1314.75C446.615 1311.95 447.098 1309.52 448.065 1307.45C449.065 1305.38 450.448 1303.78 452.215 1302.65C454.015 1301.48 456.132 1300.9 458.565 1300.9C460.865 1300.9 462.898 1301.45 464.665 1302.55C466.432 1303.62 467.798 1305.18 468.765 1307.25C469.765 1309.32 470.265 1311.83 470.265 1314.8V1316.05H451.015C451.182 1318.88 451.932 1321.02 453.265 1322.45C454.632 1323.88 456.465 1324.6 458.765 1324.6C460.498 1324.6 461.915 1324.2 463.015 1323.4C464.148 1322.57 464.932 1321.48 465.365 1320.15L469.865 1320.5C469.165 1322.87 467.832 1324.82 465.865 1326.35C463.932 1327.85 461.565 1328.6 458.765 1328.6ZM451.015 1312.35H465.665C465.465 1309.78 464.715 1307.9 463.415 1306.7C462.148 1305.5 460.532 1304.9 458.565 1304.9C456.532 1304.9 454.848 1305.53 453.515 1306.8C452.215 1308.03 451.382 1309.88 451.015 1312.35ZM485.354 1328.6C483.054 1328.6 481.054 1328.03 479.354 1326.9C477.687 1325.77 476.404 1324.17 475.504 1322.1C474.604 1320.03 474.154 1317.58 474.154 1314.75C474.154 1311.92 474.604 1309.47 475.504 1307.4C476.404 1305.33 477.687 1303.73 479.354 1302.6C481.054 1301.47 483.054 1300.9 485.354 1300.9C487.121 1300.9 488.737 1301.28 490.204 1302.05C491.671 1302.78 492.771 1303.83 493.504 1305.2V1292.5H497.704V1328H493.904L493.754 1324C493.021 1325.43 491.904 1326.57 490.404 1327.4C488.904 1328.2 487.221 1328.6 485.354 1328.6ZM486.204 1324.6C487.771 1324.6 489.087 1324.2 490.154 1323.4C491.254 1322.6 492.087 1321.47 492.654 1320C493.221 1318.5 493.504 1316.75 493.504 1314.75C493.504 1312.68 493.221 1310.92 492.654 1309.45C492.087 1307.98 491.254 1306.87 490.154 1306.1C489.087 1305.3 487.771 1304.9 486.204 1304.9C483.871 1304.9 482.004 1305.78 480.604 1307.55C479.237 1309.28 478.554 1311.68 478.554 1314.75C478.554 1317.78 479.237 1320.18 480.604 1321.95C482.004 1323.72 483.871 1324.6 486.204 1324.6Z" fill="#F3EFD7"/>
<path d="M567.6 539V503.5H579.8C584 503.5 587.15 504.267 589.25 505.8C591.35 507.333 592.4 509.75 592.4 513.05C592.4 514.583 592.067 515.933 591.4 517.1C590.733 518.267 589.783 519.183 588.55 519.85C587.317 520.483 585.85 520.8 584.15 520.8L584.1 520.5C587.133 520.5 589.517 521.317 591.25 522.95C593.017 524.55 593.9 526.65 593.9 529.25C593.9 532.483 592.85 534.917 590.75 536.55C588.65 538.183 585.667 539 581.8 539H567.6ZM571.9 534.8H581.8C584.233 534.8 586.1 534.3 587.4 533.3C588.733 532.3 589.4 530.867 589.4 529C589.4 527.133 588.733 525.683 587.4 524.65C586.1 523.583 584.233 523.05 581.8 523.05H571.9V534.8ZM571.9 518.85H579.8C582.4 518.85 584.4 518.367 585.8 517.4C587.2 516.4 587.9 515.017 587.9 513.25C587.9 511.383 587.217 510 585.85 509.1C584.517 508.167 582.5 507.7 579.8 507.7H571.9V518.85ZM600.594 539V512.5H604.794V539H600.594ZM600.494 508.35V503.45H604.894V508.35H600.494ZM620.499 539C618.099 539 616.315 538.45 615.149 537.35C614.015 536.25 613.449 534.533 613.449 532.2V506.3H617.649V532.1C617.649 533.3 617.915 534.133 618.449 534.6C618.982 535.067 619.799 535.3 620.899 535.3H624.699V539H620.499ZM609.549 516.2V512.5H624.699V516.2H609.549ZM639.948 539.6C637.481 539.6 635.331 539.033 633.498 537.9C631.698 536.767 630.298 535.167 629.298 533.1C628.298 531 627.798 528.55 627.798 525.75C627.798 522.95 628.298 520.517 629.298 518.45C630.298 516.383 631.698 514.783 633.498 513.65C635.331 512.483 637.481 511.9 639.948 511.9C641.981 511.9 643.781 512.267 645.348 513C646.948 513.7 648.248 514.733 649.248 516.1C650.248 517.467 650.898 519.133 651.198 521.1L646.798 521.4C646.498 519.633 645.731 518.283 644.498 517.35C643.264 516.383 641.748 515.9 639.948 515.9C637.514 515.9 635.614 516.783 634.248 518.55C632.881 520.283 632.198 522.683 632.198 525.75C632.198 528.817 632.881 531.233 634.248 533C635.614 534.733 637.514 535.6 639.948 535.6C641.748 535.6 643.264 535.1 644.498 534.1C645.731 533.1 646.498 531.6 646.798 529.6L651.198 529.9C650.898 531.867 650.248 533.583 649.248 535.05C648.248 536.483 646.948 537.6 645.348 538.4C643.781 539.2 641.981 539.6 639.948 539.6ZM666.754 539.6C664.321 539.6 662.188 539.033 660.354 537.9C658.521 536.767 657.104 535.167 656.104 533.1C655.104 531 654.604 528.55 654.604 525.75C654.604 522.917 655.104 520.467 656.104 518.4C657.104 516.333 658.521 514.733 660.354 513.6C662.188 512.467 664.321 511.9 666.754 511.9C669.188 511.9 671.304 512.467 673.104 513.6C674.938 514.733 676.354 516.333 677.354 518.4C678.354 520.467 678.854 522.917 678.854 525.75C678.854 528.55 678.354 531 677.354 533.1C676.354 535.167 674.938 536.767 673.104 537.9C671.304 539.033 669.188 539.6 666.754 539.6ZM666.754 535.6C669.188 535.6 671.071 534.733 672.404 533C673.771 531.233 674.454 528.817 674.454 525.75C674.454 522.683 673.771 520.283 672.404 518.55C671.071 516.783 669.188 515.9 666.754 515.9C664.321 515.9 662.421 516.783 661.054 518.55C659.688 520.283 659.004 522.683 659.004 525.75C659.004 528.817 659.688 531.233 661.054 533C662.421 534.733 664.321 535.6 666.754 535.6ZM684.578 539V512.5H688.778V539H684.578ZM684.478 508.35V503.45H688.878V508.35H684.478ZM697.273 539V512.5H701.123L701.273 519.25L700.773 518.8C701.107 517.233 701.69 515.95 702.523 514.95C703.357 513.917 704.357 513.15 705.523 512.65C706.723 512.15 708.007 511.9 709.373 511.9C711.407 511.9 713.073 512.35 714.373 513.25C715.707 514.15 716.69 515.367 717.323 516.9C717.99 518.4 718.323 520.083 718.323 521.95V539H714.123V523.15C714.123 521.517 713.923 520.15 713.523 519.05C713.157 517.917 712.557 517.067 711.723 516.5C710.89 515.9 709.807 515.6 708.473 515.6C706.44 515.6 704.757 516.25 703.423 517.55C702.123 518.817 701.473 520.683 701.473 523.15V539H697.273ZM564 589L576.8 553.5H582.6L595.4 589H590.7L587.15 578.9H572.25L568.7 589H564ZM573.7 574.7H585.7L579.7 557.25L573.7 574.7ZM599.422 589V562.5H603.272L603.422 569.25L602.922 568.8C603.255 567.233 603.839 565.95 604.672 564.95C605.505 563.917 606.505 563.15 607.672 562.65C608.872 562.15 610.155 561.9 611.522 561.9C613.555 561.9 615.222 562.35 616.522 563.25C617.855 564.15 618.839 565.367 619.472 566.9C620.139 568.4 620.472 570.083 620.472 571.95V589H616.272V573.15C616.272 571.517 616.072 570.15 615.672 569.05C615.305 567.917 614.705 567.067 613.872 566.5C613.039 565.9 611.955 565.6 610.622 565.6C608.589 565.6 606.905 566.25 605.572 567.55C604.272 568.817 603.622 570.683 603.622 573.15V589H599.422ZM638.239 589.6C635.772 589.6 633.622 589.033 631.789 587.9C629.989 586.767 628.589 585.167 627.589 583.1C626.589 581 626.089 578.55 626.089 575.75C626.089 572.95 626.589 570.517 627.589 568.45C628.589 566.383 629.989 564.783 631.789 563.65C633.622 562.483 635.772 561.9 638.239 561.9C640.272 561.9 642.072 562.267 643.639 563C645.239 563.7 646.539 564.733 647.539 566.1C648.539 567.467 649.189 569.133 649.489 571.1L645.089 571.4C644.789 569.633 644.022 568.283 642.789 567.35C641.555 566.383 640.039 565.9 638.239 565.9C635.805 565.9 633.905 566.783 632.539 568.55C631.172 570.283 630.489 572.683 630.489 575.75C630.489 578.817 631.172 581.233 632.539 583C633.905 584.733 635.805 585.6 638.239 585.6C640.039 585.6 641.555 585.1 642.789 584.1C644.022 583.1 644.789 581.6 645.089 579.6L649.489 579.9C649.189 581.867 648.539 583.583 647.539 585.05C646.539 586.483 645.239 587.6 643.639 588.4C642.072 589.2 640.272 589.6 638.239 589.6ZM654.695 589V553.5H658.895V568.35L658.395 568.25C658.729 566.783 659.295 565.583 660.095 564.65C660.895 563.717 661.879 563.033 663.045 562.6C664.212 562.133 665.495 561.9 666.895 561.9C668.795 561.9 670.395 562.333 671.695 563.2C673.029 564.033 674.029 565.217 674.695 566.75C675.395 568.25 675.745 569.983 675.745 571.95V589H671.545V573.15C671.545 570.583 671.079 568.683 670.145 567.45C669.245 566.217 667.862 565.6 665.995 565.6C663.862 565.6 662.145 566.25 660.845 567.55C659.545 568.85 658.895 570.733 658.895 573.2V589H654.695ZM693.512 589.6C691.079 589.6 688.945 589.033 687.112 587.9C685.279 586.767 683.862 585.167 682.862 583.1C681.862 581 681.362 578.55 681.362 575.75C681.362 572.917 681.862 570.467 682.862 568.4C683.862 566.333 685.279 564.733 687.112 563.6C688.945 562.467 691.079 561.9 693.512 561.9C695.945 561.9 698.062 562.467 699.862 563.6C701.695 564.733 703.112 566.333 704.112 568.4C705.112 570.467 705.612 572.917 705.612 575.75C705.612 578.55 705.112 581 704.112 583.1C703.112 585.167 701.695 586.767 699.862 587.9C698.062 589.033 695.945 589.6 693.512 589.6ZM693.512 585.6C695.945 585.6 697.829 584.733 699.162 583C700.529 581.233 701.212 578.817 701.212 575.75C701.212 572.683 700.529 570.283 699.162 568.55C697.829 566.783 695.945 565.9 693.512 565.9C691.079 565.9 689.179 566.783 687.812 568.55C686.445 570.283 685.762 572.683 685.762 575.75C685.762 578.817 686.445 581.233 687.812 583C689.179 584.733 691.079 585.6 693.512 585.6ZM711.336 589V562.5H715.036L715.236 569.2L714.836 569.05C715.169 566.783 715.886 565.133 716.986 564.1C718.119 563.033 719.619 562.5 721.486 562.5H724.086V566.5H721.536C720.203 566.5 719.086 566.75 718.186 567.25C717.319 567.717 716.653 568.433 716.186 569.4C715.753 570.333 715.536 571.533 715.536 573V589H711.336ZM738.629 589.6C736.129 589.6 733.963 589.033 732.129 587.9C730.329 586.767 728.929 585.167 727.929 583.1C726.963 581 726.479 578.55 726.479 575.75C726.479 572.95 726.963 570.517 727.929 568.45C728.929 566.383 730.313 564.783 732.079 563.65C733.879 562.483 735.996 561.9 738.429 561.9C740.729 561.9 742.763 562.45 744.529 563.55C746.296 564.617 747.663 566.183 748.629 568.25C749.629 570.317 750.129 572.833 750.129 575.8V577.05H730.879C731.046 579.883 731.796 582.017 733.129 583.45C734.496 584.883 736.329 585.6 738.629 585.6C740.363 585.6 741.779 585.2 742.879 584.4C744.013 583.567 744.796 582.483 745.229 581.15L749.729 581.5C749.029 583.867 747.696 585.817 745.729 587.35C743.796 588.85 741.429 589.6 738.629 589.6ZM730.879 573.35H745.529C745.329 570.783 744.579 568.9 743.279 567.7C742.013 566.5 740.396 565.9 738.429 565.9C736.396 565.9 734.713 566.533 733.379 567.8C732.079 569.033 731.246 570.883 730.879 573.35ZM765.218 589.6C762.918 589.6 760.918 589.033 759.218 587.9C757.552 586.767 756.268 585.167 755.368 583.1C754.468 581.033 754.018 578.583 754.018 575.75C754.018 572.917 754.468 570.467 755.368 568.4C756.268 566.333 757.552 564.733 759.218 563.6C760.918 562.467 762.918 561.9 765.218 561.9C766.985 561.9 768.602 562.283 770.068 563.05C771.535 563.783 772.635 564.833 773.368 566.2V553.5H777.568V589H773.768L773.618 585C772.885 586.433 771.768 587.567 770.268 588.4C768.768 589.2 767.085 589.6 765.218 589.6ZM766.068 585.6C767.635 585.6 768.952 585.2 770.018 584.4C771.118 583.6 771.952 582.467 772.518 581C773.085 579.5 773.368 577.75 773.368 575.75C773.368 573.683 773.085 571.917 772.518 570.45C771.952 568.983 771.118 567.867 770.018 567.1C768.952 566.3 767.635 565.9 766.068 565.9C763.735 565.9 761.868 566.783 760.468 568.55C759.102 570.283 758.418 572.683 758.418 575.75C758.418 578.783 759.102 581.183 760.468 582.95C761.868 584.717 763.735 585.6 766.068 585.6Z" fill="#F3EFD7"/>
<path d="M579.8 847.8C577.067 847.8 574.683 847.283 572.65 846.25C570.617 845.217 569 843.8 567.8 842C566.633 840.167 565.95 838.05 565.75 835.65L570.25 835.35C570.483 837.117 571 838.617 571.8 839.85C572.6 841.083 573.667 842.017 575 842.65C576.367 843.283 578 843.6 579.9 843.6C581.567 843.6 582.983 843.383 584.15 842.95C585.317 842.517 586.2 841.883 586.8 841.05C587.433 840.217 587.75 839.2 587.75 838C587.75 836.9 587.483 835.933 586.95 835.1C586.45 834.233 585.467 833.45 584 832.75C582.567 832.017 580.433 831.3 577.6 830.6C574.867 829.9 572.683 829.133 571.05 828.3C569.45 827.467 568.283 826.45 567.55 825.25C566.85 824.05 566.5 822.567 566.5 820.8C566.5 818.8 566.967 817.05 567.9 815.55C568.867 814.017 570.233 812.833 572 812C573.767 811.133 575.867 810.7 578.3 810.7C580.9 810.7 583.133 811.2 585 812.2C586.867 813.167 588.35 814.5 589.45 816.2C590.55 817.9 591.233 819.833 591.5 822L587 822.3C586.8 820.867 586.333 819.6 585.6 818.5C584.9 817.367 583.933 816.483 582.7 815.85C581.467 815.217 579.967 814.9 578.2 814.9C576 814.9 574.25 815.433 572.95 816.5C571.65 817.533 571 818.9 571 820.6C571 821.7 571.25 822.617 571.75 823.35C572.283 824.05 573.217 824.683 574.55 825.25C575.883 825.783 577.8 826.367 580.3 827C583.267 827.733 585.617 828.617 587.35 829.65C589.117 830.65 590.367 831.817 591.1 833.15C591.867 834.483 592.25 836 592.25 837.7C592.25 839.767 591.717 841.567 590.65 843.1C589.583 844.6 588.117 845.767 586.25 846.6C584.383 847.4 582.233 847.8 579.8 847.8ZM607.462 847C605.062 847 603.278 846.45 602.112 845.35C600.978 844.25 600.412 842.533 600.412 840.2V814.3H604.612V840.1C604.612 841.3 604.878 842.133 605.412 842.6C605.945 843.067 606.762 843.3 607.862 843.3H611.662V847H607.462ZM596.512 824.2V820.5H611.662V824.2H596.512ZM624.004 847.6C621.27 847.6 619.087 846.967 617.454 845.7C615.854 844.433 615.054 842.667 615.054 840.4C615.054 838.133 615.72 836.35 617.054 835.05C618.387 833.75 620.504 832.833 623.404 832.3L632.804 830.55C632.804 828.317 632.27 826.65 631.204 825.55C630.17 824.45 628.604 823.9 626.504 823.9C624.67 823.9 623.22 824.317 622.154 825.15C621.087 825.95 620.354 827.117 619.954 828.65L615.504 828.3C616.004 825.8 617.204 823.783 619.104 822.25C621.037 820.683 623.504 819.9 626.504 819.9C629.904 819.9 632.504 820.867 634.304 822.8C636.104 824.7 637.004 827.333 637.004 830.7V841.65C637.004 842.25 637.104 842.683 637.304 842.95C637.537 843.183 637.904 843.3 638.404 843.3H639.454V847C639.32 847.033 639.104 847.05 638.804 847.05C638.504 847.083 638.187 847.1 637.854 847.1C636.654 847.1 635.67 846.917 634.904 846.55C634.17 846.15 633.637 845.55 633.304 844.75C632.97 843.917 632.804 842.833 632.804 841.5L633.304 841.6C633.07 842.733 632.504 843.767 631.604 844.7C630.704 845.6 629.587 846.317 628.254 846.85C626.92 847.35 625.504 847.6 624.004 847.6ZM624.404 843.9C626.17 843.9 627.67 843.567 628.904 842.9C630.17 842.2 631.137 841.267 631.804 840.1C632.47 838.9 632.804 837.567 632.804 836.1V834.2L624.204 835.8C622.404 836.133 621.154 836.65 620.454 837.35C619.787 838.017 619.454 838.9 619.454 840C619.454 841.233 619.887 842.2 620.754 842.9C621.654 843.567 622.87 843.9 624.404 843.9ZM652.579 847C650.179 847 648.396 846.45 647.229 845.35C646.096 844.25 645.529 842.533 645.529 840.2V814.3H649.729V840.1C649.729 841.3 649.996 842.133 650.529 842.6C651.062 843.067 651.879 843.3 652.979 843.3H656.779V847H652.579ZM641.629 824.2V820.5H656.779V824.2H641.629ZM672.028 847.6C669.528 847.6 667.361 847.033 665.528 845.9C663.728 844.767 662.328 843.167 661.328 841.1C660.361 839 659.878 836.55 659.878 833.75C659.878 830.95 660.361 828.517 661.328 826.45C662.328 824.383 663.711 822.783 665.478 821.65C667.278 820.483 669.394 819.9 671.828 819.9C674.128 819.9 676.161 820.45 677.928 821.55C679.694 822.617 681.061 824.183 682.028 826.25C683.028 828.317 683.528 830.833 683.528 833.8V835.05H664.278C664.444 837.883 665.194 840.017 666.528 841.45C667.894 842.883 669.728 843.6 672.028 843.6C673.761 843.6 675.178 843.2 676.278 842.4C677.411 841.567 678.194 840.483 678.628 839.15L683.128 839.5C682.428 841.867 681.094 843.817 679.128 845.35C677.194 846.85 674.828 847.6 672.028 847.6ZM664.278 831.35H678.928C678.728 828.783 677.978 826.9 676.678 825.7C675.411 824.5 673.794 823.9 671.828 823.9C669.794 823.9 668.111 824.533 666.778 825.8C665.478 827.033 664.644 828.883 664.278 831.35ZM687.905 834.4V830.45H704.455V834.4H687.905ZM721.002 847.6C718.569 847.6 716.436 847.033 714.602 845.9C712.769 844.767 711.352 843.167 710.352 841.1C709.352 839 708.852 836.55 708.852 833.75C708.852 830.917 709.352 828.467 710.352 826.4C711.352 824.333 712.769 822.733 714.602 821.6C716.436 820.467 718.569 819.9 721.002 819.9C723.436 819.9 725.552 820.467 727.352 821.6C729.186 822.733 730.602 824.333 731.602 826.4C732.602 828.467 733.102 830.917 733.102 833.75C733.102 836.55 732.602 839 731.602 841.1C730.602 843.167 729.186 844.767 727.352 845.9C725.552 847.033 723.436 847.6 721.002 847.6ZM721.002 843.6C723.436 843.6 725.319 842.733 726.652 841C728.019 839.233 728.702 836.817 728.702 833.75C728.702 830.683 728.019 828.283 726.652 826.55C725.319 824.783 723.436 823.9 721.002 823.9C718.569 823.9 716.669 824.783 715.302 826.55C713.936 828.283 713.252 830.683 713.252 833.75C713.252 836.817 713.936 839.233 715.302 841C716.669 842.733 718.569 843.6 721.002 843.6ZM738.826 847V820.5H742.676L742.826 827.25L742.326 826.8C742.66 825.233 743.243 823.95 744.076 822.95C744.91 821.917 745.91 821.15 747.076 820.65C748.276 820.15 749.56 819.9 750.926 819.9C752.96 819.9 754.626 820.35 755.926 821.25C757.26 822.15 758.243 823.367 758.876 824.9C759.543 826.4 759.876 828.083 759.876 829.95V847H755.676V831.15C755.676 829.517 755.476 828.15 755.076 827.05C754.71 825.917 754.11 825.067 753.276 824.5C752.443 823.9 751.36 823.6 750.026 823.6C747.993 823.6 746.31 824.25 744.976 825.55C743.676 826.817 743.026 828.683 743.026 831.15V847H738.826ZM772.346 847C770.813 847 769.563 846.6 768.596 845.8C767.63 845 767.146 843.733 767.146 842V811.5H771.346V841.65C771.346 842.183 771.48 842.6 771.746 842.9C772.046 843.167 772.463 843.3 772.996 843.3H775.296V847H772.346ZM780.406 854.5V850.8H783.456C784.389 850.8 785.073 850.65 785.506 850.35C785.973 850.083 786.323 849.633 786.556 849L787.506 846.5H786.056L776.356 820.5H780.956L788.856 842.6L796.406 820.5H801.006L790.256 850.35C789.756 851.783 789.006 852.833 788.006 853.5C787.006 854.167 785.623 854.5 783.856 854.5H780.406Z" fill="#F3EFD7"/>
<rect x="227.075" y="1095.07" width="158.85" height="158.85" rx="25.9252" fill="#F3EFD7" stroke="#F3EFD7" stroke-width="2.14953"/>
<path d="M290.827 1154.72C290.827 1152.57 290.377 1151.15 289.477 1150.45C288.827 1149.95 287.452 1149.7 285.352 1149.7C278.552 1149.7 273.827 1151.65 271.177 1155.55L270.427 1156.67C270.177 1156.92 269.852 1157.1 269.452 1157.2C268.702 1157.2 268.327 1156.92 268.327 1156.37L268.402 1155.77L268.777 1154.35L269.827 1149.7C270.127 1148.45 270.477 1147.67 270.877 1147.37C271.327 1147.07 272.302 1146.92 273.802 1146.92H317.002C317.502 1146.92 317.877 1147.02 318.127 1147.22C318.427 1147.32 318.652 1147.57 318.802 1147.97L319.327 1149.4L320.827 1154.42L321.202 1156.15C321.202 1156.85 320.827 1157.2 320.077 1157.2C319.727 1157.2 319.077 1156.55 318.127 1155.25C316.777 1153.3 314.952 1151.9 312.652 1151.05C310.402 1150.15 307.627 1149.7 304.327 1149.7C302.077 1149.7 300.577 1150.02 299.827 1150.67C299.077 1151.27 298.702 1152.6 298.702 1154.65V1191.25C298.702 1193.25 298.927 1194.7 299.377 1195.6C299.877 1196.45 300.777 1197.05 302.077 1197.4L303.052 1197.62L303.427 1197.7C304.377 1197.85 304.852 1198.4 304.852 1199.35C304.852 1200.45 304.127 1201 302.677 1201H286.627C285.177 1201 284.452 1200.45 284.452 1199.35C284.452 1198.5 284.902 1197.95 285.802 1197.7L286.102 1197.62L287.152 1197.4C288.452 1197.1 289.377 1196.5 289.927 1195.6C290.527 1194.65 290.827 1193.2 290.827 1191.25V1154.72ZM328.776 1191.07C328.776 1189.33 328.386 1188.37 327.606 1188.19L326.301 1187.92C326.091 1187.86 325.926 1187.78 325.806 1187.69C325.716 1187.6 325.641 1187.53 325.581 1187.47C325.551 1187.38 325.536 1187.3 325.536 1187.24C325.536 1186.7 325.881 1186.34 326.571 1186.16C327.291 1185.98 328.071 1185.71 328.911 1185.35L330.936 1184.41L332.016 1184.23C332.466 1184.23 332.841 1184.38 333.141 1184.68C333.201 1184.71 333.276 1184.78 333.366 1184.9C333.366 1184.93 333.381 1184.96 333.411 1184.99V1210.15C333.411 1212.58 334.101 1213.85 335.481 1213.97L336.066 1214.02C336.636 1214.02 336.921 1214.35 336.921 1215.01C336.921 1215.67 336.471 1216 335.571 1216H326.301C325.431 1216 324.996 1215.67 324.996 1215.01C324.996 1214.5 325.266 1214.17 325.806 1214.02L326.031 1213.97L326.616 1213.84C328.056 1213.51 328.776 1212.28 328.776 1210.15V1191.07Z" fill="#736FB9"/>
<rect x="227.075" y="120.075" width="158.85" height="158.85" rx="25.9252" fill="#F3EFD7" stroke="#F3EFD7" stroke-width="2.14953"/>
<path d="M290.827 179.725C290.827 177.575 290.377 176.15 289.477 175.45C288.827 174.95 287.452 174.7 285.352 174.7C278.552 174.7 273.827 176.65 271.177 180.55L270.427 181.675C270.177 181.925 269.852 182.1 269.452 182.2C268.702 182.2 268.327 181.925 268.327 181.375L268.402 180.775L268.777 179.35L269.827 174.7C270.127 173.45 270.477 172.675 270.877 172.375C271.327 172.075 272.302 171.925 273.802 171.925H317.002C317.502 171.925 317.877 172.025 318.127 172.225C318.427 172.325 318.652 172.575 318.802 172.975L319.327 174.4L320.827 179.425L321.202 181.15C321.202 181.85 320.827 182.2 320.077 182.2C319.727 182.2 319.077 181.55 318.127 180.25C316.777 178.3 314.952 176.9 312.652 176.05C310.402 175.15 307.627 174.7 304.327 174.7C302.077 174.7 300.577 175.025 299.827 175.675C299.077 176.275 298.702 177.6 298.702 179.65V216.25C298.702 218.25 298.927 219.7 299.377 220.6C299.877 221.45 300.777 222.05 302.077 222.4L303.052 222.625L303.427 222.7C304.377 222.85 304.852 223.4 304.852 224.35C304.852 225.45 304.127 226 302.677 226H286.627C285.177 226 284.452 225.45 284.452 224.35C284.452 223.5 284.902 222.95 285.802 222.7L286.102 222.625L287.152 222.4C288.452 222.1 289.377 221.5 289.927 220.6C290.527 219.65 290.827 218.2 290.827 216.25V179.725ZM325.941 222.91C328.011 220.99 330.111 220.03 332.241 220.03C334.761 220.03 336.846 221.02 338.496 223C340.146 224.95 340.971 227.425 340.971 230.425C340.971 233.725 340.056 236.425 338.226 238.525C336.426 240.595 334.056 241.63 331.116 241.63C327.966 241.63 325.431 240.43 323.511 238.03C321.591 235.6 320.631 232.45 320.631 228.58C320.631 223.63 322.146 219.325 325.176 215.665C327.066 213.385 329.781 211.39 333.321 209.68C334.461 209.14 335.301 208.87 335.841 208.87C336.471 208.87 336.786 209.17 336.786 209.77C336.786 210.07 336.111 210.565 334.761 211.255C333.621 211.795 332.391 212.695 331.071 213.955C329.781 215.185 328.746 216.46 327.966 217.78C327.216 219.07 326.541 220.78 325.941 222.91ZM325.356 229.975L325.401 231.37C325.401 232.69 325.551 233.875 325.851 234.925C326.181 235.945 326.646 236.875 327.246 237.715C328.296 239.245 329.616 240.01 331.206 240.01C332.796 240.01 334.056 239.305 334.986 237.895C335.436 237.175 335.781 236.335 336.021 235.375C336.261 234.415 336.381 233.305 336.381 232.045C336.381 228.985 335.871 226.585 334.851 224.845C333.831 223.075 332.436 222.19 330.666 222.19C329.046 222.19 327.756 222.895 326.796 224.305C325.836 225.715 325.356 227.605 325.356 229.975Z" fill="#736FB9"/>
<rect x="82.0748" y="749.075" width="158.85" height="158.85" rx="25.9252" fill="#F3EFD7" stroke="#F3EFD7" stroke-width="2.14953"/>
<path d="M145.827 808.725C145.827 806.575 145.377 805.15 144.477 804.45C143.827 803.95 142.452 803.7 140.352 803.7C133.552 803.7 128.827 805.65 126.177 809.55L125.427 810.675C125.177 810.925 124.852 811.1 124.452 811.2C123.702 811.2 123.327 810.925 123.327 810.375L123.402 809.775L123.777 808.35L124.827 803.7C125.127 802.45 125.477 801.675 125.877 801.375C126.327 801.075 127.302 800.925 128.802 800.925H172.002C172.502 800.925 172.877 801.025 173.127 801.225C173.427 801.325 173.652 801.575 173.802 801.975L174.327 803.4L175.827 808.425L176.202 810.15C176.202 810.85 175.827 811.2 175.077 811.2C174.727 811.2 174.077 810.55 173.127 809.25C171.777 807.3 169.952 805.9 167.652 805.05C165.402 804.15 162.627 803.7 159.327 803.7C157.077 803.7 155.577 804.025 154.827 804.675C154.077 805.275 153.702 806.6 153.702 808.65V845.25C153.702 847.25 153.927 848.7 154.377 849.6C154.877 850.45 155.777 851.05 157.077 851.4L158.052 851.625L158.427 851.7C159.377 851.85 159.852 852.4 159.852 853.35C159.852 854.45 159.127 855 157.677 855H141.627C140.177 855 139.452 854.45 139.452 853.35C139.452 852.5 139.902 851.95 140.802 851.7L141.102 851.625L142.152 851.4C143.452 851.1 144.377 850.5 144.927 849.6C145.527 848.65 145.827 847.2 145.827 845.25V808.725ZM181.346 865.725L186.656 865.68C188.366 865.68 189.626 865.53 190.436 865.23C191.606 864.87 192.671 864.075 193.631 862.845L194.531 861.72C194.711 861.54 194.876 861.435 195.026 861.405C195.476 861.405 195.731 861.63 195.791 862.08L195.701 862.575C195.161 864.045 194.516 865.335 193.766 866.445C192.896 867.705 191.936 868.635 190.886 869.235C189.866 869.745 188.561 870 186.971 870H177.521C176.801 870 176.426 869.79 176.396 869.37C176.396 868.98 176.726 868.47 177.386 867.84C177.896 867.39 178.841 866.175 180.221 864.195L183.371 859.74C186.821 854.85 188.546 850.815 188.546 847.635C188.546 845.985 188.096 844.665 187.196 843.675C186.326 842.685 185.126 842.19 183.596 842.19C181.436 842.19 179.411 843.45 177.521 845.97C177.401 846.09 177.296 846.18 177.206 846.24C177.116 846.3 177.026 846.345 176.936 846.375C176.276 846.375 175.946 846.09 175.946 845.52C175.946 845.07 176.216 844.35 176.756 843.36C177.326 842.34 178.016 841.425 178.826 840.615C180.566 838.785 182.651 837.87 185.081 837.87C187.301 837.87 189.131 838.605 190.571 840.075C192.011 841.515 192.731 843.375 192.731 845.655C192.731 848.595 191.396 852.075 188.726 856.095C188.006 857.205 187.016 858.615 185.756 860.325C184.526 862.005 183.056 863.805 181.346 865.725Z" fill="#736FB9"/>
<rect x="373.075" y="749.075" width="158.85" height="158.85" rx="25.9252" fill="#F3EFD7" stroke="#F3EFD7" stroke-width="2.14953"/>
<path d="M436.827 808.725C436.827 806.575 436.377 805.15 435.477 804.45C434.827 803.95 433.452 803.7 431.352 803.7C424.552 803.7 419.827 805.65 417.177 809.55L416.427 810.675C416.177 810.925 415.852 811.1 415.452 811.2C414.702 811.2 414.327 810.925 414.327 810.375L414.402 809.775L414.777 808.35L415.827 803.7C416.127 802.45 416.477 801.675 416.877 801.375C417.327 801.075 418.302 800.925 419.802 800.925H463.002C463.502 800.925 463.877 801.025 464.127 801.225C464.427 801.325 464.652 801.575 464.802 801.975L465.327 803.4L466.827 808.425L467.202 810.15C467.202 810.85 466.827 811.2 466.077 811.2C465.727 811.2 465.077 810.55 464.127 809.25C462.777 807.3 460.952 805.9 458.652 805.05C456.402 804.15 453.627 803.7 450.327 803.7C448.077 803.7 446.577 804.025 445.827 804.675C445.077 805.275 444.702 806.6 444.702 808.65V845.25C444.702 847.25 444.927 848.7 445.377 849.6C445.877 850.45 446.777 851.05 448.077 851.4L449.052 851.625L449.427 851.7C450.377 851.85 450.852 852.4 450.852 853.35C450.852 854.45 450.127 855 448.677 855H432.627C431.177 855 430.452 854.45 430.452 853.35C430.452 852.5 430.902 851.95 431.802 851.7L432.102 851.625L433.152 851.4C434.452 851.1 435.377 850.5 435.927 849.6C436.527 848.65 436.827 847.2 436.827 845.25V808.725ZM478.286 852.18H479.501C481.211 852.18 482.576 852.72 483.596 853.8C484.616 854.85 485.126 856.26 485.126 858.03C485.126 861.09 483.836 863.805 481.256 866.175C479.096 868.155 476.471 869.505 473.381 870.225C472.931 870.315 472.421 870.405 471.851 870.495C471.311 870.615 470.846 870.675 470.456 870.675C469.826 870.675 469.511 870.42 469.511 869.91C469.511 869.49 469.841 869.19 470.501 869.01C473.351 868.35 475.751 867.03 477.701 865.05C479.651 863.04 480.626 860.91 480.626 858.66C480.626 855.84 479.336 854.43 476.756 854.43L475.766 854.385C475.406 854.385 475.226 854.22 475.226 853.89C475.226 853.56 475.481 853.155 475.991 852.675C478.481 850.245 479.726 848.01 479.726 845.97C479.726 844.71 479.321 843.69 478.511 842.91C477.731 842.1 476.681 841.695 475.361 841.695C474.521 841.695 473.711 841.89 472.931 842.28C472.331 842.58 471.536 843.225 470.546 844.215C470.006 844.755 469.586 845.025 469.286 845.025C468.836 845.025 468.611 844.755 468.611 844.215C468.611 843.885 468.881 843.315 469.421 842.505C471.611 839.415 474.251 837.87 477.341 837.87C479.171 837.87 480.716 838.41 481.976 839.49C483.236 840.54 483.866 841.86 483.866 843.45C483.866 845.28 483.086 847.125 481.526 848.985C480.746 849.915 479.666 850.98 478.286 852.18Z" fill="#736FB9"/>
<rect x="82.0748" y="466.075" width="158.85" height="158.85" rx="25.9252" fill="#F3EFD7" stroke="#F3EFD7" stroke-width="2.14953"/>
<path d="M145.827 525.725C145.827 523.575 145.377 522.15 144.477 521.45C143.827 520.95 142.452 520.7 140.352 520.7C133.552 520.7 128.827 522.65 126.177 526.55L125.427 527.675C125.177 527.925 124.852 528.1 124.452 528.2C123.702 528.2 123.327 527.925 123.327 527.375L123.402 526.775L123.777 525.35L124.827 520.7C125.127 519.45 125.477 518.675 125.877 518.375C126.327 518.075 127.302 517.925 128.802 517.925H172.002C172.502 517.925 172.877 518.025 173.127 518.225C173.427 518.325 173.652 518.575 173.802 518.975L174.327 520.4L175.827 525.425L176.202 527.15C176.202 527.85 175.827 528.2 175.077 528.2C174.727 528.2 174.077 527.55 173.127 526.25C171.777 524.3 169.952 522.9 167.652 522.05C165.402 521.15 162.627 520.7 159.327 520.7C157.077 520.7 155.577 521.025 154.827 521.675C154.077 522.275 153.702 523.6 153.702 525.65V562.25C153.702 564.25 153.927 565.7 154.377 566.6C154.877 567.45 155.777 568.05 157.077 568.4L158.052 568.625L158.427 568.7C159.377 568.85 159.852 569.4 159.852 570.35C159.852 571.45 159.127 572 157.677 572H141.627C140.177 572 139.452 571.45 139.452 570.35C139.452 569.5 139.902 568.95 140.802 568.7L141.102 568.625L142.152 568.4C143.452 568.1 144.377 567.5 144.927 566.6C145.527 565.65 145.827 564.2 145.827 562.25V525.725ZM175.946 578.765C175.346 578.765 175.046 578.51 175.046 578V577.775L175.271 577.235L175.766 576.425L188.366 556.22C188.906 555.32 189.491 554.87 190.121 554.87C190.631 554.87 190.946 555.08 191.066 555.5L191.111 556.805V574.76C192.641 574.58 193.766 574.13 194.486 573.41L195.161 572.735C195.401 572.555 195.641 572.435 195.881 572.375C196.361 572.375 196.616 572.585 196.646 573.005L196.511 573.635L194.711 577.82L194.216 578.675L193.181 578.765H191.111V581.51C191.111 582.5 191.216 583.265 191.426 583.805C191.636 584.315 192.281 584.705 193.361 584.975L193.586 585.02C194.186 585.11 194.486 585.455 194.486 586.055C194.486 586.685 194.036 587 193.136 587H184.226C183.266 587 182.786 586.67 182.786 586.01C182.786 585.47 183.086 585.14 183.686 585.02L183.911 584.975L184.541 584.795C185.411 584.645 185.996 584.3 186.296 583.76C186.506 583.28 186.611 582.545 186.611 581.555V578.765H175.946ZM186.701 561.665L178.601 574.67H186.701V561.665Z" fill="#736FB9"/>
<rect x="373.075" y="466.075" width="158.85" height="158.85" rx="25.9252" fill="#F3EFD7" stroke="#F3EFD7" stroke-width="2.14953"/>
<path d="M436.827 525.725C436.827 523.575 436.377 522.15 435.477 521.45C434.827 520.95 433.452 520.7 431.352 520.7C424.552 520.7 419.827 522.65 417.177 526.55L416.427 527.675C416.177 527.925 415.852 528.1 415.452 528.2C414.702 528.2 414.327 527.925 414.327 527.375L414.402 526.775L414.777 525.35L415.827 520.7C416.127 519.45 416.477 518.675 416.877 518.375C417.327 518.075 418.302 517.925 419.802 517.925H463.002C463.502 517.925 463.877 518.025 464.127 518.225C464.427 518.325 464.652 518.575 464.802 518.975L465.327 520.4L466.827 525.425L467.202 527.15C467.202 527.85 466.827 528.2 466.077 528.2C465.727 528.2 465.077 527.55 464.127 526.25C462.777 524.3 460.952 522.9 458.652 522.05C456.402 521.15 453.627 520.7 450.327 520.7C448.077 520.7 446.577 521.025 445.827 521.675C445.077 522.275 444.702 523.6 444.702 525.65V562.25C444.702 564.25 444.927 565.7 445.377 566.6C445.877 567.45 446.777 568.05 448.077 568.4L449.052 568.625L449.427 568.7C450.377 568.85 450.852 569.4 450.852 570.35C450.852 571.45 450.127 572 448.677 572H432.627C431.177 572 430.452 571.45 430.452 570.35C430.452 569.5 430.902 568.95 431.802 568.7L432.102 568.625L433.152 568.4C434.452 568.1 435.377 567.5 435.927 566.6C436.527 565.65 436.827 564.2 436.827 562.25V525.725ZM472.391 565.175C473.921 565.175 475.166 565.295 476.126 565.535C477.116 565.745 478.121 566.21 479.141 566.93C481.301 568.46 482.381 570.71 482.381 573.68C482.381 577.16 480.986 580.28 478.196 583.04C477.056 584.18 475.586 585.23 473.786 586.19C472.016 587.15 470.726 587.63 469.916 587.63C469.286 587.63 468.971 587.405 468.971 586.955C468.971 586.625 469.316 586.28 470.006 585.92C470.996 585.5 471.941 584.96 472.841 584.3C473.741 583.64 474.641 582.8 475.541 581.78C477.281 579.86 478.151 577.775 478.151 575.525C478.151 573.725 477.581 572.3 476.441 571.25C475.331 570.2 473.771 569.675 471.761 569.675L470.861 569.72L470.051 569.765C469.571 569.765 469.331 569.585 469.331 569.225C469.331 568.955 469.406 568.655 469.556 568.325L473.921 557.48C474.011 557.06 474.296 556.55 474.776 555.95C475.016 555.83 475.571 555.77 476.441 555.77H480.806C481.676 555.77 482.351 555.725 482.831 555.635C483.341 555.545 483.941 555.215 484.631 554.645C484.751 554.555 484.856 554.495 484.946 554.465C485.066 554.435 485.156 554.405 485.216 554.375L485.666 554.51C485.876 554.6 485.996 554.765 486.026 555.005C485.936 555.305 485.861 555.515 485.801 555.635L484.541 558.605C484.451 558.905 484.226 559.31 483.866 559.82C483.626 560 483.026 560.09 482.066 560.09H474.641L472.391 565.175Z" fill="#736FB9"/>
<path d="M304.5 1088C304.5 1089.1 305.395 1090 306.5 1090C307.605 1090 308.5 1089.1 308.5 1088H306.5H304.5ZM162.914 914.086C162.133 913.305 160.867 913.305 160.086 914.086L147.358 926.814C146.577 927.595 146.577 928.861 147.358 929.642C148.139 930.423 149.405 930.423 150.186 929.642L161.5 918.328L172.814 929.642C173.595 930.423 174.861 930.423 175.642 929.642C176.423 928.861 176.423 927.595 175.642 926.814L162.914 914.086ZM306.5 1088H308.5V1025.5H306.5H304.5V1088H306.5ZM282.5 1001.5V999.5H185.5V1001.5V1003.5H282.5V1001.5ZM161.5 977.5H163.5V915.5H161.5H159.5V977.5H161.5ZM185.5 1001.5V999.5C173.35 999.5 163.5 989.65 163.5 977.5H161.5H159.5C159.5 991.859 171.141 1003.5 185.5 1003.5V1001.5ZM306.5 1025.5H308.5C308.5 1011.14 296.859 999.5 282.5 999.5V1001.5V1003.5C294.65 1003.5 304.5 1013.35 304.5 1025.5H306.5Z" fill="#F3EFD7"/>
<path d="M308.5 1088C308.5 1089.1 307.605 1090 306.5 1090C305.395 1090 304.5 1089.1 304.5 1088H306.5H308.5ZM451.086 914.086C451.867 913.305 453.133 913.305 453.914 914.086L466.642 926.814C467.423 927.595 467.423 928.861 466.642 929.642C465.861 930.423 464.595 930.423 463.814 929.642L452.5 918.328L441.186 929.642C440.405 930.423 439.139 930.423 438.358 929.642C437.577 928.861 437.577 927.595 438.358 926.814L451.086 914.086ZM306.5 1088H304.5V1025.5H306.5H308.5V1088H306.5ZM330.5 1001.5V999.5H428.5V1001.5V1003.5H330.5V1001.5ZM452.5 977.5H450.5V915.5H452.5H454.5V977.5H452.5ZM428.5 1001.5V999.5C440.65 999.5 450.5 989.65 450.5 977.5H452.5H454.5C454.5 991.859 442.859 1003.5 428.5 1003.5V1001.5ZM306.5 1025.5H304.5C304.5 1011.14 316.141 999.5 330.5 999.5V1001.5V1003.5C318.35 1003.5 308.5 1013.35 308.5 1025.5H306.5Z" fill="#F3EFD7"/>
<path d="M454.5 742C454.5 743.105 453.605 744 452.5 744C451.395 744 450.5 743.105 450.5 742H452.5H454.5ZM451.086 631.086C451.867 630.305 453.133 630.305 453.914 631.086L466.642 643.814C467.423 644.595 467.423 645.861 466.642 646.642C465.861 647.423 464.595 647.423 463.814 646.642L452.5 635.328L441.186 646.642C440.405 647.423 439.139 647.423 438.358 646.642C437.577 645.861 437.577 644.595 438.358 643.814L451.086 631.086ZM452.5 742H450.5V632.5H452.5H454.5V742H452.5Z" fill="#F3EFD7"/>
<path d="M163.5 742C163.5 743.105 162.605 744 161.5 744C160.395 744 159.5 743.105 159.5 742H161.5H163.5ZM160.086 631.086C160.867 630.305 162.133 630.305 162.914 631.086L175.642 643.814C176.423 644.595 176.423 645.861 175.642 646.642C174.861 647.423 173.595 647.423 172.814 646.642L161.5 635.328L150.186 646.642C149.405 647.423 148.139 647.423 147.358 646.642C146.577 645.861 146.577 644.595 147.358 643.814L160.086 631.086ZM161.5 742H159.5V632.5H161.5H163.5V742H161.5Z" fill="#F3EFD7"/>
<path d="M163.5 459C163.5 460.105 162.605 461 161.5 461C160.395 461 159.5 460.105 159.5 459H161.5H163.5ZM305.086 285.086C305.867 284.305 307.133 284.305 307.914 285.086L320.642 297.814C321.423 298.595 321.423 299.861 320.642 300.642C319.861 301.423 318.595 301.423 317.814 300.642L306.5 289.328L295.186 300.642C294.405 301.423 293.139 301.423 292.358 300.642C291.577 299.861 291.577 298.595 292.358 297.814L305.086 285.086ZM161.5 459H159.5V396.5H161.5H163.5V459H161.5ZM185.5 372.5V370.5H282.5V372.5V374.5H185.5V372.5ZM306.5 348.5H304.5V286.5H306.5H308.5V348.5H306.5ZM282.5 372.5V370.5C294.65 370.5 304.5 360.65 304.5 348.5H306.5H308.5C308.5 362.859 296.859 374.5 282.5 374.5V372.5ZM161.5 396.5H159.5C159.5 382.141 171.141 370.5 185.5 370.5V372.5V374.5C173.35 374.5 163.5 384.35 163.5 396.5H161.5Z" fill="#F3EFD7"/>
<path d="M454.5 459C454.5 460.105 453.605 461 452.5 461C451.395 461 450.5 460.105 450.5 459H452.5H454.5ZM305.086 285.086C305.867 284.305 307.133 284.305 307.914 285.086L320.642 297.814C321.423 298.595 321.423 299.861 320.642 300.642C319.861 301.423 318.595 301.423 317.814 300.642L306.5 289.328L295.186 300.642C294.405 301.423 293.139 301.423 292.358 300.642C291.577 299.861 291.577 298.595 292.358 297.814L305.086 285.086ZM452.5 459H450.5V396.5H452.5H454.5V459H452.5ZM428.5 372.5V374.5H330.5V372.5V370.5H428.5V372.5ZM306.5 348.5H304.5V286.5H306.5H308.5V348.5H306.5ZM330.5 372.5V374.5C316.141 374.5 304.5 362.859 304.5 348.5H306.5H308.5C308.5 360.65 318.35 370.5 330.5 370.5V372.5ZM452.5 396.5H450.5C450.5 384.35 440.65 374.5 428.5 374.5V372.5V370.5C442.859 370.5 454.5 382.141 454.5 396.5H452.5Z" fill="#F3EFD7"/>
<path d="M2675.6 151.812L2675.6 231.682C2675.6 240.038 2671.25 247.888 2663.89 252.345L1061.85 1226.23C1025.89 1248.05 1005.27 1284.27 1005.27 1325.75C1005.27 1367.22 1025.89 1403.39 1061.85 1425.27L2663.89 2399.09C2671.25 2403.55 2675.6 2411.4 2675.6 2419.76L2675.6 2499.63C2675.6 2518.72 2654.1 2530.37 2637.52 2520.29L998.794 1524.03C928.28 1481.03 886.002 1406.93 886.002 1325.54C886.002 1244.1 928.072 1170.06 998.794 1127.06L2637.52 130.845C2654.1 120.766 2675.6 132.364 2675.6 151.458L2675.6 151.812Z" fill="#F3EFD7"/>
<path d="M2675.6 -453.849L2675.6 -373.98C2675.6 -365.623 2671.25 -357.773 2663.89 -353.316L1061.85 620.564C1025.89 642.393 1005.27 678.605 1005.27 720.084C1005.27 761.563 1025.89 797.725 1061.85 819.604L2663.89 1793.43C2671.25 1797.89 2675.6 1805.74 2675.6 1814.1L2675.6 1893.97C2675.6 1913.06 2654.1 1924.71 2637.52 1914.63L998.794 918.365C928.28 875.366 886.002 801.27 886.002 719.881C886.002 638.442 928.072 564.397 998.794 521.398L2637.52 -474.816C2654.1 -484.895 2675.6 -473.297 2675.6 -454.203L2675.6 -453.849Z" fill="#F3EFD7"/>
<path d="M2675.6 -1060.32L2675.6 -980.446C2675.6 -972.09 2671.25 -964.24 2663.89 -959.783L1061.85 14.0972C1025.89 35.9258 1005.27 72.1379 1005.27 113.617C1005.27 155.097 1025.89 191.258 1061.85 213.137L2663.89 1186.97C2671.25 1191.42 2675.6 1199.27 2675.6 1207.63L2675.6 1287.5C2675.6 1306.59 2654.1 1318.24 2637.52 1308.16L998.794 311.898C928.28 268.899 886.002 194.803 886.002 113.415C886.002 31.9752 928.072 -42.0698 998.794 -85.0686L2637.52 -1081.28C2654.1 -1091.36 2675.6 -1079.76 2675.6 -1060.67L2675.6 -1060.32Z" fill="#F3EFD7"/>
</g>
<defs>
<clipPath id="clip0_1220_1810">
<rect width="1080" height="1440" fill="white" transform="matrix(1 0 0 -1 0 1440)"/>
</clipPath>
</defs>
</svg>
