<svg width="380" height="323" viewBox="0 0 380 323" fill="none" xmlns="http://www.w3.org/2000/svg">
<path d="M303.65 0H75.9125C34.055 0 0 34.055 0 75.9125V189.781C0 231.639 34.055 265.694 75.9125 265.694H170.803V284.672H132.847C122.366 284.672 113.869 293.169 113.869 303.65C113.869 314.131 122.366 322.628 132.847 322.628H246.716C257.196 322.628 265.694 314.131 265.694 303.65C265.694 293.169 257.196 284.672 246.716 284.672H208.759V265.694H303.65C345.508 265.694 379.562 231.639 379.562 189.781V75.9125C379.562 34.055 345.508 0 303.65 0ZM129.437 172.999C133.458 176.354 134.005 182.34 130.651 186.371C128.77 188.623 126.073 189.781 123.349 189.781C121.208 189.781 119.058 189.058 117.279 187.585L60.3445 140.14C58.1854 138.333 56.9344 135.664 56.9344 132.847C56.9344 130.03 58.1854 127.361 60.3445 125.554L117.279 78.1087C121.328 74.7634 127.287 75.2916 130.651 79.3226C134.005 83.3536 133.458 89.3399 129.437 92.6944L81.2501 132.847L129.437 172.999ZM226.385 90.2851L169.45 185.176C167.671 188.141 164.53 189.781 161.305 189.781C159.646 189.781 157.96 189.346 156.431 188.428C151.936 185.732 150.481 179.903 153.178 175.409L210.112 80.518C212.818 76.0237 218.638 74.5781 223.132 77.2654C227.626 79.962 229.081 85.7908 226.385 90.2851ZM319.218 140.14L262.284 187.585C260.504 189.058 258.355 189.781 256.214 189.781C253.49 189.781 250.793 188.623 248.912 186.371C245.557 182.34 246.104 176.354 250.126 172.999L298.312 132.847L250.126 92.6944C246.104 89.3399 245.557 83.3536 248.912 79.3226C252.276 75.2916 258.243 74.7634 262.284 78.1087L319.218 125.554C321.377 127.361 322.628 130.03 322.628 132.847C322.628 135.664 321.377 138.333 319.218 140.14Z" fill="#EC641D"/>
</svg>
