<svg width="1600" height="1070" viewBox="0 0 1600 1070" fill="none" xmlns="http://www.w3.org/2000/svg">
<g clip-path="url(#clip0_1244_456)">
<rect width="1600" height="1070" fill="#736FB9"/>
<path d="M-2841.43 5570L-2593.68 5570C-2567.76 5570 -2543.41 5556.8 -2529.58 5534.49L491.355 676.258C559.066 567.218 671.395 504.685 800.062 504.685C928.73 504.685 1040.9 567.218 1108.77 676.257L4129.55 5534.49C4143.37 5556.8 4167.72 5570 4193.65 5570L4441.4 5570C4500.63 5570 4536.76 5504.8 4505.5 5454.52L1415.12 485.045C1281.74 271.208 1051.9 143 799.434 143C546.812 143 317.127 270.58 183.747 485.045L-2906.47 5454.52C-2937.73 5504.8 -2901.76 5570 -2842.53 5570L-2841.43 5570Z" fill="#F3EFD7"/>
<path d="M658.34 987.904H649.883C648.998 987.904 648.166 987.435 647.696 986.647L606.855 918.45C605.897 916.854 604.398 916.685 603.801 916.685C603.205 916.685 601.687 916.854 600.747 918.45L559.906 986.647C559.436 987.435 558.605 987.904 557.719 987.904H549.262C547.238 987.904 546.009 985.596 547.075 983.813L590.284 911.694C593.211 906.796 598.271 903.887 603.819 903.887C609.367 903.887 614.427 906.796 617.355 911.694L660.563 983.813C661.629 985.596 660.401 987.904 658.377 987.904H658.34Z" fill="#F3EFD7"/>
<path d="M681.596 987.909H673.138C672.251 987.909 671.422 987.44 670.951 986.652L609.346 883.793C608.117 881.747 606.111 880.584 603.798 880.584C601.485 880.584 599.461 881.747 598.25 883.793L536.645 986.652C536.175 987.44 535.344 987.909 534.459 987.909H526.001C523.977 987.909 522.749 985.601 523.815 983.818L587.769 877.037C591.239 871.238 597.22 867.785 603.798 867.785C607.087 867.785 610.213 868.649 612.978 870.244C615.725 871.839 618.092 874.147 619.827 877.037L683.781 983.818C684.849 985.601 683.618 987.909 681.596 987.909Z" fill="#F3EFD7"/>
<path d="M704.836 987.907H696.378C695.493 987.907 694.661 987.438 694.191 986.65L611.84 849.129C610.069 846.183 607.142 844.494 603.799 844.494C600.456 844.494 597.528 846.183 595.757 849.129L513.406 986.65C512.936 987.438 512.105 987.907 511.22 987.907H502.762C500.738 987.907 499.509 985.599 500.576 983.816L585.294 842.355C589.215 835.805 595.938 831.827 603.347 831.677C611.154 831.508 618.418 835.824 622.557 842.711L707.058 983.797C708.124 985.58 706.896 987.888 704.871 987.888L704.836 987.907Z" fill="#F3EFD7"/>
<path d="M728.095 987.907H719.639C718.753 987.907 717.921 987.438 717.452 986.65L614.337 814.468C612.024 810.602 608.193 808.388 603.802 808.388C599.41 808.388 595.579 810.602 593.266 814.468L490.151 986.65C489.681 987.438 488.85 987.907 487.965 987.907H479.507C477.483 987.907 476.254 985.599 477.321 983.816L582.803 807.693C587.357 800.112 595.2 795.57 603.82 795.57C612.44 795.57 620.283 800.093 624.837 807.693L730.318 983.816C731.386 985.599 730.155 987.907 728.133 987.907H728.095Z" fill="#F3EFD7"/>
<path d="M774.743 839.311H789.918L813.228 905.568H801.071L795.311 888.862H769.076L763.317 905.568H751.524L774.743 839.311ZM772.55 878.895H791.838L786.079 862.378L782.239 849.089L778.217 862.378L772.55 878.895Z" fill="#F3EFD7"/>
<path d="M846.536 870.446C846.536 865.131 844.251 861.619 839.771 861.619C835.383 861.619 831.453 865.605 827.887 873.199V905.568H817.009V853.17H827.43L827.705 860.764C831.453 855.164 836.115 852.031 841.874 852.031C851.198 852.031 857.505 858.581 857.505 870.446V876.996H846.536V870.446Z" fill="#F3EFD7"/>
<path d="M886.013 906.707C870.29 906.707 860.6 896.171 860.6 879.369C860.6 862.568 870.381 852.031 886.196 852.031C899.542 852.031 908.501 859.625 909.415 871.775H898.537C897.531 865.321 892.777 861.429 886.196 861.429C877.146 861.429 871.478 868.358 871.478 879.369C871.478 890.475 877.054 897.5 886.013 897.5C892.32 897.5 897.348 893.608 898.811 887.343H909.689C908.135 899.208 898.994 906.707 886.013 906.707Z" fill="#F3EFD7"/>
<path d="M950.676 872.914C950.676 866.08 946.746 861.619 940.987 861.619C934.862 861.619 930.017 865.51 926.36 874.149V905.568H915.482V835.609H926.36V860.859C930.566 854.879 936.507 852.031 942.998 852.031C954.424 852.031 961.555 860.1 961.555 872.25V905.568H950.676V872.914Z" fill="#F3EFD7"/>
<path d="M757.923 986.688V920.431H771.087L800.339 971.406L798.694 946.915V920.431H810.212V986.688H797.048L767.705 935.619L769.441 960.205V986.688H757.923Z" fill="#F3EFD7"/>
<path d="M843.164 987.827C827.258 987.827 817.568 977.481 817.568 960.394C817.568 943.498 827.44 933.151 843.621 933.151C859.892 933.151 868.485 943.593 867.388 960.489H828.446V960.869C828.446 971.216 833.657 978.525 843.164 978.525C850.385 978.525 855.504 974.728 856.601 968.748H867.571C866.017 980.613 856.784 987.827 843.164 987.827ZM829.634 952.326H856.236C855.779 946.251 850.659 942.264 843.621 942.264C836.399 942.264 831.645 945.776 829.634 952.326Z" fill="#F3EFD7"/>
<path d="M891.56 986.688C881.504 986.688 876.111 979.664 876.111 969.697V943.498H866.97V934.29H876.111V924.893L887.081 919.197V934.29H897.867V943.498H887.081V969.697C887.081 975.013 889 977.481 895.673 977.481H903.169V986.688H891.56Z" fill="#F3EFD7"/>
<path d="M913.843 986.688L899.309 934.29H910.187L917.957 962.578L920.608 976.911L923.442 963.242L931.395 934.29H941.724L949.86 963.242L952.694 977.101L955.436 962.578L963.207 934.29H973.536L959.093 986.688H946.569L938.799 958.876L936.422 946.63L934.046 958.876L926.275 986.688H913.843Z" fill="#F3EFD7"/>
<path d="M998.859 987.827C983.044 987.827 973.446 977.481 973.446 960.489C973.446 943.498 983.044 933.151 998.859 933.151C1014.67 933.151 1024.27 943.498 1024.27 960.489C1024.27 977.481 1014.67 987.827 998.859 987.827ZM984.324 960.489C984.324 971.69 989.9 978.525 998.859 978.525C1007.82 978.525 1013.3 971.69 1013.3 960.489C1013.3 949.288 1007.82 942.454 998.859 942.454C989.9 942.454 984.324 949.288 984.324 960.489Z" fill="#F3EFD7"/>
<path d="M1060.44 951.566C1060.44 946.251 1058.16 942.739 1053.68 942.739C1049.29 942.739 1045.36 946.725 1041.79 954.319V986.688H1030.92V934.29H1041.34L1041.61 941.884C1045.36 936.284 1050.02 933.151 1055.78 933.151C1065.11 933.151 1071.41 939.701 1071.41 951.566V958.116H1060.44V951.566Z" fill="#F3EFD7"/>
<path d="M1076.81 986.688V916.729H1087.78V942.264L1087.23 956.692L1096.28 945.776L1106.97 934.29H1121.14L1103.59 952.516L1123.89 986.688H1111.18L1095.91 960.584L1087.78 969.032V986.688H1076.81Z" fill="#F3EFD7"/>
</g>
<defs>
<clipPath id="clip0_1244_456">
<rect width="1600" height="1070" fill="white"/>
</clipPath>
</defs>
</svg>
