<svg width="312" height="369" viewBox="0 0 312 369" fill="none" xmlns="http://www.w3.org/2000/svg">
<path d="M155.655 213.455C148.48 213.455 142.014 210.537 137.283 205.885C132.631 201.154 129.713 194.688 129.713 187.512V184.752H181.598V187.512C181.598 201.863 170.007 213.455 155.655 213.455ZM124.43 161.569C127.82 163.541 129.712 167.325 129.712 171.268V172.924H181.598V171.189C181.598 167.324 183.569 163.54 186.959 161.49C205.016 150.608 216.844 130.659 216.135 107.791C215.188 76.1709 188.614 49.834 156.996 49.2027C122.931 48.414 95.0955 75.7761 95.0955 109.683C95.0955 131.762 106.845 151.003 124.43 161.569ZM155.655 29.123C158.921 29.123 161.569 26.4744 161.569 23.209V5.914C161.569 2.64867 158.921 0 155.655 0C152.39 0 149.741 2.64867 149.741 5.914V23.209C149.741 26.4744 152.39 29.123 155.655 29.123ZM216.805 54.4539C218.318 54.4539 219.832 53.8764 220.987 52.7214L233.219 40.4895C235.529 38.1795 235.529 34.4373 233.219 32.1265C230.909 29.8157 227.166 29.8165 224.856 32.1265L212.624 44.3584C210.314 46.6684 210.314 50.4107 212.624 52.7214C213.779 53.8764 215.292 54.4539 216.805 54.4539ZM242.135 115.603H259.43C262.696 115.603 265.344 112.954 265.344 109.689C265.344 106.424 262.696 103.775 259.43 103.775H242.135C238.87 103.775 236.221 106.424 236.221 109.689C236.221 112.954 238.87 115.603 242.135 115.603ZM90.325 52.7214C91.48 53.8764 92.9928 54.4539 94.5065 54.4539C96.0201 54.4539 97.533 53.8764 98.688 52.7214C100.998 50.4114 100.998 46.6692 98.688 44.3584L86.456 32.1265C84.146 29.8165 80.4038 29.8165 78.093 32.1265C75.7823 34.4365 75.783 38.1787 78.093 40.4895L90.325 52.7214ZM51.8798 115.603H69.1748C72.4401 115.603 75.0888 112.954 75.0888 109.689C75.0888 106.424 72.4401 103.775 69.1748 103.775H51.8798C48.6144 103.775 45.9658 106.424 45.9658 109.689C45.9658 112.954 48.6144 115.603 51.8798 115.603ZM34.617 317.224V152.895C47.5493 150.451 69.2332 147.848 95.097 152.895C96.0432 153.053 97.0684 153.289 98.0145 153.526C103.297 160.544 110.079 166.616 117.885 171.268V187.512C117.885 206.279 131.685 221.971 149.741 224.81V328.816C139.018 321.562 120.33 311.39 95.0963 308.63C66.8671 305.397 44.7893 313.045 34.617 317.224ZM54.9608 190.666C55.0391 193.899 57.8782 196.343 61.0322 196.421C72.0715 196.185 83.1899 197.053 93.8353 199.181C97.778 199.891 101.642 200.916 105.269 201.862C105.821 202.021 106.373 202.099 106.846 202.099C109.449 202.099 111.814 200.364 112.523 197.762C113.39 194.608 111.577 191.296 108.423 190.507C104.48 189.404 100.301 188.379 96.0424 187.512C84.6084 185.304 72.702 184.279 60.7166 184.593C57.4835 184.673 54.8817 187.353 54.9608 190.666ZM54.9608 231.038C55.0391 234.271 57.7208 236.873 61.0322 236.795C71.9932 236.479 82.9534 237.425 93.7562 239.476C104.796 241.684 115.52 245.074 125.691 249.647C126.48 250.042 127.347 250.2 128.136 250.2C130.422 250.2 132.552 248.859 133.498 246.652C134.838 243.733 133.577 240.185 130.58 238.845C119.541 233.956 107.949 230.25 96.0424 227.884C84.3726 225.597 72.4655 224.651 60.7166 224.967C57.4835 225.045 54.8817 227.805 54.9608 231.038ZM93.7562 279.849C104.796 281.978 115.52 285.447 125.691 290.021C126.48 290.336 127.347 290.494 128.136 290.494C130.422 290.494 132.552 289.232 133.498 287.024C134.838 284.028 133.577 280.558 130.58 279.217C119.541 274.25 107.949 270.544 96.0424 268.257C84.3726 265.97 72.4655 265.024 60.7166 265.34C57.4835 265.418 54.8817 268.1 54.9608 271.411C55.0391 274.644 57.7208 277.246 61.0322 277.168C71.9141 276.852 82.9534 277.798 93.7562 279.849ZM216.215 308.63C190.982 311.39 172.294 321.562 161.569 328.816V224.81C179.627 221.971 193.426 206.279 193.426 187.512L193.032 171.663C200.917 166.931 207.699 160.702 213.14 153.605C214.165 153.29 215.189 153.132 216.215 152.895C242.078 147.848 263.763 150.451 276.695 152.895V317.224C266.522 313.045 244.444 305.397 216.215 308.63ZM198.788 197.763C199.498 200.365 201.863 202.1 204.466 202.1C204.939 202.1 205.491 202.021 206.043 201.863C209.67 200.917 213.534 199.892 217.477 199.182C228.122 197.053 239.241 196.186 250.279 196.422C253.592 196.422 256.273 193.899 256.352 190.666C256.431 187.355 253.828 184.673 250.596 184.594C238.61 184.279 226.703 185.304 215.269 187.512C211.012 188.379 206.832 189.405 202.889 190.508C199.735 191.297 197.92 194.609 198.788 197.763ZM177.813 246.652C178.759 248.859 180.889 250.2 183.175 250.2C183.964 250.2 184.831 250.042 185.619 249.647C195.792 245.074 206.515 241.684 217.555 239.476C228.358 237.425 239.398 236.558 250.279 236.795C253.433 236.873 256.273 234.271 256.352 231.038C256.431 227.805 253.828 225.045 250.596 224.967C238.846 224.651 226.94 225.597 215.269 227.884C203.362 230.25 191.771 233.956 180.731 238.845C177.735 240.185 176.473 243.733 177.813 246.652ZM185.619 290.021C195.792 285.447 206.515 281.978 217.555 279.849C228.358 277.798 239.318 276.852 250.279 277.168C253.433 277.246 256.273 274.644 256.352 271.411C256.431 268.1 253.828 265.418 250.596 265.34C238.846 265.024 226.94 265.97 215.269 268.257C203.362 270.543 191.771 274.25 180.731 279.217C177.735 280.558 176.474 284.028 177.814 287.024C178.76 289.232 180.89 290.494 183.176 290.494C183.964 290.494 184.831 290.336 185.619 290.021ZM297.354 173.555L288.523 171.82V334.888L272.2 328.186C254.694 321.01 235.77 318.329 217.555 320.38C190.981 323.297 171.898 335.44 162.91 342.458L155.655 348.057L148.401 342.458C139.411 335.44 120.329 323.297 93.8345 320.38C75.5404 318.25 56.6157 321.011 39.111 328.186L22.7882 334.888V171.82L13.9568 173.555C5.8349 175.132 0 182.228 0 190.508V343.089C0 355.469 12.5376 363.827 23.8925 359.096L47.7843 349.161C58.508 344.744 70.0994 342.379 81.5335 342.379C84.7665 342.379 87.9996 342.616 91.2319 343.01C112.206 345.376 127.346 354.918 134.443 360.515L136.651 362.171C147.848 370.766 163.461 370.766 174.658 362.171L176.866 360.515C183.962 354.917 199.102 345.376 220.077 342.931C223.31 342.616 226.543 342.379 229.776 342.379C241.21 342.379 252.801 344.744 263.524 349.161L287.417 359.096C298.772 363.827 311.309 355.469 311.309 343.089V190.508C311.309 182.229 305.476 175.132 297.354 173.555Z" fill="#EC641D"/>
</svg>
