<svg width="267" height="338" viewBox="0 0 267 338" fill="none" xmlns="http://www.w3.org/2000/svg">
<path d="M246.748 135.373H233.135V99.8972C233.135 44.8131 188.322 0 133.232 0C78.1426 0 33.3294 44.8131 33.3294 99.8972V135.373H19.7164C8.84762 135.373 0 144.221 0 155.09V317.33C0 328.204 8.84762 337.052 19.7164 337.052H246.748C257.617 337.052 266.47 328.204 266.47 317.33V155.09C266.47 144.221 257.617 135.373 246.748 135.373ZM149.578 238.368C148.69 238.92 148.155 239.893 148.155 240.935V277.897C148.155 286.13 141.459 292.82 133.232 292.82C125.005 292.82 118.31 286.13 118.31 277.897V240.935C118.31 239.893 117.775 238.92 116.886 238.368C107.766 232.68 102.323 222.87 102.323 212.138C102.323 195.092 116.192 181.228 133.232 181.228C150.273 181.228 164.142 195.092 164.142 212.138C164.142 222.87 158.699 232.68 149.578 238.368ZM197.175 135.373H69.2893V97.7508C69.2893 62.497 97.9785 33.8134 133.232 33.8134C168.486 33.8134 197.175 62.497 197.175 97.7508V135.373Z" fill="#EC641D"/>
</svg>
